<?xml version="1.0" encoding="utf-8"?>
<!-- Generator: Adobe Illustrator 25.0.1, SVG Export Plug-In . SVG Version: 6.00 Build 0)  -->
<svg version="1.1" id="Ebene_1" xmlns="http://www.w3.org/2000/svg" xmlns:xlink="http://www.w3.org/1999/xlink" x="0px" y="0px"
	 viewBox="0 0 300 300" style="enable-background:new 0 0 300 300;" xml:space="preserve">
<style type="text/css">
	.st0{fill:#000000;}
</style>
<g>
	<path class="st0" d="M150,0C67.16,0,0,67.16,0,150s67.16,150,150,150s150-67.16,150-150S232.84,0,150,0z M204.06,117.23
		c-1.22,9.99-2.51,19.97-3.67,29.96c-0.26,2.24-1.19,3.08-3.45,3.05c-8.38-0.08-16.76-0.03-25.15-0.03c-4.31,0-4.31,0-4.32,4.18
		c0,16.26,0,32.53,0,48.79s0,32.53,0,48.79c0,4.1-0.05,4.16-4.19,4.16c-13.37,0-26.74-0.01-40.12-0.03c-4.3-0.01-4.49-0.2-4.49-4.62
		c-0.01-32.03,0-64.06,0-96.09c0-4.76-0.01-4.77-4.78-4.77c-4.99,0-9.98-0.05-14.97,0.01c-2.29,0.03-3.17-0.89-3.15-3.21
		c0.08-10.08,0.09-20.16,0-30.23c-0.02-2.51,0.99-3.35,3.38-3.31c5.19,0.08,10.38,0.04,15.57,0.02c3.65-0.01,3.97-0.3,3.98-3.89
		c0.02-7.78-0.17-15.57,0.04-23.35c0.17-6.17,0.38-12.4,2.92-18.2c6.28-14.34,17.6-22.15,32.88-23.27
		c14.9-1.09,29.89-0.96,44.84-1.31c4.59-0.11,4.6-0.02,4.61,4.69c0,9.88,0.01,19.76-0.01,29.63c-0.01,3.26-0.3,3.58-3.62,3.6
		c-6.98,0.05-13.97-0.01-20.96,0.04c-7.84,0.06-11.39,3.55-11.46,11.3c-0.05,5.89,0.08,11.78-0.02,17.66
		c-0.04,2.36,0.84,3.11,3.16,3.09c9.98-0.09,19.96-0.05,29.94-0.03C204.36,113.87,204.46,113.98,204.06,117.23z"/>
</g>
</svg>
