<?xml version="1.0" encoding="utf-8"?>
<!-- Generator: Adobe Illustrator 25.0.1, SVG Export Plug-In . SVG Version: 6.00 Build 0)  -->
<svg version="1.1" id="Ebene_1" xmlns="http://www.w3.org/2000/svg" xmlns:xlink="http://www.w3.org/1999/xlink" x="0px" y="0px"
	 viewBox="0 0 300 300" style="enable-background:new 0 0 300 300;" xml:space="preserve">
<style type="text/css">
	.st0{fill:#000000;}
</style>
<g>
	<path class="st0" d="M150,0C67.16,0,0,67.16,0,150s67.16,150,150,150s150-67.16,150-150S232.84,0,150,0z M110.54,219.66
		c-0.13,2.79-0.39,3.14-3.18,3.16c-6.76,0.06-13.52,0.03-20.27,0.02c-2.41,0-4.83-0.04-7.24-0.01c-1.81,0.02-2.68-0.83-2.65-2.62
		c0.01-0.84-0.02-1.69-0.02-2.53c0-31.87,0-63.73,0-95.6c0-0.84,0.03-1.69,0.02-2.53c-0.02-1.79,0.82-2.64,2.64-2.64
		c9.41,0.02,18.83,0.02,28.24,0.02c1.64,0,2.45,0.79,2.45,2.43c0,0.97,0.03,1.93,0.03,2.9c0,15.93,0,31.87,0,47.8
		c0,15.69,0,31.38,0,47.08C110.55,217.97,110.58,218.82,110.54,219.66z M93.78,103.29c-10.2-0.04-19.63-8.6-19.41-19.75
		c0.23-11.91,9.28-19.65,19.89-19.53c10.6,0.12,19.2,8.77,19.19,19.43C113.43,94.37,104.56,103.33,93.78,103.29z M233.61,216.5
		c0,0.84,0.01,1.69,0,2.53c-0.08,3.52-0.27,3.79-3.66,3.8c-8.69,0.04-17.38,0.04-26.07,0c-3.35-0.01-3.6-0.28-3.6-3.84
		c-0.03-11.35-0.01-22.69-0.01-34.04c0-7.12,0.07-14.25-0.04-21.37c-0.08-4.77-1.1-9.31-3.86-13.36c-2.07-3.04-4.8-5.05-8.38-5.84
		c-4.58-1.01-9.14-0.97-13.51,0.83c-7.85,3.22-10.82,9.86-10.98,17.63c-0.32,15.69-0.11,31.38-0.12,47.08
		c0,3.26,0.06,6.52-0.03,9.78c-0.07,2.76-0.4,3.11-3.22,3.12c-8.57,0.05-17.14-0.02-25.71,0.04c-2.15,0.01-3.14-0.85-3-3.01
		c0.05-0.72,0-1.45,0-2.17c0-31.87,0-63.74,0-95.61c0-5.16,0.01-5.17,5.18-5.17c7.72,0,15.45-0.03,23.17,0.01
		c3.26,0.02,3.53,0.3,3.59,3.49c0.06,2.64,0.01,5.28,0.01,8.57c3.03-2.84,5.33-5.28,7.91-7.37c12.91-10.44,31.82-10.59,45.49-2.11
		c8.76,5.43,13.31,13.84,15.32,23.62c0.98,4.81,1.43,9.8,1.47,14.71C233.7,177.38,233.61,196.94,233.61,216.5z"/>
</g>
</svg>
