<?xml version="1.0" encoding="utf-8"?>
<!-- Generator: Adobe Illustrator 25.0.1, SVG Export Plug-In . SVG Version: 6.00 Build 0)  -->
<svg version="1.1" id="Ebene_1" xmlns="http://www.w3.org/2000/svg" xmlns:xlink="http://www.w3.org/1999/xlink" x="0px" y="0px"
	 viewBox="0 0 300 300" style="enable-background:new 0 0 300 300;" xml:space="preserve">
<style type="text/css">
	.st0{fill:#000000;}
</style>
<path class="st0" d="M150,0C67.16,0,0,67.16,0,150c0,61.29,36.77,113.99,89.45,137.26c0.26-0.08,0.33-0.45,0.34-1.19
	c0.02-4.18-0.06-8.37,0.02-12.55c0.12-6.57,0.82-13.1,2.29-19.51c2.63-11.45,5.39-22.88,8.09-34.31c2.08-8.76,4.17-17.52,6.24-26.28
	c1.61-6.83,3.19-13.67,4.83-20.5c0.26-1.1,0.2-2.06-0.27-3.1c-2.15-4.78-3.43-9.8-3.75-15.02c-0.23-3.81-0.47-7.64-0.27-11.45
	c0.38-7.31,2.24-14.25,6.16-20.54c2.65-4.24,5.92-7.88,10.12-10.62c2.95-1.93,6.21-2.89,9.7-3.39c3-0.42,5.88-0.12,8.74,0.63
	c4.54,1.18,8,3.83,10.46,7.85c2.51,4.11,3.6,8.56,3.65,13.36c0.07,6.24-1.24,12.23-2.93,18.16c-1.87,6.56-3.93,13.06-5.78,19.62
	c-1.73,6.12-3.66,12.21-4.82,18.44c-1.18,6.33,0.23,12.3,4.41,17.51c4.05,5.05,9.28,7.99,15.56,8.71c6.13,0.7,12.18,0,17.9-2.64
	c5.62-2.6,10.15-6.52,14.09-11.22c5.43-6.47,9.24-13.86,12.28-21.69c2.92-7.53,4.79-15.33,5.93-23.32c0.65-4.54,1.15-9.07,1.2-13.66
	c0.04-3,0.36-6.01,0.25-9c-0.3-7.88-1.66-15.55-4.85-22.85c-3.03-6.93-7.42-12.86-12.96-17.93c-4-3.66-8.55-6.51-13.5-8.77
	c-6.27-2.87-12.89-4.39-19.66-5.28c-5.15-0.68-10.35-0.93-15.53-0.64c-9.03,0.49-17.86,2.01-26.29,5.45
	c-6.7,2.73-12.79,6.43-18.27,11.17c-6.68,5.79-12.13,12.56-16.46,20.27c-3.93,7.01-6.3,14.52-7.7,22.4
	c-1.03,5.77-1.15,11.58-0.78,17.36c0.57,8.93,3.51,17.09,9.22,24.14c0.86,1.06,1.58,2.25,2.19,3.47c0.78,1.54,0.96,3.18,0.51,4.9
	c-1.09,4.19-2.13,8.38-3.19,12.58c-0.04,0.15-0.1,0.29-0.15,0.43c-1.15,3.6-3.61,4.76-7.11,3.38c-3.44-1.35-6.58-3.19-9.54-5.39
	c-5.1-3.8-9.05-8.57-12.16-14.1c-4.21-7.46-6.76-15.46-7.92-23.9c-0.46-3.32-0.62-6.67-0.91-10.01c-0.11-1.32-0.32-2.64-0.29-3.95
	c0.3-10.87,2.18-21.44,6.21-31.57c3.34-8.39,8.04-16,13.59-23.07c2.6-3.31,5.43-6.49,8.45-9.42c6.66-6.47,13.98-12.08,22.27-16.4
	c10.33-5.38,21.23-9.05,32.64-11.15c4.48-0.82,9.05-1.2,13.6-1.63c3.38-0.32,6.79-0.53,10.19-0.54c3.09-0.01,6.19,0.24,9.27,0.52
	c3.38,0.31,6.77,0.69,10.12,1.21c6.76,1.04,13.29,2.97,19.63,5.52c8.17,3.28,15.76,7.6,22.75,12.94c6,4.59,11.38,9.84,16.04,15.82
	c7.11,9.13,12.02,19.33,14.89,30.52c1.14,4.44,1.95,8.94,2.07,13.54c0.1,3.71,0.39,7.44,0.24,11.14c-0.18,4.46-0.7,8.91-1.12,13.36
	c-0.61,6.5-2.02,12.86-3.73,19.15c-2.33,8.53-5.67,16.66-9.97,24.39c-2.73,4.91-5.83,9.57-9.48,13.81
	c-2.55,2.96-5.33,5.76-8.25,8.35c-2.92,2.59-6.02,5.02-9.27,7.18c-7.49,4.99-15.7,8.32-24.56,10c-4.25,0.81-8.53,1.16-12.87,1.29
	c-5.92,0.17-11.67-0.53-17.21-2.57c-6.56-2.41-12.57-5.79-17.33-11.05c-1.08-1.2-1.93-2.61-2.89-3.92
	c-0.19-0.26-0.43-0.48-0.65-0.72c-0.12,0.27-0.28,0.53-0.35,0.81c-1.23,4.78-2.44,9.57-3.67,14.35c-2.36,9.17-4.62,18.36-7.13,27.48
	c-0.97,3.52-2.36,6.95-3.87,10.28c-2.87,6.36-6.17,12.5-9.92,18.4c-0.89,1.41-0.91,1.59,0.63,1.94c0.11,0.03,0.16,0.05,0.18,0.08
	c13.01,3.68,26.75,5.66,40.94,5.66c82.84,0,150-67.16,150-150S232.84,0,150,0z"/>
</svg>
