<?xml version="1.0" encoding="utf-8"?>
<!-- Generator: Adobe Illustrator 25.0.1, SVG Export Plug-In . SVG Version: 6.00 Build 0)  -->
<svg version="1.1" id="Ebene_1" xmlns="http://www.w3.org/2000/svg" xmlns:xlink="http://www.w3.org/1999/xlink" x="0px" y="0px"
	 viewBox="0 0 300 300" style="enable-background:new 0 0 300 300;" xml:space="preserve">
<style type="text/css">
	.st0{fill:#000000;}
</style>
<g>
	<g>
		<path class="st0" d="M150.21,118.9c-17.79-0.04-31.25,13.25-31.29,30.91c-0.04,17.78,13.27,31.25,30.91,31.29
			c17.78,0.04,31.25-13.27,31.29-30.91C181.16,132.41,167.85,118.94,150.21,118.9z"/>
		<path class="st0" d="M150.21,118.9c-17.79-0.04-31.25,13.25-31.29,30.91c-0.04,17.78,13.27,31.25,30.91,31.29
			c17.78,0.04,31.25-13.27,31.29-30.91C181.16,132.41,167.85,118.94,150.21,118.9z"/>
	</g>
	<g>
		<path class="st0" d="M225.91,99.32c-4.33-16.24-17.62-26.39-34.95-26.49c-27.24-0.15-54.48-0.1-81.72,0
			c-7.33,0.03-14.38,1.6-20.54,5.88c-10.72,7.45-15.81,17.87-15.88,30.8c-0.07,13.5-0.02,27-0.02,40.5
			c0,13.26-0.09,26.52,0.06,39.77c0.04,3.7,0.37,7.51,1.34,11.07c4.42,16.35,17.81,26.28,35.43,26.34
			c26.88,0.09,53.76,0.07,80.64-0.04c3.58-0.01,7.27-0.41,10.71-1.36c16.36-4.5,26.21-17.85,26.26-35.5
			c0.08-26.88,0.07-53.75-0.04-80.63C227.18,106.22,226.8,102.65,225.91,99.32z M150.09,199.25c-26.44,0.03-49.27-22.73-49.32-49.18
			c-0.05-26.4,22.77-49.29,49.19-49.32c26.43-0.03,49.27,22.75,49.32,49.19C199.32,176.35,176.52,199.22,150.09,199.25z
			 M200.82,112.25c-6.79,0.14-12.6-5.7-12.65-12.69c-0.05-7.16,5.39-12.67,12.52-12.66c7.12,0.01,12.54,5.53,12.47,12.7
			C213.09,106.44,207.55,112.11,200.82,112.25z"/>
		<path class="st0" d="M225.91,99.32c-4.33-16.24-17.62-26.39-34.95-26.49c-27.24-0.15-54.48-0.1-81.72,0
			c-7.33,0.03-14.38,1.6-20.54,5.88c-10.72,7.45-15.81,17.87-15.88,30.8c-0.07,13.5-0.02,27-0.02,40.5
			c0,13.26-0.09,26.52,0.06,39.77c0.04,3.7,0.37,7.51,1.34,11.07c4.42,16.35,17.81,26.28,35.43,26.34
			c26.88,0.09,53.76,0.07,80.64-0.04c3.58-0.01,7.27-0.41,10.71-1.36c16.36-4.5,26.21-17.85,26.26-35.5
			c0.08-26.88,0.07-53.75-0.04-80.63C227.18,106.22,226.8,102.65,225.91,99.32z M150.09,199.25c-26.44,0.03-49.27-22.73-49.32-49.18
			c-0.05-26.4,22.77-49.29,49.19-49.32c26.43-0.03,49.27,22.75,49.32,49.19C199.32,176.35,176.52,199.22,150.09,199.25z
			 M200.82,112.25c-6.79,0.14-12.6-5.7-12.65-12.69c-0.05-7.16,5.39-12.67,12.52-12.66c7.12,0.01,12.54,5.53,12.47,12.7
			C213.09,106.44,207.55,112.11,200.82,112.25z"/>
	</g>
	<g>
		<path class="st0" d="M150,0C67.16,0,0,67.16,0,150s67.16,150,150,150s150-67.16,150-150S232.84,0,150,0z M244.33,193.95
			c-0.05,18.58-9.01,32.36-23.98,42.44c-8.35,5.62-17.67,8.33-27.99,8.03c-14.1-0.42-28.21-0.1-42.32-0.1
			c-14.35,0-28.72-0.43-43.05,0.1c-22.64,0.83-43.95-17.04-49.45-37.34c-1.09-4-1.73-8.26-1.75-12.4
			c-0.15-29.42,0.31-58.85-0.21-88.26C55.2,86.04,70.57,66.05,87.65,59.34c6.24-2.45,12.53-3.79,19.32-3.74
			c28.94,0.2,57.89,0.44,86.82-0.04c20.04-0.33,39.76,14.63,46.7,31.57c2.58,6.31,4,12.71,3.95,19.64
			C244.23,135.83,244.41,164.89,244.33,193.95z"/>
		<path class="st0" d="M150,0C67.16,0,0,67.16,0,150s67.16,150,150,150s150-67.16,150-150S232.84,0,150,0z M244.33,193.95
			c-0.05,18.58-9.01,32.36-23.98,42.44c-8.35,5.62-17.67,8.33-27.99,8.03c-14.1-0.42-28.21-0.1-42.32-0.1
			c-14.35,0-28.72-0.43-43.05,0.1c-22.64,0.83-43.95-17.04-49.45-37.34c-1.09-4-1.73-8.26-1.75-12.4
			c-0.15-29.42,0.31-58.85-0.21-88.26C55.2,86.04,70.57,66.05,87.65,59.34c6.24-2.45,12.53-3.79,19.32-3.74
			c28.94,0.2,57.89,0.44,86.82-0.04c20.04-0.33,39.76,14.63,46.7,31.57c2.58,6.31,4,12.71,3.95,19.64
			C244.23,135.83,244.41,164.89,244.33,193.95z"/>
	</g>
</g>
</svg>
