<?xml version="1.0" encoding="utf-8"?>
<!-- Generator: Adobe Illustrator 25.0.1, SVG Export Plug-In . SVG Version: 6.00 Build 0)  -->
<svg version="1.1" id="Ebene_1" xmlns="http://www.w3.org/2000/svg" xmlns:xlink="http://www.w3.org/1999/xlink" x="0px" y="0px"
	 viewBox="0 0 300 300" style="enable-background:new 0 0 300 300;" xml:space="preserve">
<style type="text/css">
	.st0{fill:#000000;}
</style>
<g>
	<path class="st0" d="M150,0C67.16,0,0,67.16,0,150s67.16,150,150,150s150-67.16,150-150S232.84,0,150,0z M214.62,205.05
		c-13.01,0.55-26,1.72-39.01,2.11c-15.83,0.48-31.69,0.86-47.52,0.48c-14.95-0.36-29.9-1.58-44.82-2.75
		c-10.93-0.86-18.89-10.58-18.93-22.76c-0.08-21.95-0.04-43.9,0-65.84c0-1.69,0.28-3.4,0.56-5.07c1.71-10,9.82-16.9,19.91-17.84
		c14.93-1.39,29.87-2.23,44.86-2.24c10.84-0.01,21.69-0.57,32.53-0.42c12.54,0.18,25.08,0.78,37.61,1.38
		c5.34,0.25,10.68,0.81,15.99,1.48c10.87,1.37,18.5,10.07,18.54,21.01c0.04,11.58,0.01,23.17,0.01,34.75
		c0,11.58-0.29,23.18,0.08,34.75C234.77,194.6,225.19,204.61,214.62,205.05z"/>
	<path class="st0" d="M177.31,147.82c-6.29-3.71-12.65-7.33-18.98-10.98c-10.45-6.02-20.88-12.07-31.35-18.05
		c-2.37-1.35-2.49-1.25-2.5,1.53c-0.03,9.63-0.01,19.25-0.01,28.88c0,9.5-0.02,19.01,0.01,28.51c0.01,3.65,0.26,3.77,3.33,1.99
		c16.46-9.5,32.91-19,49.37-28.49C180.02,149.58,180.09,149.46,177.31,147.82z"/>
</g>
</svg>
