<?xml version="1.0" encoding="UTF-8" standalone="no"?>
<svg
   xmlns:dc="http://purl.org/dc/elements/1.1/"
   xmlns:cc="http://creativecommons.org/ns#"
   xmlns:rdf="http://www.w3.org/1999/02/22-rdf-syntax-ns#"
   xmlns:svg="http://www.w3.org/2000/svg"
   xmlns="http://www.w3.org/2000/svg"
   xmlns:sodipodi="http://sodipodi.sourceforge.net/DTD/sodipodi-0.dtd"
   xmlns:inkscape="http://www.inkscape.org/namespaces/inkscape"
   version="1.1"
   id="svg2"
   xml:space="preserve"
   width="493.23999"
   height="209.64"
   viewBox="0 0 493.23999 209.64"
   sodipodi:docname="202101-bridlxAB-logo-BLACKPOWDER.eps"><metadata
     id="metadata8"><rdf:RDF><cc:Work
         rdf:about=""><dc:format>image/svg+xml</dc:format><dc:type
           rdf:resource="http://purl.org/dc/dcmitype/StillImage" /></cc:Work></rdf:RDF></metadata><defs
     id="defs6" /><sodipodi:namedview
     pagecolor="#ffffff"
     bordercolor="#666666"
     borderopacity="1"
     objecttolerance="10"
     gridtolerance="10"
     guidetolerance="10"
     inkscape:pageopacity="0"
     inkscape:pageshadow="2"
     inkscape:window-width="640"
     inkscape:window-height="480"
     id="namedview4" /><g
     id="g10"
     inkscape:groupmode="layer"
     inkscape:label="ink_ext_XXXXXX"
     transform="matrix(1.3333333,0,0,-1.3333333,0,209.64)"><g
       id="g12"
       transform="scale(0.1)"><path
         d="m 458.859,800.887 c 0,-35.907 -2.351,-68.004 -7,-95.407 -4.621,-27.167 -12.019,-50.214 -21.992,-68.503 -9.797,-18.02 -22.492,-31.797 -37.726,-40.957 -15.223,-9.122 -34.063,-13.743 -55.993,-13.743 -26.367,0 -48.496,4.661 -65.769,13.86 -17.188,9.16 -31.195,22.937 -41.641,40.945 -10.601,18.254 -18.23,41.172 -22.675,68.125 -4.473,27.207 -6.743,59.063 -6.743,94.672 0,36.953 2.27,69.484 6.743,96.699 4.445,26.914 11.976,49.485 22.398,67.09 10.266,17.316 24.164,30.402 41.293,38.882 17.32,8.57 39.316,12.91 65.387,12.91 21.976,0 41.031,-4.39 56.621,-13.05 15.511,-8.633 28.343,-21.816 38.144,-39.172 9.953,-17.617 17.344,-40.144 21.957,-66.953 4.645,-27.058 6.996,-59.16 6.996,-95.398 z m 54.016,219.043 c -18.242,23.89 -41.102,41.86 -67.93,53.39 -26.699,11.46 -57.695,17.27 -92.129,17.27 -20.574,0 -39.351,-2.53 -55.82,-7.51 -16.519,-4.99 -31.555,-12.15 -44.687,-21.31 -13.106,-9.13 -24.821,-20.41 -34.825,-33.52 -7.89,-10.34 -15.183,-21.74 -21.75,-33.977 0.52,13.007 1.036,25.707 1.555,38.097 0.672,14.18 1.18,28.93 1.516,44.29 0.328,15.36 0.515,28.92 0.515,40.74 v 194.29 H -0.00390625 v -52.42 H 12.582 c 11.1836,0 21.918,-0.74 31.9024,-2.21 9.5625,-1.42 18.0429,-4.51 25.1953,-9.16 7.0156,-4.58 12.6875,-11.19 16.8516,-19.66 4.2187,-8.6 6.3554,-20.24 6.3554,-34.62 V 639.355 c 0,-15.425 -2.1523,-27.859 -6.3984,-36.96 C 82.3086,593.398 76.707,586.445 69.8516,581.73 62.8438,576.918 54.457,573.684 44.9141,572.121 34.9961,570.488 24.1172,569.66 12.582,569.66 H -0.00390625 V 517.238 H 173.672 l 18.18,80.774 h 0.32 c 7.215,-12.754 15.707,-24.641 25.277,-35.34 10.145,-11.363 22.02,-21.313 35.297,-29.602 13.317,-8.3 28.414,-14.761 44.879,-19.199 16.52,-4.461 35.082,-6.73 55.191,-6.73 34.422,0 65.422,5.82 92.133,17.3 26.836,11.508 49.692,29.571 67.934,53.649 18.109,23.926 32.047,54.695 41.414,91.453 9.301,36.555 14.016,80.41 14.016,130.336 0,49.601 -4.715,93.117 -14.016,129.336 -9.367,36.418 -23.305,66.933 -41.422,90.715"
         style="fill:#8b65b6;fill-opacity:1;fill-rule:nonzero;stroke:none"
         id="path14" /><path
         d="m 1043.3,1070.07 c -19.04,13.62 -48.198,20.52 -86.655,20.52 -23.348,0 -43.086,-3.07 -58.68,-9.14 -15.676,-6.09 -29.024,-14.59 -39.656,-25.24 -10.555,-10.55 -19.575,-22.97 -26.817,-36.94 -6.25,-12.05 -12.472,-25.036 -18.519,-38.688 l -19.2,99.918 H 626.547 v -52.42 h 7.539 c 11.129,0 21.836,-0.83 31.816,-2.46 9.61,-1.58 18.114,-4.74 25.282,-9.42 7.007,-4.57 12.675,-11.19 16.847,-19.669 4.211,-8.593 6.348,-20.246 6.348,-34.621 V 639.355 c 0,-15.417 -2.149,-27.847 -6.383,-36.953 -4.199,-9.004 -9.805,-15.957 -16.656,-20.672 -7.012,-4.824 -15.395,-8.054 -24.938,-9.609 -9.914,-1.633 -20.789,-2.461 -32.316,-2.461 h -7.539 v -52.422 h 307.336 v 52.422 h -33.274 c -11.222,0 -21.953,0.75 -31.91,2.231 -9.652,1.422 -18.164,4.351 -25.316,8.726 -6.965,4.231 -12.59,10.645 -16.727,19.074 -4.218,8.582 -6.355,20.235 -6.355,34.625 v 162.536 c 0,12.961 0.672,27.609 2.008,43.546 1.312,15.887 3.578,32.11 6.738,48.211 3.164,16.133 7.363,31.993 12.48,47.141 5.078,15.078 11.375,28.582 18.711,40.156 7.235,11.407 15.75,20.672 25.317,27.524 9.398,6.74 19.769,10.02 31.703,10.02 18.734,0 31.367,-5.51 38.621,-16.852 7.57,-11.836 11.41,-31.825 11.41,-59.414 v -4.5 h 4.5 c 17.828,0 33.191,1.843 45.671,5.476 12.68,3.703 23.26,9.094 31.44,16.035 8.27,7.012 14.39,15.52 18.19,25.266 3.72,9.59 5.61,20.156 5.61,31.429 0,25.31 -9.89,45.22 -29.4,59.18"
         style="fill:#8b65b6;fill-opacity:1;fill-rule:nonzero;stroke:none"
         id="path16" /><path
         d="m 1359.26,572.121 c -9.7,1.563 -18.17,4.797 -25.17,9.609 -6.86,4.715 -12.46,11.668 -16.65,20.672 -4.24,9.094 -6.39,21.528 -6.39,36.953 V 1080.5 h -193.76 v -52.42 h 7.54 c 11.13,0 21.84,-0.83 31.82,-2.46 9.61,-1.58 18.11,-4.74 25.28,-9.42 7.01,-4.57 12.68,-11.19 16.85,-19.669 4.21,-8.593 6.34,-20.246 6.34,-34.621 V 634.316 c 0,-14.382 -2.13,-26.035 -6.34,-34.625 -4.15,-8.429 -9.77,-14.843 -16.73,-19.086 -7.16,-4.363 -15.68,-7.292 -25.33,-8.714 -9.96,-1.481 -20.69,-2.231 -31.89,-2.231 h -18.13 v -52.422 h 302.79 v 52.422 h -18.13 c -11.22,0 -22.01,0.828 -32.1,2.461"
         style="fill:#8b65b6;fill-opacity:1;fill-rule:nonzero;stroke:none"
         id="path18" /><path
         d="m 1799.65,797.859 c 0,-36.918 -2.27,-69.449 -6.75,-96.683 -4.44,-26.914 -12.05,-49.477 -22.64,-67.063 -10.45,-17.343 -24.43,-30.437 -41.56,-38.933 -17.3,-8.567 -39.29,-12.903 -65.38,-12.903 -44.41,0 -75.31,17.071 -94.49,52.176 -19.4,35.5 -29.23,90.141 -29.23,162.399 0,35.636 2.35,67.558 7,94.914 4.59,27.089 11.99,50.136 21.97,68.496 9.84,18.047 22.62,31.914 38,41.218 15.38,9.28 34.13,13.98 55.74,13.98 26.38,0 48.59,-4.74 66.01,-14.1 17.35,-9.321 31.45,-23.102 41.91,-40.954 10.61,-18.125 18.23,-40.965 22.67,-67.871 4.48,-27.234 6.75,-59.09 6.75,-94.676 z m 154.32,-225.968 c -9.56,1.402 -18.04,4.488 -25.2,9.144 -7.01,4.57 -12.68,11.195 -16.84,19.668 -4.22,8.574 -6.36,20.227 -6.36,34.621 v 646.366 h -199.3 v -52.42 h 13.07 c 11.19,0 21.92,-0.74 31.9,-2.21 9.58,-1.42 18.06,-4.51 25.22,-9.16 6.99,-4.56 12.66,-11.19 16.84,-19.66 4.21,-8.6 6.35,-20.26 6.35,-34.62 v -54.8 c 0,-6.11 0.34,-15.61 1.02,-28.28 l 2.03,-38.16 c 0.86,-12.62 1.71,-25.95 2.57,-40.01 -6.96,11.84 -15.03,22.84 -24.04,32.74 -10.35,11.37 -22.3,21.31 -35.51,29.57 -13.26,8.26 -28.36,14.71 -44.89,19.2 -16.45,4.45 -35.02,6.71 -55.18,6.71 -34.46,0 -65.45,-5.81 -92.14,-17.27 -26.85,-11.53 -49.7,-29.59 -67.94,-53.66 -18.13,-23.949 -31.97,-54.73 -41.15,-91.48 -9.13,-36.512 -13.77,-80.36 -13.77,-130.321 0,-49.632 4.64,-93.14 13.77,-129.312 9.18,-36.426 23.03,-66.953 41.16,-90.723 18.22,-23.894 41.08,-41.863 67.93,-53.383 26.69,-11.48 57.69,-17.3 92.14,-17.3 20.51,0 39.29,2.531 55.81,7.519 16.53,4.988 31.57,12.172 44.69,21.32 13.08,9.11 24.87,20.282 35.04,33.2 8.63,10.968 16.52,23.261 23.53,36.625 l 10.58,-88.567 h 183.67 v 52.422 h -13.09 c -11.21,0 -21.95,0.75 -31.91,2.231"
         style="fill:#8b65b6;fill-opacity:1;fill-rule:nonzero;stroke:none"
         id="path20" /><path
         d="m 2312.39,572.121 c -9.56,1.563 -18.05,4.805 -25.22,9.629 -7,4.707 -12.57,11.641 -16.59,20.598 -4.09,9.09 -6.16,21.543 -6.16,37.007 v 642.335 h -204.36 v -52.42 h 17.62 c 11.19,0 21.93,-0.74 31.91,-2.21 9.56,-1.42 18.03,-4.51 25.19,-9.16 7.02,-4.58 12.69,-11.19 16.85,-19.66 4.22,-8.6 6.36,-20.24 6.36,-34.62 V 639.355 c 0,-15.425 -2.15,-27.859 -6.4,-36.96 -4.18,-8.985 -9.78,-15.938 -16.64,-20.665 -7,-4.812 -15.39,-8.046 -24.93,-9.609 -9.92,-1.633 -20.8,-2.461 -32.34,-2.461 h -17.62 v -52.422 h 302.28 v 52.422 h -17.63 c -11.54,0 -22.41,0.828 -32.32,2.461"
         style="fill:#8b65b6;fill-opacity:1;fill-rule:nonzero;stroke:none"
         id="path22" /><path
         d="m 3021.25,1221.3 v 0 c 8.11,9.27 16.04,16.87 23.58,22.59 7.32,5.59 14.96,9.54 22.73,11.76 7.89,2.25 16.83,3.39 26.57,3.39 h 13.68 v 52.88 h -237.56 v -52.88 h 7.56 c 7.89,0 15.25,-0.41 21.88,-1.23 6.31,-0.8 11.81,-2.23 16.31,-4.23 4.27,-1.92 7.52,-4.46 9.96,-7.75 2.3,-3.13 3.46,-7.29 3.46,-12.38 0,-8.84 -2.26,-18.34 -6.74,-28.25 -4.66,-10.35 -10.91,-21.46 -18.52,-33.04 l -63.25,-95.12 c -36.28,-54.57 -52.26,-78.595 -59.04,-89.61 -7.91,13.34 -28.73,48.4 -53.54,89.73 -22.83,38.19 -51.54,86 -58.57,96.92 -1.98,3.08 -4.05,6.13 -5.99,8.94 -93.85,145.35 -220.41,230.57 -310.05,276.48 -201.3,103.07 -465.65,137.64 -725.27,94.81 -115.01,-18.96 -270.28,-72.36 -353.47,-121.55 -46.56,-27.54 -93.7,-58.85 -113.73,-111.69 -13.56,-35.78 -7.81,-64.38 -1.35,-88.38 6.66,-24.69 25.72,-46.23 48.58,-54.89 12.44,-4.72 29.15,-5.17 35.38,-5.12 10.15,0.06 25.98,4.42 36.04,9.93 9.44,5.16 18.29,13.13 26.29,23.67 7.84,10.36 15.03,24.08 21.36,40.78 l 1.6,4.21 -4.21,1.59 c -26.07,9.88 -43.58,20.63 -52.08,31.96 -7.53,10.03 -8.95,16.89 -1.9,35.49 30.67,80.81 115.98,116.05 200.73,145.23 84.62,29.12 178.73,45.04 279.72,47.29 46.29,1.07 96.08,-0.49 152.29,-4.64 156.4,-11.53 306.44,-61.67 433.92,-145.01 55.75,-36.43 116.13,-90.26 157.58,-140.47 50.51,-61.18 85.63,-110.63 117.42,-165.38 6.08,-10.45 11.85,-21.07 17.62,-31.69 6.82,-12.55 13.87,-25.51 21.34,-38.015 30.17,-50.469 54.36,-88.965 60.66,-98.945 L 2539.48,641.152 c -9.46,-13.504 -18.13,-24.89 -25.76,-33.836 -7.55,-8.867 -15.27,-16.179 -22.93,-21.726 -7.53,-5.442 -15.8,-9.414 -24.57,-11.797 -8.9,-2.434 -19.57,-3.664 -31.72,-3.664 h -11.13 v -52.891 h 257.97 v 52.891 h -7.56 c -22.41,0 -39.05,2.351 -49.46,7.004 -9.49,4.226 -13.9,10.945 -13.9,21.14 0,5.02 0.81,10.547 2.4,16.426 1.63,6.082 3.79,12.129 6.4,17.981 2.6,5.886 5.47,11.699 8.51,17.261 2.94,5.414 5.95,10.332 8.95,14.68 l 111.93,165.688 99.89,-160.422 c 7.15,-11.567 13.01,-21.086 17.6,-28.567 4.49,-7.324 7.93,-13.523 10.22,-18.418 2.23,-4.804 3.76,-8.964 4.53,-12.351 0.78,-3.469 1.17,-6.914 1.17,-10.235 0,-7.472 0,-30.187 -57.75,-30.187 h -10.1 v -52.891 h 291.12 v 52.891 h -17.76 c -12.39,0 -25.15,3.976 -37.95,11.824 -13.04,7.981 -27.21,22.102 -41.91,41.652 l -190.77,306.645 177.37,255.73 c 9.72,14.11 18.79,25.99 26.98,35.32"
         style="fill:#8b65b6;fill-opacity:1;fill-rule:nonzero;stroke:none"
         id="path24" /><path
         d="m 2662.93,213.102 49.63,-38.563 28.17,87.59 z m 43.11,-58.743 -61.16,47.512 -43.41,-27.519 -19.85,15.418 169.15,102.66 16.83,-13.078 -57.55,-189.3637 -19.75,15.3397 15.74,49.031"
         style="fill:#000000;fill-opacity:1;fill-rule:nonzero;stroke:none"
         id="path26" /><path
         d="m 2948.02,6.03125 -23.7,6.26955 -53.55,161.4882 -36.41,-137.707 -23.69,6.2578 47.25,178.7112 23.69,-6.27 53.63,-162.1716 36.57,138.3206 23.45,-6.192 -47.24,-178.70675"
         style="fill:#000000;fill-opacity:1;fill-rule:nonzero;stroke:none"
         id="path28" /><path
         d="m 3078.17,166.691 20.38,-143.5426 25.38,3.6133 c 18.61,2.6367 32.26,10.4766 40.97,23.5196 8.7,13.039 11.54,30.2578 8.51,51.6487 l -1.53,10.691 c -2.95,20.801 -10.12,36.27 -21.52,46.418 -11.41,10.141 -26.09,14.031 -44.03,11.652 z M 3077.21,-0.0117188 3051.24,183 l 51.66,7.328 c 15.92,2.262 30.49,0.754 43.73,-4.558 13.23,-5.301 24.1,-13.969 32.61,-26.008 8.5,-12.051 13.99,-26.492 16.46,-43.313 l 1.66,-11.687 c 2.45,-17.2737 1.27,-32.8636 -3.54,-46.8011 C 3189,44.0313 3180.9,32.7109 3169.53,24 3158.15,15.2891 3144.27,9.67969 3127.87,7.17969 l -50.66,-7.1914088"
         style="fill:#000000;fill-opacity:1;fill-rule:nonzero;stroke:none"
         id="path30" /><path
         d="m 3393.5,204.852 43.6,-50.262 30.4,26.379 c 8.56,7.429 13.4,15.519 14.5,24.261 1.1,8.739 -1.73,17.008 -8.5,24.809 -14.59,16.813 -31.02,17.293 -49.3,1.43 z m -12.8,14.757 27.8,24.121 c 8.06,6.989 12.75,14.598 14.08,22.821 1.32,8.23 -1.02,15.801 -7.02,22.719 -6.67,7.691 -13.76,11.339 -21.27,10.949 -7.5,-0.391 -15.82,-4.547 -24.97,-12.481 l -27.22,-23.636 z m 51.06,-96.039 -121.14,139.621 45.65,39.598 c 15.15,13.141 29.26,19.902 42.34,20.262 13.07,0.359 24.93,-5.602 35.59,-17.871 5.65,-6.52 8.81,-13.899 9.45,-22.129 0.64,-8.242 -1.04,-16.512 -5.05,-24.801 9.38,4.441 18.82,5.59 28.33,3.48 9.5,-2.121 17.81,-7.269 24.91,-15.449 10.87,-12.531 15.35,-25.902 13.45,-40.101 -1.91,-14.211 -10.28,-27.739 -25.12,-40.598 l -48.41,-42.012"
         style="fill:#000000;fill-opacity:1;fill-rule:nonzero;stroke:none"
         id="path32" /><path
         d="m 3572.83,430.512 -38.43,-70.293 57.48,-31.418 44.64,81.648 17.49,-9.558 -56.33,-103.039 -162.19,88.668 55.72,101.921 17.49,-9.562 -44.02,-80.539 52.23,-28.551 38.43,70.281 17.49,-9.558"
         style="fill:#000000;fill-opacity:1;fill-rule:nonzero;stroke:none"
         id="path34" /><path
         d="m 3606.48,588.266 -86.26,59.16 3.36,27.469 107.32,-77.332 68.42,-8.372 -2.96,-24.203 -68.42,8.371 -122.79,-49.179 3.39,27.73 97.94,36.356"
         style="fill:#000000;fill-opacity:1;fill-rule:nonzero;stroke:none"
         id="path36" /><path
         d="m 3574.45,845.211 c -21.23,-5.449 -36.43,-13.895 -45.59,-25.34 -9.17,-11.445 -11.77,-24.824 -7.84,-40.16 3.84,-14.926 12.53,-25.207 26.09,-30.852 13.55,-5.656 30.44,-6.015 50.67,-1.074 l 13.16,3.379 c 20.57,5.281 35.63,13.762 45.17,25.43 9.54,11.676 12.36,25.094 8.47,40.258 -3.92,15.253 -12.5,25.625 -25.76,31.132 -13.26,5.508 -30.29,5.723 -51.09,0.645 z m 5.53,26.457 c 17.54,4.512 33.61,5.488 48.2,2.949 14.59,-2.551 26.72,-8.34 36.38,-17.394 9.67,-9.051 16.36,-20.789 20.06,-35.223 3.62,-14.094 3.38,-27.492 -0.76,-40.168 -4.12,-12.687 -11.82,-23.684 -23.1,-33.012 -11.29,-9.316 -25.35,-16.23 -42.2,-20.73 l -12.91,-3.32 c -17.21,-4.415 -33.18,-5.332 -47.92,-2.747 -14.73,2.598 -27.01,8.465 -36.83,17.61 -9.82,9.14 -16.55,20.762 -20.16,34.859 -3.69,14.352 -3.48,27.887 0.64,40.613 4.12,12.723 12,23.719 23.64,33.008 11.64,9.278 26.19,16.16 43.65,20.653 l 11.31,2.902"
         style="fill:#000000;fill-opacity:1;fill-rule:nonzero;stroke:none"
         id="path38" /><path
         d="m 3519.59,1117.64 15.12,-19.27 -54.61,-161.147 112.06,87.927 15.12,-19.27 -145.42,-114.107 -15.12,19.278 54.96,161.729 -112.56,-88.319 -14.97,19.069 145.42,114.11"
         style="fill:#000000;fill-opacity:1;fill-rule:nonzero;stroke:none"
         id="path40" /><path
         d="m 3316.68,1069.61 69.49,127.23 -22.51,12.3 c -16.48,9 -32.12,10.88 -46.89,5.63 -14.78,-5.24 -27.35,-17.35 -37.7,-36.31 l -5.19,-9.48 c -10.06,-18.44 -13.56,-35.12 -10.49,-50.08 3.07,-14.95 12.52,-26.83 28.33,-35.66 z m 100.44,133.04 -88.61,-162.22 -45.79,25.01 c -14.11,7.7 -24.89,17.64 -32.32,29.8 -7.44,12.17 -10.97,25.62 -10.59,40.35 0.39,14.75 4.62,29.6 12.7,44.57 l 5.66,10.36 c 8.36,15.31 18.63,27.09 30.82,35.39 12.2,8.29 25.46,12.52 39.78,12.7 14.32,0.18 28.81,-3.63 43.44,-11.43 l 44.91,-24.53"
         style="fill:#000000;fill-opacity:1;fill-rule:nonzero;stroke:none"
         id="path42" /></g></g></svg>
