<?xml version="1.0" encoding="UTF-8" standalone="no"?>
<svg
   xmlns:dc="http://purl.org/dc/elements/1.1/"
   xmlns:cc="http://creativecommons.org/ns#"
   xmlns:rdf="http://www.w3.org/1999/02/22-rdf-syntax-ns#"
   xmlns:svg="http://www.w3.org/2000/svg"
   xmlns="http://www.w3.org/2000/svg"
   xmlns:sodipodi="http://sodipodi.sourceforge.net/DTD/sodipodi-0.dtd"
   xmlns:inkscape="http://www.inkscape.org/namespaces/inkscape"
   version="1.1"
   id="svg2"
   xml:space="preserve"
   width="414.37332"
   height="142.01334"
   viewBox="0 0 414.37332 142.01334"
   sodipodi:docname="202101-bridlx-logo-WARMBLACK.eps"><metadata
     id="metadata8"><rdf:RDF><cc:Work
         rdf:about=""><dc:format>image/svg+xml</dc:format><dc:type
           rdf:resource="http://purl.org/dc/dcmitype/StillImage" /></cc:Work></rdf:RDF></metadata><defs
     id="defs6" /><sodipodi:namedview
     pagecolor="#ffffff"
     bordercolor="#666666"
     borderopacity="1"
     objecttolerance="10"
     gridtolerance="10"
     guidetolerance="10"
     inkscape:pageopacity="0"
     inkscape:pageshadow="2"
     inkscape:window-width="640"
     inkscape:window-height="480"
     id="namedview4" /><g
     id="g10"
     inkscape:groupmode="layer"
     inkscape:label="ink_ext_XXXXXX"
     transform="matrix(1.3333333,0,0,-1.3333333,0,142.01333)"><g
       id="g12"
       transform="scale(0.1)"><path
         d="M 451.859,198.336 C 447.238,171.168 439.844,148.121 429.867,129.832 420.07,111.813 407.375,98.0352 392.141,88.875 376.918,79.7539 358.078,75.1328 336.152,75.1328 c -26.371,0 -48.5,4.6602 -65.773,13.8594 -17.188,9.1601 -31.195,22.9378 -41.641,40.9458 -10.601,18.253 -18.23,41.171 -22.675,68.125 -4.473,27.207 -6.743,59.062 -6.743,94.679 0,36.953 2.27,69.481 6.743,96.699 4.445,26.914 11.976,49.481 22.398,67.09 10.269,17.313 24.164,30.399 41.293,38.887 17.32,8.562 39.316,12.91 65.387,12.91 21.976,0 41.031,-4.394 56.621,-13.058 15.511,-8.633 28.343,-21.817 38.144,-39.168 9.953,-17.618 17.344,-40.149 21.957,-66.954 4.645,-27.062 6.996,-59.16 6.996,-95.402 0,-35.906 -2.351,-68.008 -7,-95.41 z m 61.016,314.453 c -18.242,23.899 -41.098,41.867 -67.93,53.391 -26.699,11.465 -57.695,17.273 -92.129,17.273 -20.574,0 -39.351,-2.527 -55.82,-7.508 -16.519,-4.992 -31.555,-12.16 -44.687,-21.308 -13.106,-9.133 -24.821,-20.41 -34.825,-33.528 -7.89,-10.339 -15.179,-21.738 -21.75,-33.972 0.52,13.008 1.036,25.703 1.555,38.093 0.672,14.18 1.18,28.938 1.52,44.29 0.324,15.359 0.511,28.925 0.511,40.742 V 804.547 H 0 v -52.41 h 12.582 c 11.1875,0 21.918,-0.742 31.9024,-2.219 9.5625,-1.414 18.0429,-4.5 25.1953,-9.16 7.0195,-4.578 12.6875,-11.192 16.8516,-19.656 4.2187,-8.594 6.3593,-20.247 6.3593,-34.622 V 132.215 c 0,-15.43 -2.1562,-27.863 -6.4023,-36.965 C 82.3086,86.2578 76.707,79.3047 69.8516,74.5859 62.8438,69.7734 54.457,66.5391 44.9141,64.9805 35,63.3516 24.1211,62.5195 12.582,62.5195 H 0 V 10.0898 h 173.672 l 18.183,80.7774 h 0.317 C 199.387,78.1133 207.879,66.2266 217.449,55.5195 227.598,44.1719 239.473,34.2188 252.746,25.9219 266.063,17.6211 281.16,11.1719 297.625,6.73047 314.145,2.26172 332.707,0 352.816,0 c 34.422,0 65.422,5.82031 92.133,17.2891 26.836,11.5195 49.692,29.5703 67.934,53.6562 18.109,23.9258 32.047,54.6957 41.414,91.4527 9.301,36.555 14.016,80.411 14.016,130.344 0,49.598 -4.715,93.113 -14.016,129.336 -9.367,36.414 -23.305,66.934 -41.422,90.711"
         style="fill:#1d1a1b;fill-opacity:1;fill-rule:nonzero;stroke:none"
         id="path14" /><path
         d="m 1043.3,562.938 c -19.05,13.613 -48.198,20.515 -86.655,20.515 -23.352,0 -43.086,-3.074 -58.684,-9.14 -15.672,-6.094 -29.023,-14.59 -39.656,-25.243 -10.559,-10.547 -19.571,-22.968 -26.817,-36.945 -6.25,-12.039 -12.472,-25.027 -18.515,-38.68 l -19.2,99.922 H 626.547 v -52.422 h 7.539 c 11.121,0 21.836,-0.832 31.816,-2.461 9.61,-1.582 18.114,-4.746 25.282,-9.425 7.004,-4.571 12.675,-11.192 16.847,-19.668 4.207,-8.594 6.348,-20.243 6.348,-34.618 V 132.215 c 0,-15.422 -2.149,-27.852 -6.387,-36.9533 -4.199,-9.0039 -9.804,-15.957 -16.652,-20.6758 -7.012,-4.8242 -15.399,-8.0546 -24.942,-9.6054 -9.91,-1.6289 -20.789,-2.461 -32.312,-2.461 h -7.539 V 10.0898 h 307.332 v 52.4297 h -33.27 c -11.222,0 -21.953,0.75 -31.914,2.2188 -9.648,1.4297 -18.164,4.3594 -25.312,8.7344 -6.965,4.2304 -12.59,10.6445 -16.731,19.0742 -4.218,8.5821 -6.355,20.2341 -6.355,34.6291 v 162.539 c 0,12.957 0.672,27.605 2.012,43.543 1.308,15.89 3.574,32.109 6.738,48.215 3.164,16.132 7.363,31.992 12.48,47.136 5.078,15.079 11.375,28.586 18.711,40.157 7.235,11.406 15.75,20.675 25.313,27.531 9.402,6.738 19.773,10.008 31.707,10.008 18.73,0 31.367,-5.508 38.613,-16.844 7.578,-11.836 11.418,-31.828 11.418,-59.414 v -4.504 h 4.5 c 17.824,0 33.191,1.848 45.671,5.48 12.68,3.7 23.26,9.09 31.44,16.036 8.27,7.011 14.38,15.515 18.19,25.261 3.72,9.59 5.61,20.157 5.61,31.426 0,25.313 -9.89,45.227 -29.4,59.192"
         style="fill:#1d1a1b;fill-opacity:1;fill-rule:nonzero;stroke:none"
         id="path16" /><path
         d="m 1359.26,64.9805 c -9.7,1.5586 -18.17,4.7929 -25.17,9.6054 -6.86,4.7188 -12.46,11.6719 -16.65,20.6758 -4.24,9.0903 -6.39,21.5233 -6.39,36.9533 v 441.152 h -193.76 v -52.422 h 7.54 c 11.13,0 21.84,-0.832 31.82,-2.461 9.61,-1.582 18.11,-4.746 25.28,-9.425 7.01,-4.571 12.68,-11.192 16.85,-19.668 4.21,-8.594 6.35,-20.243 6.35,-34.618 V 127.176 c 0,-14.387 -2.14,-26.035 -6.35,-34.6291 -4.15,-8.4297 -9.77,-14.8438 -16.73,-19.0821 -7.16,-4.3671 -15.68,-7.2968 -25.33,-8.7265 -9.96,-1.4688 -20.69,-2.2188 -31.89,-2.2188 H 1106.7 V 10.0898 h 302.79 v 52.4297 h -18.13 c -11.22,0 -22.01,0.8321 -32.1,2.461"
         style="fill:#1d1a1b;fill-opacity:1;fill-rule:nonzero;stroke:none"
         id="path18" /><path
         d="m 1792.9,194.031 c -4.43,-26.914 -12.05,-49.472 -22.63,-67.062 -10.45,-17.344 -24.44,-30.4377 -41.57,-38.9338 -17.29,-8.5664 -39.29,-12.9024 -65.38,-12.9024 -44.4,0 -75.31,17.0703 -94.49,52.1802 -19.4,35.496 -29.23,90.136 -29.23,162.402 0,35.633 2.35,67.558 7,94.91 4.59,27.09 11.99,50.137 21.98,68.496 9.83,18.047 22.61,31.914 38,41.223 15.38,9.277 34.13,13.984 55.73,13.984 26.38,0 48.59,-4.746 66.01,-14.101 17.35,-9.329 31.45,-23.106 41.91,-40.957 10.61,-18.125 18.24,-40.969 22.67,-67.872 4.48,-27.238 6.75,-59.093 6.75,-94.679 0,-36.922 -2.27,-69.453 -6.75,-96.688 z M 1953.98,64.7383 c -9.57,1.4101 -18.05,4.4961 -25.22,9.1562 -7.01,4.5703 -12.67,11.1914 -16.82,19.668 -4.22,8.5745 -6.36,20.2225 -6.36,34.6175 v 646.367 h -199.31 v -52.41 h 13.07 c 11.19,0 21.92,-0.742 31.9,-2.219 9.58,-1.414 18.06,-4.5 25.22,-9.16 7,-4.559 12.66,-11.18 16.84,-19.656 4.21,-8.606 6.35,-20.254 6.35,-34.622 v -54.804 c 0,-6.102 0.34,-15.606 1.02,-28.27 l 2.03,-38.164 c 0.86,-12.617 1.71,-25.949 2.57,-40.012 -6.96,11.848 -15.02,22.844 -24.04,32.747 -10.35,11.367 -22.29,21.308 -35.51,29.558 -13.26,8.262 -28.35,14.719 -44.89,19.199 -16.45,4.454 -35.02,6.719 -55.18,6.719 -34.46,0 -65.45,-5.808 -92.14,-17.273 -26.85,-11.535 -49.7,-29.59 -67.94,-53.664 -18.13,-23.946 -31.97,-54.727 -41.15,-91.473 -9.13,-36.516 -13.77,-80.363 -13.77,-130.324 0,-49.637 4.64,-93.145 13.77,-129.317 9.18,-36.425 23.03,-66.9528 41.16,-90.7223 18.22,-23.8984 41.08,-41.8594 67.93,-53.3906 C 1580.21,5.82031 1611.2,0 1645.65,0 c 20.52,0 39.29,2.53125 55.82,7.51953 16.52,4.99217 31.56,12.16017 44.69,21.31247 13.07,9.1172 24.86,20.2891 35.03,33.2071 8.63,10.9648 16.53,23.2617 23.53,36.6211 l 10.59,-88.5704 h 183.66 v 52.4297 h -13.09 c -11.22,0 -21.95,0.75 -31.9,2.2188"
         style="fill:#1d1a1b;fill-opacity:1;fill-rule:nonzero;stroke:none"
         id="path20" /><path
         d="m 2312.39,64.9805 c -9.55,1.5586 -18.05,4.8008 -25.23,9.625 -6.99,4.707 -12.57,11.6406 -16.58,20.5976 -4.09,9.0899 -6.16,21.5429 -6.16,37.0119 v 642.332 h -204.36 v -52.41 h 17.62 c 11.19,0 21.92,-0.742 31.9,-2.219 9.57,-1.414 18.05,-4.5 25.21,-9.16 7.01,-4.578 12.68,-11.192 16.84,-19.656 4.22,-8.594 6.36,-20.247 6.36,-34.622 V 132.215 c 0,-15.43 -2.16,-27.863 -6.4,-36.965 -4.17,-8.9844 -9.77,-15.9375 -16.64,-20.6641 -7.01,-4.8125 -15.39,-8.0468 -24.93,-9.6054 -9.92,-1.6289 -20.81,-2.461 -32.34,-2.461 h -17.62 V 10.0898 h 302.28 v 52.4297 h -17.63 c -11.53,0 -22.41,0.8321 -32.32,2.461"
         style="fill:#1d1a1b;fill-opacity:1;fill-rule:nonzero;stroke:none"
         id="path22" /><path
         d="m 3021.25,714.156 v 0.012 c 8.12,9.266 16.05,16.863 23.59,22.586 7.31,5.586 14.96,9.543 22.72,11.758 7.89,2.246 16.84,3.39 26.57,3.39 h 13.69 v 52.879 h -237.56 v -52.879 h 7.56 c 7.89,0 15.25,-0.41 21.88,-1.23 6.31,-0.801 11.81,-2.227 16.31,-4.231 4.27,-1.921 7.52,-4.461 9.96,-7.753 2.29,-3.125 3.46,-7.286 3.46,-12.383 0,-8.836 -2.27,-18.34 -6.74,-28.242 -4.67,-10.352 -10.91,-21.465 -18.53,-33.036 l -63.25,-95.129 c -36.28,-54.57 -52.25,-78.593 -59.03,-89.609 -7.91,13.34 -28.73,48.399 -53.55,89.738 -22.83,38.184 -51.53,85.996 -58.56,96.914 -1.98,3.075 -4.05,6.133 -6,8.946 -93.85,145.34 -220.41,230.566 -310.06,276.472 -201.29,103.081 -465.63,137.641 -725.25,94.821 -115.02,-18.97 -270.29,-72.367 -353.48,-121.559 -46.56,-27.539 -93.7,-58.848 -113.73,-111.687 -13.56,-35.782 -7.8,-64.387 -1.34,-88.379 6.65,-24.688 25.71,-46.231 48.57,-54.895 12.44,-4.715 29.15,-5.176 35.39,-5.117 10.14,0.059 25.97,4.414 36.04,9.922 9.43,5.168 18.28,13.137 26.28,23.672 7.84,10.363 15.03,24.082 21.36,40.781 l 1.6,4.211 -4.21,1.59 c -26.06,9.883 -43.58,20.636 -52.08,31.965 -7.52,10.027 -8.95,16.894 -1.9,35.488 30.67,80.808 115.98,116.055 200.73,145.223 84.62,29.132 178.73,45.055 279.73,47.295 46.29,1.08 96.07,-0.49 152.28,-4.64 156.4,-11.53 306.45,-61.667 433.93,-145.007 55.74,-36.438 116.12,-90.266 157.58,-140.469 50.51,-61.183 85.62,-110.636 117.42,-165.383 6.07,-10.449 11.85,-21.074 17.62,-31.687 6.81,-12.551 13.86,-25.52 21.34,-38.02 30.16,-50.468 54.35,-88.964 60.66,-98.945 L 2539.49,134.012 c -9.47,-13.508 -18.14,-24.895 -25.77,-33.84 -7.55,-8.8673 -15.26,-16.1798 -22.93,-21.7267 -7.53,-5.4414 -15.8,-9.414 -24.57,-11.7969 -8.89,-2.4296 -19.57,-3.6601 -31.71,-3.6601 h -11.14 V 10.0898 h 257.97 v 52.8985 h -7.56 c -22.4,0 -39.04,2.3515 -49.45,7 -9.49,4.2265 -13.91,10.9453 -13.91,21.1406 0,5.0195 0.81,10.5471 2.41,16.4261 1.63,6.086 3.78,12.129 6.39,17.98 2.61,5.887 5.47,11.699 8.52,17.266 2.94,5.41 5.94,10.332 8.94,14.676 l 111.94,165.695 99.89,-160.43 c 7.15,-11.562 13.01,-21.086 17.6,-28.566 4.49,-7.324 7.93,-13.524 10.21,-18.418 2.24,-4.805 3.76,-8.965 4.53,-12.352 0.78,-3.4685 1.17,-6.9138 1.17,-10.2341 0,-7.4727 0,-30.1836 -57.74,-30.1836 h -10.11 V 10.0898 h 291.13 v 52.8985 h -17.77 c -12.38,0 -25.14,3.9726 -37.95,11.8242 -13.03,7.9766 -27.2,22.0977 -41.9,41.6485 l -190.77,306.652 177.36,255.731 c 9.73,14.101 18.8,25.988 26.98,35.312"
         style="fill:#1d1a1b;fill-opacity:1;fill-rule:nonzero;stroke:none"
         id="path24" /></g></g></svg>
