<?xml version="1.0" encoding="UTF-8" standalone="no"?>
<svg
   xmlns:dc="http://purl.org/dc/elements/1.1/"
   xmlns:cc="http://creativecommons.org/ns#"
   xmlns:rdf="http://www.w3.org/1999/02/22-rdf-syntax-ns#"
   xmlns:svg="http://www.w3.org/2000/svg"
   xmlns="http://www.w3.org/2000/svg"
   xmlns:sodipodi="http://sodipodi.sourceforge.net/DTD/sodipodi-0.dtd"
   xmlns:inkscape="http://www.inkscape.org/namespaces/inkscape"
   version="1.1"
   id="svg2"
   xml:space="preserve"
   width="414.67999"
   height="227.57333"
   viewBox="0 0 414.67999 227.57333"
   sodipodi:docname="202102-bridlx-logo-WEISS.eps"><metadata
     id="metadata8"><rdf:RDF><cc:Work
         rdf:about=""><dc:format>image/svg+xml</dc:format><dc:type
           rdf:resource="http://purl.org/dc/dcmitype/StillImage" /></cc:Work></rdf:RDF></metadata><defs
     id="defs6" /><sodipodi:namedview
     pagecolor="#ffffff"
     bordercolor="#666666"
     borderopacity="1"
     objecttolerance="10"
     gridtolerance="10"
     guidetolerance="10"
     inkscape:pageopacity="0"
     inkscape:pageshadow="2"
     inkscape:window-width="640"
     inkscape:window-height="480"
     id="namedview4" /><g
     id="g10"
     inkscape:groupmode="layer"
     inkscape:label="ink_ext_XXXXXX"
     transform="matrix(1.3333333,0,0,-1.3333333,0,227.57333)"><g
       id="g12"
       transform="scale(0.1)"><path
         d="m 451.859,840.02 c -4.621,-27.168 -12.015,-50.215 -21.992,-68.508 -9.797,-18.016 -22.488,-31.797 -37.726,-40.957 -15.223,-9.121 -34.063,-13.739 -55.989,-13.739 -26.367,0 -48.496,4.657 -65.773,13.856 -17.188,9.16 -31.195,22.941 -41.641,40.949 -10.601,18.25 -18.23,41.172 -22.675,68.125 -4.473,27.207 -6.743,59.063 -6.743,94.676 0,36.953 2.27,69.488 6.743,96.698 4.445,26.92 11.976,49.49 22.398,67.09 10.269,17.32 24.164,30.4 41.293,38.89 17.32,8.56 39.316,12.91 65.387,12.91 21.976,0 41.031,-4.4 56.621,-13.06 15.511,-8.63 28.343,-21.81 38.144,-39.17 9.957,-17.62 17.344,-40.14 21.957,-66.95 4.645,-27.06 6.996,-59.162 6.996,-95.4 0,-35.91 -2.351,-68.008 -7,-95.41 z m 61.016,314.45 c -18.242,23.9 -41.098,41.87 -67.93,53.39 -26.699,11.46 -57.695,17.28 -92.129,17.28 -20.57,0 -39.351,-2.53 -55.82,-7.51 -16.519,-4.99 -31.555,-12.16 -44.687,-21.31 -13.106,-9.13 -24.821,-20.41 -34.825,-33.53 -7.89,-10.34 -15.179,-21.74 -21.75,-33.97 0.52,13 1.036,25.7 1.555,38.09 0.676,14.18 1.18,28.94 1.52,44.29 0.328,15.36 0.511,28.93 0.511,40.74 v 194.29 H 0 v -52.41 h 12.582 c 11.1875,0 21.918,-0.75 31.9024,-2.22 9.5625,-1.42 18.0429,-4.5 25.1953,-9.16 7.0195,-4.58 12.6875,-11.19 16.8516,-19.66 4.2187,-8.59 6.3593,-20.24 6.3593,-34.62 V 773.895 c 0,-15.43 -2.1562,-27.86 -6.4023,-36.961 C 82.3086,727.938 76.707,720.984 69.8516,716.27 62.8438,711.453 54.457,708.223 44.9141,706.66 35,705.031 24.1211,704.199 12.582,704.199 H 0 v -52.418 h 173.672 l 18.183,80.766 h 0.317 c 7.215,-12.754 15.707,-24.637 25.277,-35.336 10.149,-11.359 22.024,-21.313 35.297,-29.602 13.317,-8.3 28.414,-14.757 44.879,-19.199 16.52,-4.469 35.086,-6.73 55.191,-6.73 34.422,0 65.426,5.82 92.133,17.289 26.836,11.519 49.692,29.57 67.938,53.656 18.109,23.926 32.043,54.699 41.41,91.457 9.301,36.551 14.016,80.41 14.016,130.34 0,49.601 -4.715,93.118 -14.016,129.338 -9.367,36.42 -23.301,66.93 -41.422,90.71"
         style="fill:#ffffff;fill-opacity:1;fill-rule:nonzero;stroke:none"
         id="path14" /><path
         d="m 967.285,1067.23 h 4.5 c 17.828,0 33.195,1.84 45.675,5.47 12.68,3.71 23.25,9.1 31.44,16.04 8.27,7.01 14.38,15.52 18.19,25.26 3.72,9.59 5.61,20.16 5.61,31.43 0,25.31 -9.89,45.22 -29.4,59.19 -19.05,13.61 -48.202,20.52 -86.659,20.52 -23.344,0 -43.086,-3.08 -58.676,-9.14 -15.68,-6.1 -29.027,-14.59 -39.66,-25.25 -10.555,-10.55 -19.575,-22.97 -26.817,-36.94 -6.25,-12.04 -12.472,-25.03 -18.519,-38.68 l -19.199,99.92 H 626.543 v -52.42 h 7.539 c 11.129,0 21.836,-0.83 31.816,-2.47 9.61,-1.58 18.114,-4.74 25.282,-9.42 7.008,-4.57 12.675,-11.19 16.847,-19.67 4.211,-8.59 6.348,-20.24 6.348,-34.62 V 773.895 c 0,-15.418 -2.148,-27.852 -6.383,-36.954 -4.199,-9.003 -9.804,-15.957 -16.656,-20.671 -7.012,-4.825 -15.395,-8.059 -24.938,-9.61 -9.914,-1.629 -20.789,-2.461 -32.316,-2.461 h -7.539 v -52.418 h 307.34 v 52.418 h -33.278 c -11.222,0 -21.953,0.75 -31.91,2.223 -9.652,1.43 -18.164,4.359 -25.316,8.734 -6.965,4.227 -12.59,10.645 -16.727,19.071 -4.218,8.586 -6.355,20.234 -6.355,34.628 v 162.54 c 0,12.96 0.672,27.609 2.008,43.546 1.312,15.887 3.578,32.109 6.738,48.209 3.164,16.14 7.363,31.99 12.48,47.14 5.079,15.08 11.375,28.59 18.711,40.16 7.235,11.41 15.75,20.67 25.317,27.53 9.398,6.73 19.769,10.01 31.703,10.01 18.734,0 31.367,-5.51 38.621,-16.85 7.57,-11.84 11.41,-31.82 11.41,-59.41 v -4.5"
         style="fill:#ffffff;fill-opacity:1;fill-rule:nonzero;stroke:none"
         id="path16" /><path
         d="m 1409.49,704.199 h -18.13 c -11.21,0 -22.01,0.832 -32.1,2.461 -9.7,1.563 -18.17,4.793 -25.17,9.61 -6.86,4.714 -12.46,11.668 -16.64,20.671 -4.25,9.094 -6.4,21.524 -6.4,36.954 v 441.155 h -193.76 v -52.42 h 7.54 c 11.13,0 21.84,-0.83 31.82,-2.47 9.61,-1.58 18.11,-4.74 25.28,-9.42 7.01,-4.57 12.68,-11.19 16.85,-19.67 4.21,-8.59 6.35,-20.24 6.35,-34.62 V 768.855 c 0,-14.382 -2.14,-26.035 -6.35,-34.628 -4.15,-8.426 -9.77,-14.844 -16.73,-19.082 -7.16,-4.364 -15.68,-7.293 -25.33,-8.723 -9.96,-1.473 -20.69,-2.223 -31.89,-2.223 h -18.13 v -52.418 h 302.79 v 52.418"
         style="fill:#ffffff;fill-opacity:1;fill-rule:nonzero;stroke:none"
         id="path18" /><path
         d="m 1792.9,835.711 c -4.43,-26.914 -12.05,-49.473 -22.63,-67.059 -10.45,-17.343 -24.44,-30.441 -41.57,-38.937 -17.29,-8.563 -39.29,-12.899 -65.38,-12.899 -44.4,0 -75.31,17.071 -94.49,52.176 -19.4,35.5 -29.23,90.137 -29.23,162.403 0,35.636 2.35,67.558 7,94.915 4.59,27.09 11.99,50.14 21.98,68.49 9.83,18.05 22.62,31.92 38,41.22 15.38,9.28 34.13,13.99 55.73,13.99 26.39,0 48.59,-4.75 66.01,-14.1 17.35,-9.33 31.45,-23.11 41.91,-40.96 10.61,-18.13 18.24,-40.97 22.67,-67.87 4.48,-27.236 6.75,-59.092 6.75,-94.678 0,-36.925 -2.27,-69.453 -6.75,-96.691 z m 206.07,-131.512 h -13.09 c -11.22,0 -21.95,0.75 -31.9,2.223 -9.57,1.41 -18.05,4.496 -25.22,9.152 -7.01,4.571 -12.67,11.192 -16.82,19.668 -4.22,8.574 -6.36,20.227 -6.36,34.621 v 646.367 h -199.31 v -52.41 h 13.07 c 11.19,0 21.92,-0.75 31.9,-2.22 9.58,-1.42 18.06,-4.5 25.22,-9.16 7,-4.56 12.66,-11.18 16.84,-19.66 4.21,-8.6 6.35,-20.25 6.35,-34.62 v -54.8 c 0,-6.11 0.34,-15.61 1.02,-28.27 l 2.03,-38.17 c 0.86,-12.62 1.71,-25.94 2.57,-40.01 -6.96,11.85 -15.02,22.84 -24.04,32.75 -10.35,11.36 -22.29,21.3 -35.51,29.56 -13.26,8.26 -28.35,14.71 -44.89,19.2 -16.45,4.45 -35.02,6.72 -55.18,6.72 -34.45,0 -65.45,-5.82 -92.14,-17.28 -26.85,-11.53 -49.7,-29.59 -67.94,-53.66 -18.12,-23.95 -31.97,-54.73 -41.15,-91.48 -9.13,-36.51 -13.77,-80.357 -13.77,-130.318 0,-49.64 4.64,-93.144 13.77,-129.316 9.18,-36.426 23.03,-66.953 41.16,-90.723 18.22,-23.894 41.08,-41.863 67.93,-53.394 26.7,-11.469 57.69,-17.289 92.14,-17.289 20.52,0 39.3,2.531 55.82,7.519 16.52,4.992 31.56,12.172 44.69,21.321 13.07,9.109 24.86,20.281 35.04,33.199 8.62,10.969 16.52,23.261 23.52,36.621 l 10.59,-88.559 h 183.66 v 52.418"
         style="fill:#ffffff;fill-opacity:1;fill-rule:nonzero;stroke:none"
         id="path20" /><path
         d="m 2151.59,736.934 c -4.17,-8.985 -9.77,-15.938 -16.64,-20.664 -7.01,-4.817 -15.39,-8.047 -24.93,-9.61 -9.92,-1.629 -20.81,-2.461 -32.34,-2.461 h -17.62 v -52.418 h 302.28 v 52.418 h -17.63 c -11.53,0 -22.41,0.832 -32.32,2.461 -9.55,1.563 -18.05,4.805 -25.23,9.629 -6.99,4.707 -12.57,11.641 -16.58,20.594 -4.09,9.094 -6.16,21.543 -6.16,37.012 v 642.335 h -204.36 v -52.41 h 17.62 c 11.19,0 21.92,-0.75 31.9,-2.22 9.57,-1.42 18.05,-4.5 25.21,-9.16 7.01,-4.58 12.68,-11.19 16.84,-19.66 4.22,-8.59 6.36,-20.24 6.36,-34.62 V 773.895 c 0,-15.43 -2.16,-27.86 -6.4,-36.961"
         style="fill:#ffffff;fill-opacity:1;fill-rule:nonzero;stroke:none"
         id="path22" /><path
         d="m 2824.28,704.672 h -10.11 v -52.891 h 291.13 v 52.891 h -17.77 c -12.38,0 -25.14,3.969 -37.95,11.82 -13.03,7.981 -27.2,22.102 -41.9,41.653 l -190.77,306.645 177.36,255.74 c 9.73,14.1 18.8,25.98 26.98,35.31 v 0.01 c 8.12,9.27 16.05,16.86 23.59,22.59 7.31,5.58 14.96,9.54 22.72,11.76 7.89,2.24 16.84,3.38 26.57,3.38 h 13.69 v 52.88 h -237.56 v -52.88 h 7.56 c 7.89,0 15.25,-0.41 21.88,-1.23 6.31,-0.8 11.81,-2.22 16.31,-4.22 4.27,-1.93 7.52,-4.47 9.96,-7.76 2.3,-3.12 3.46,-7.28 3.46,-12.38 0,-8.84 -2.27,-18.34 -6.74,-28.24 -4.67,-10.36 -10.91,-21.47 -18.53,-33.04 l -63.25,-95.13 c -36.28,-54.57 -52.25,-78.59 -59.03,-89.61 -7.91,13.34 -28.73,48.4 -53.55,89.74 -22.83,38.18 -51.53,85.99 -58.56,96.91 -1.98,3.08 -4.05,6.13 -6,8.95 -93.84,145.34 -220.41,230.56 -310.06,276.47 -201.29,103.08 -465.63,137.64 -725.25,94.82 -115.02,-18.97 -270.29,-72.37 -353.48,-121.56 -46.56,-27.53 -93.7,-58.84 -113.73,-111.69 -13.56,-35.78 -7.8,-64.38 -1.34,-88.38 6.65,-24.68 25.71,-46.23 48.57,-54.89 12.44,-4.71 29.16,-5.17 35.39,-5.11 10.14,0.06 25.97,4.41 36.04,9.92 9.43,5.16 18.28,13.13 26.28,23.67 7.84,10.36 15.03,24.08 21.36,40.78 l 1.6,4.21 -4.21,1.59 c -26.06,9.89 -43.58,20.64 -52.08,31.96 -7.52,10.03 -8.95,16.9 -1.89,35.49 30.66,80.81 115.97,116.06 200.72,145.23 84.62,29.13 178.73,45.05 279.73,47.29 46.29,1.08 96.07,-0.49 152.28,-4.64 156.4,-11.53 306.45,-61.67 433.93,-145.01 55.74,-36.43 116.12,-90.26 157.58,-140.47 50.51,-61.18 85.62,-110.63 117.42,-165.37 6.07,-10.45 11.85,-21.08 17.62,-31.7 6.81,-12.54 13.86,-25.51 21.34,-38.01 30.16,-50.47 54.35,-88.97 60.66,-98.95 L 2539.49,775.691 c -9.47,-13.503 -18.14,-24.89 -25.77,-33.836 -7.54,-8.867 -15.26,-16.183 -22.93,-21.73 -7.52,-5.437 -15.8,-9.414 -24.57,-11.797 -8.89,-2.43 -19.57,-3.656 -31.71,-3.656 h -11.14 v -52.891 h 257.97 v 52.891 h -7.56 c -22.4,0 -39.04,2.348 -49.45,6.996 -9.49,4.23 -13.91,10.949 -13.91,21.145 0,5.019 0.81,10.546 2.41,16.425 1.63,6.082 3.78,12.129 6.39,17.977 2.61,5.89 5.47,11.699 8.52,17.265 2.94,5.411 5.95,10.333 8.94,14.68 l 111.94,165.692 99.89,-160.43 c 7.15,-11.563 13.01,-21.082 17.6,-28.563 4.49,-7.324 7.93,-13.527 10.21,-18.418 2.24,-4.804 3.76,-8.964 4.53,-12.355 0.78,-3.465 1.18,-6.914 1.18,-10.234 0,-7.469 0,-30.18 -57.75,-30.18"
         style="fill:#ffffff;fill-opacity:1;fill-rule:nonzero;stroke:none"
         id="path24" /><path
         d="M 813.539,62.3008 C 800.172,50.5898 781.938,44.7383 758.832,44.7383 H 676.828 V 177.18 h 82.774 c 49.32,0 73.988,-22.16 73.988,-66.481 0,-20.5506 -6.692,-36.6873 -20.051,-48.3982 z M 676.828,333.379 h 73.469 c 24.656,0 43.016,-4.609 55.098,-13.809 12.058,-9.199 18.105,-23.941 18.105,-44.199 0,-18.242 -6.516,-32.68 -19.531,-43.32 -13.028,-10.629 -30.391,-15.949 -52.121,-15.949 h -75.02 z M 817.543,198.66 c 17.246,7.25 30.867,17.481 40.867,30.699 10,13.243 15.012,28.442 15.012,45.629 0,32.352 -10.313,56.782 -30.91,73.301 -20.614,16.5 -51.344,24.77 -92.215,24.77 H 627.16 V 5.05859 h 130.637 c 40,0 70.957,9.42971 92.859,28.31251 21.895,18.8672 32.856,44.8086 32.856,77.8399 0,21.559 -5.91,40.148 -17.727,55.73 -11.808,15.59 -27.89,26.161 -48.242,31.719"
         style="fill:#ffffff;fill-opacity:1;fill-rule:nonzero;stroke:none"
         id="path26" /><path
         d="m 1184.44,123.59 c 0,-26.6212 -7.46,-47.258 -22.38,-61.9181 -14.92,-14.6602 -36.43,-21.9805 -64.54,-21.9805 -27.76,0 -49.14,7.3594 -64.15,22.1094 -15,14.7383 -22.5,35.4297 -22.5,62.0512 V 373.059 H 961.723 V 122.332 C 962.063,84.25 974.484,54.3398 998.977,32.6094 1023.46,10.8711 1056.31,0 1097.52,0 l 13.2,0.511719 c 37.94,2.687501 67.98,15.078081 90.14,37.160181 22.16,22.0664 33.33,50.4492 33.5,85.1681 v 250.219 h -49.92 V 123.59"
         style="fill:#ffffff;fill-opacity:1;fill-rule:nonzero;stroke:none"
         id="path28" /><path
         d="m 1529.2,183.621 c -17.67,10.359 -42.17,19.848 -73.46,28.461 -31.3,8.609 -53.46,18.098 -66.48,28.488 -13.03,10.379 -19.53,23.078 -19.53,38.102 0,18.738 6.86,33.379 20.57,43.93 13.71,10.546 32.8,15.828 57.29,15.828 26.39,0 46.82,-6.391 61.31,-19.149 14.48,-12.769 21.72,-30.312 21.72,-52.633 h 49.93 c 0,20.383 -5.57,39.184 -16.69,56.364 -11.12,17.179 -26.82,30.668 -47.08,40.437 -20.26,9.77 -43.32,14.66 -69.19,14.66 -37.94,0 -68.77,-9.48 -92.47,-28.429 -23.72,-18.961 -35.58,-42.93 -35.58,-71.91 0,-25.61 9.71,-47.141 29.11,-64.579 19.4,-17.441 50.4,-32.14 92.99,-44.101 33.97,-9.61 57.43,-19.328 70.36,-29.192 12.94,-9.859 19.4,-23.808 19.4,-41.8277 0,-18.0312 -6.98,-32.2695 -20.96,-42.7187 -13.96,-10.4532 -34.05,-15.6602 -60.26,-15.6602 -28.12,0 -50.58,6.4375 -67.38,19.3281 -16.82,12.8907 -25.23,30.4493 -25.23,52.6995 h -49.92 c 0,-21.4104 6.07,-40.5276 18.23,-57.3792 12.16,-16.8515 29.45,-30.1093 51.87,-39.8007 C 1400.17,4.85156 1424.31,0 1450.18,0 c 39.83,0 71.65,8.96875 95.45,26.9219 23.8,17.9375 35.69,41.8281 35.69,71.6484 0,18.6997 -4.27,34.9607 -12.8,48.7817 -8.54,13.82 -21.64,25.91 -39.32,36.269"
         style="fill:#ffffff;fill-opacity:1;fill-rule:nonzero;stroke:none"
         id="path30" /><path
         d="m 1662.44,5.05859 h 49.66 V 373.059 h -49.66 V 5.05859"
         style="fill:#ffffff;fill-opacity:1;fill-rule:nonzero;stroke:none"
         id="path32" /><path
         d="M 2058.83,88.2109 1868.71,373.059 h -49.93 V 5.05859 h 49.93 V 288.641 L 2058.31,5.05859 h 49.93 V 373.059 h -49.41 V 88.2109"
         style="fill:#ffffff;fill-opacity:1;fill-rule:nonzero;stroke:none"
         id="path34" /><path
         d="m 2262,175.16 h 163.22 v 39.672 H 2262 v 118.547 h 187.02 v 39.68 H 2212.33 V 5.05859 h 239.28 V 44.7383 H 2262 V 175.16"
         style="fill:#ffffff;fill-opacity:1;fill-rule:nonzero;stroke:none"
         id="path36" /><path
         d="m 2727.85,183.621 c -17.68,10.359 -42.17,19.848 -73.47,28.461 -31.3,8.609 -53.46,18.098 -66.48,28.488 -13.02,10.379 -19.53,23.078 -19.53,38.102 0,18.738 6.86,33.379 20.57,43.93 13.71,10.546 32.8,15.828 57.29,15.828 26.39,0 46.82,-6.391 61.31,-19.149 14.49,-12.769 21.72,-30.312 21.72,-52.633 h 49.93 c 0,20.383 -5.56,39.184 -16.69,56.364 -11.12,17.179 -26.81,30.668 -47.08,40.437 -20.26,9.77 -43.32,14.66 -69.19,14.66 -37.94,0 -68.77,-9.48 -92.47,-28.429 -23.72,-18.961 -35.57,-42.93 -35.57,-71.91 0,-25.61 9.7,-47.141 29.1,-64.579 19.4,-17.441 50.4,-32.14 93,-44.101 33.96,-9.61 57.42,-19.328 70.35,-29.192 12.94,-9.859 19.4,-23.808 19.4,-41.8277 0,-18.0312 -6.98,-32.2695 -20.95,-42.7187 -13.97,-10.4532 -34.06,-15.6602 -60.27,-15.6602 -28.11,0 -50.57,6.4375 -67.38,19.3281 -16.82,12.8907 -25.23,30.4493 -25.23,52.6995 h -49.92 c 0,-21.4104 6.08,-40.5276 18.24,-57.3792 12.15,-16.8515 29.44,-30.1093 51.86,-39.8007 C 2598.81,4.85156 2622.95,0 2648.82,0 c 39.84,0 71.65,8.96875 95.45,26.9219 23.8,17.9375 35.69,41.8281 35.69,71.6484 0,18.6997 -4.26,34.9607 -12.8,48.7817 -8.53,13.82 -21.64,25.91 -39.31,36.269"
         style="fill:#ffffff;fill-opacity:1;fill-rule:nonzero;stroke:none"
         id="path38" /><path
         d="m 3097.34,147.352 c -8.54,13.82 -21.64,25.91 -39.32,36.269 -17.67,10.359 -42.17,19.848 -73.47,28.461 -31.29,8.609 -53.45,18.098 -66.47,28.488 -13.03,10.379 -19.53,23.078 -19.53,38.102 0,18.738 6.85,33.379 20.56,43.93 13.72,10.546 32.81,15.828 57.3,15.828 26.39,0 46.82,-6.391 61.31,-19.149 14.48,-12.769 21.72,-30.312 21.72,-52.633 h 49.93 c 0,20.383 -5.57,39.184 -16.69,56.364 -11.12,17.179 -26.82,30.668 -47.08,40.437 -20.26,9.77 -43.32,14.66 -69.19,14.66 -37.94,0 -68.77,-9.48 -92.47,-28.429 -23.72,-18.961 -35.58,-42.93 -35.58,-71.91 0,-25.61 9.71,-47.141 29.1,-64.579 19.41,-17.441 50.4,-32.14 93,-44.101 33.97,-9.61 57.42,-19.328 70.35,-29.192 12.94,-9.859 19.41,-23.808 19.41,-41.8277 0,-18.0312 -6.98,-32.2695 -20.96,-42.7187 -13.96,-10.4532 -34.05,-15.6602 -60.26,-15.6602 -28.12,0 -50.58,6.4375 -67.39,19.3281 -16.81,12.8907 -25.22,30.4493 -25.22,52.6995 h -49.92 c 0,-21.4104 6.07,-40.5276 18.23,-57.3792 12.16,-16.8515 29.44,-30.1093 51.87,-39.8007 C 2928.99,4.85156 2953.13,0 2979,0 c 39.83,0 71.65,8.96875 95.45,26.9219 23.8,17.9375 35.69,41.8281 35.69,71.6484 0,18.6997 -4.27,34.9607 -12.8,48.7817"
         style="fill:#ffffff;fill-opacity:1;fill-rule:nonzero;stroke:none"
         id="path40" /></g></g></svg>
