<?xml version="1.0" encoding="UTF-8"?>
<svg xmlns="http://www.w3.org/2000/svg" xmlns:xlink="http://www.w3.org/1999/xlink" width="675.33pt" height="800pt" viewBox="0 0 675.33 800" version="1.1">
<defs>
<clipPath id="clip1">
  <path d="M 507 411 L 675.328125 411 L 675.328125 747 L 507 747 Z M 507 411 "/>
</clipPath>
</defs>
<g id="surface1">
<path style=" stroke:none;fill-rule:nonzero;fill:rgb(59.179688%,63.476563%,70.506287%);fill-opacity:1;" d="M 431.414063 242.367188 C 408.402344 208.945313 362.652344 200.503906 329.230469 223.515625 C 295.808594 246.527344 287.367188 292.273438 310.378906 325.699219 C 333.390625 359.121094 379.136719 367.5625 412.558594 344.550781 C 445.980469 321.539063 454.421875 275.792969 431.414063 242.367188 "/>
<g clip-path="url(#clip1)" clip-rule="nonzero">
<path style=" stroke:none;fill-rule:nonzero;fill:rgb(90.625%,70.117188%,66.209412%);fill-opacity:1;" d="M 580.109375 411.425781 C 558.1875 480.113281 535.855469 548.710938 507.847656 615.171875 C 532.554688 637.453125 638.050781 746.417969 638.050781 746.417969 C 638.050781 746.417969 752.589844 430.421875 580.109375 411.425781 "/>
</g>
<path style=" stroke:none;fill-rule:nonzero;fill:rgb(90.625%,70.117188%,66.209412%);fill-opacity:1;" d="M 253.25 -14.664063 L 253.226563 -14.851563 C 253.226563 -14.851563 253.160156 -14.820313 253.058594 -14.765625 C 252.957031 -14.820313 252.894531 -14.851563 252.894531 -14.851563 L 252.914063 -14.6875 C 247.671875 -11.886719 174.984375 28.113281 123.148438 119.878906 L 382.96875 119.878906 C 331.269531 28.355469 258.828125 -11.675781 253.25 -14.664063 "/>
<path style=" stroke:none;fill-rule:nonzero;fill:rgb(90.625%,70.117188%,66.209412%);fill-opacity:1;" d="M 251.847656 599.378906 C 238.699219 563.851563 227.859375 527.53125 216.847656 491.304688 C 211.539063 473.835938 206.085938 456.375 201.285156 438.761719 C 198.792969 429.613281 196.476563 420.132813 195.117188 410.566406 C 2.488281 413.726563 123.074219 746.417969 123.074219 746.417969 C 123.074219 746.417969 241.105469 624.507813 256.722656 612.207031 C 255.066406 607.941406 253.4375 603.667969 251.847656 599.378906 "/>
<path style="fill:none;stroke-width:380;stroke-linecap:round;stroke-linejoin:round;stroke:rgb(0%,0%,0%);stroke-opacity:1;stroke-miterlimit:10;" d="M 3141.09375 7795.585938 C 3141.09375 7795.585938 6588.125 6011.445313 3995.234375 880.15625 " transform="matrix(0.1,0,0,-0.1,0,800)"/>
<path style="fill:none;stroke-width:380;stroke-linecap:round;stroke-linejoin:round;stroke:rgb(0%,0%,0%);stroke-opacity:1;stroke-miterlimit:10;" d="M 4360.429688 1535 C 4409.375 1528.90625 5712.578125 182.890625 5712.578125 182.890625 C 5712.578125 182.890625 6930.078125 3541.796875 4964.492188 3541.796875 " transform="matrix(0.1,0,0,-0.1,0,800)"/>
<path style="fill:none;stroke-width:380;stroke-linecap:round;stroke-linejoin:round;stroke:rgb(0%,0%,0%);stroke-opacity:1;stroke-miterlimit:10;" d="M 1318.476563 4581.757813 C 1276.914063 3611.40625 1516.757813 2390.820313 2280.117188 880.15625 L 3995.234375 880.15625 " transform="matrix(0.1,0,0,-0.1,0,800)"/>
<path style="fill:none;stroke-width:380;stroke-linecap:round;stroke-linejoin:round;stroke:rgb(0%,0%,0%);stroke-opacity:1;stroke-miterlimit:10;" d="M 1914.921875 1535 C 1865.976563 1528.90625 562.773438 182.890625 562.773438 182.890625 C 562.773438 182.890625 -654.726563 3541.796875 1310.859375 3541.796875 " transform="matrix(0.1,0,0,-0.1,0,800)"/>
<path style="fill:none;stroke-width:380;stroke-linecap:round;stroke-linejoin:round;stroke:rgb(0%,0%,0%);stroke-opacity:1;stroke-miterlimit:10;" d="M 3140.351563 3529.140625 L 3140.351563 192.34375 " transform="matrix(0.1,0,0,-0.1,0,800)"/>
<path style="fill:none;stroke-width:380;stroke-linecap:round;stroke-linejoin:round;stroke:rgb(0%,0%,0%);stroke-opacity:1;stroke-miterlimit:10;" d="M 3875.742188 5086.757813 C 3875.742188 4680.976563 3546.796875 4352.03125 3141.015625 4352.03125 C 2735.234375 4352.03125 2406.289063 4680.976563 2406.289063 5086.757813 C 2406.289063 5492.539063 2735.234375 5821.484375 3141.015625 5821.484375 " transform="matrix(0.1,0,0,-0.1,0,800)"/>
<path style="fill:none;stroke-width:380;stroke-linecap:round;stroke-linejoin:round;stroke:rgb(0%,0%,0%);stroke-opacity:1;stroke-miterlimit:10;" d="M 1862.070313 6448.28125 L 4435.664063 6448.28125 " transform="matrix(0.1,0,0,-0.1,0,800)"/>
</g>
</svg>
