<?xml version="1.0" encoding="UTF-8"?>
<svg xmlns="http://www.w3.org/2000/svg" xmlns:xlink="http://www.w3.org/1999/xlink" width="797.62pt" height="798.95pt" viewBox="0 0 797.62 798.95" version="1.1">
<defs>
<clipPath id="clip1">
  <path d="M 448 449 L 797.621094 449 L 797.621094 798.949219 L 448 798.949219 Z M 448 449 "/>
</clipPath>
</defs>
<g id="surface1">
<path style=" stroke:none;fill-rule:nonzero;fill:rgb(90.625%,70.117188%,66.209412%);fill-opacity:1;" d="M 339.371094 3.410156 L 65.144531 3.410156 C 30.046875 3.410156 1.59375 31.863281 1.59375 66.964844 L 1.59375 227.589844 C 1.59375 262.6875 30.046875 291.140625 65.144531 291.140625 L 167.019531 291.140625 C 179.015625 312.074219 201.792969 351.011719 201.792969 351.011719 L 236.71875 291.140625 L 339.371094 291.140625 C 374.472656 291.140625 402.925781 262.6875 402.925781 227.589844 L 402.925781 66.964844 C 402.925781 31.863281 374.472656 3.410156 339.371094 3.410156 "/>
<path style=" stroke:none;fill-rule:nonzero;fill:rgb(98.826599%,89.0625%,67.771912%);fill-opacity:1;" d="M 665.515625 665.878906 L 472.613281 472.980469 C 472.613281 472.980469 429.503906 525.191406 381.425781 564.164063 L 373.34375 572.25 L 563.992188 766.539063 C 589.152344 792.179688 630.394531 792.375 655.796875 766.972656 L 665.515625 757.253906 C 690.746094 732.023438 690.746094 691.109375 665.515625 665.878906 "/>
<path style="fill:none;stroke-width:380;stroke-linecap:round;stroke-linejoin:round;stroke:rgb(0%,0%,0%);stroke-opacity:1;stroke-miterlimit:10;" d="M 190 4901.6875 C 186.484375 3274.460937 1505 1945.945312 3138.867188 1955.59375 C 4736.640625 1965.046875 6044.21875 3300.75 6027.265625 4878.132812 C 6048.828125 6484.070312 4717.109375 7798.210937 3122.460938 7799.539062 " transform="matrix(0.1,0,0,-0.1,0,798.95)"/>
<path style="fill:none;stroke-width:380;stroke-linecap:round;stroke-linejoin:round;stroke:rgb(0%,0%,0%);stroke-opacity:1;stroke-miterlimit:10;" d="M 892.304688 5086.804687 L 892.304688 4331.179687 C 892.304688 4041.609375 1127.070313 3806.804687 1416.679688 3806.804687 L 2546.171875 3806.804687 " transform="matrix(0.1,0,0,-0.1,0,798.95)"/>
<path style="fill:none;stroke-width:380;stroke-linecap:round;stroke-linejoin:round;stroke:rgb(0%,0%,0%);stroke-opacity:1;stroke-miterlimit:10;" d="M 2661.210938 6573.09375 L 4454.726563 6573.09375 C 4744.335938 6573.09375 4979.101563 6338.328125 4979.101563 6048.71875 L 4979.101563 5293.09375 " transform="matrix(0.1,0,0,-0.1,0,798.95)"/>
<path style="fill:none;stroke-width:380;stroke-linecap:round;stroke-linejoin:round;stroke:rgb(0%,0%,0%);stroke-opacity:1;stroke-miterlimit:10;" d="M 2557.890625 3804.382812 L 2931.40625 3157.390625 L 3304.960938 3804.382812 " transform="matrix(0.1,0,0,-0.1,0,798.95)"/>
<g clip-path="url(#clip1)" clip-rule="nonzero">
<path style="fill:none;stroke-width:380;stroke-linecap:round;stroke-linejoin:round;stroke:rgb(0%,0%,0%);stroke-opacity:1;stroke-miterlimit:10;" d="M 5666.367188 3306.375 L 7581.367188 1381.375 C 7854.53125 1108.210937 7854.53125 665.28125 7581.328125 392.078125 C 7308.164063 118.914062 6865.234375 118.914062 6592.03125 392.078125 L 4677.070313 2317.078125 " transform="matrix(0.1,0,0,-0.1,0,798.95)"/>
</g>
<path style="fill:none;stroke-width:380;stroke-linecap:round;stroke-linejoin:round;stroke:rgb(0%,0%,0%);stroke-opacity:1;stroke-miterlimit:10;" d="M 2840.546875 6074.539062 C 2872.03125 6080.945312 2904.648438 6084.34375 2938.046875 6084.34375 C 3205.15625 6084.34375 3421.71875 5867.78125 3421.71875 5600.632812 C 3421.71875 5333.523437 3205.15625 5116.960937 2938.046875 5116.960937 C 2670.898438 5116.960937 2454.375 5333.523437 2454.375 5600.632812 C 2454.375 5647.273437 2460.976563 5692.390625 2473.28125 5735.046875 " transform="matrix(0.1,0,0,-0.1,0,798.95)"/>
<path style="fill:none;stroke-width:380;stroke-linecap:round;stroke-linejoin:round;stroke:rgb(0%,0%,0%);stroke-opacity:1;stroke-miterlimit:10;" d="M 2229.726563 5088.289062 C 2123.242188 5026.023437 2051.679688 4910.515625 2051.679688 4778.289062 L 2051.679688 4294.734375 " transform="matrix(0.1,0,0,-0.1,0,798.95)"/>
<path style="fill:none;stroke-width:380;stroke-linecap:round;stroke-linejoin:round;stroke:rgb(0%,0%,0%);stroke-opacity:1;stroke-miterlimit:10;" d="M 3797.226563 4294.734375 L 3797.226563 4778.289062 C 3797.226563 4902.117187 3734.492188 5011.296875 3639.023438 5075.789062 " transform="matrix(0.1,0,0,-0.1,0,798.95)"/>
</g>
</svg>
