<?xml version="1.0" encoding="UTF-8"?>
<svg xmlns="http://www.w3.org/2000/svg" xmlns:xlink="http://www.w3.org/1999/xlink" width="800pt" height="792.5pt" viewBox="0 0 800 792.5" version="1.1">
<defs>
<clipPath id="clip1">
  <path d="M 236 70 L 800 70 L 800 792.5 L 236 792.5 Z M 236 70 "/>
</clipPath>
</defs>
<g id="surface1">
<path style=" stroke:none;fill-rule:nonzero;fill:rgb(59.179688%,63.476563%,70.506287%);fill-opacity:1;" d="M -51.785156 685.285156 L 99.363281 685.285156 L 99.363281 317.628906 L -51.785156 317.628906 Z M -51.785156 685.285156 "/>
<g clip-path="url(#clip1)" clip-rule="nonzero">
<path style=" stroke:none;fill-rule:nonzero;fill:rgb(98.826599%,89.0625%,67.771912%);fill-opacity:1;" d="M 856.765625 423.148438 C 856.765625 365.804688 807.210938 366.511719 807.210938 366.511719 L 575.707031 366.511719 C 613.230469 266.691406 608.980469 70.589844 513.410156 70.589844 C 437.164063 70.589844 445.3125 169.703125 449.304688 209.800781 C 450.429688 221.132813 448.210938 232.539063 442.917969 242.628906 C 421.273438 283.90625 359.660156 389.445313 356.242188 390.585938 C 352.316406 391.894531 251.480469 441.574219 236.976563 449.097656 L 236.976563 745.976563 L 330.046875 745.976563 L 388.101563 794.121094 L 736.492188 794.121094 C 736.492188 794.121094 784.554688 796.242188 784.554688 738.898438 C 784.554688 714.824219 775.820313 700.976563 765.683594 693.019531 L 681.195313 687.925781 L 770.476563 687.925781 C 770.476563 687.925781 818.539063 690.050781 818.539063 632.703125 C 818.539063 611.203125 811.566406 597.859375 802.855469 589.585938 L 702.433594 587.394531 L 791.714844 587.394531 C 791.714844 587.394531 839.777344 589.519531 839.777344 532.175781 C 839.777344 499.621094 823.804688 485.777344 809.996094 479.890625 L 719.421875 478.371094 L 808.703125 478.371094 C 808.703125 478.371094 856.765625 480.496094 856.765625 423.148438 "/>
</g>
<path style="fill:none;stroke-width:380;stroke-linecap:round;stroke-linejoin:round;stroke:rgb(0%,0%,0%);stroke-opacity:1;stroke-miterlimit:10;" d="M 1667.539063 3940.390625 C 1667.539063 3940.390625 2786.132813 4520.9375 2828.59375 4535.078125 C 2862.773438 4546.445313 3478.90625 5601.835938 3695.351563 6014.648438 C 3748.28125 6115.546875 3770.507813 6229.570313 3759.21875 6342.929688 C 3719.335938 6743.90625 3637.851563 7735.039063 4400.273438 7735.039063 C 5356.015625 7735.039063 5398.476563 5773.984375 5023.242188 4775.78125 L 7338.28125 4775.78125 C 7338.28125 4775.78125 7833.828125 4782.851563 7833.828125 4209.414063 C 7833.828125 3635.976563 7353.242188 3657.226563 7353.242188 3657.226563 " transform="matrix(0.1,0,0,-0.1,0,792.5)"/>
<path style="fill:none;stroke-width:380;stroke-linecap:round;stroke-linejoin:round;stroke:rgb(0%,0%,0%);stroke-opacity:1;stroke-miterlimit:10;" d="M 7366.132813 3642.03125 C 7504.21875 3583.164063 7663.945313 3444.6875 7663.945313 3119.179688 C 7663.945313 2545.703125 7183.320313 2566.953125 7183.320313 2566.953125 " transform="matrix(0.1,0,0,-0.1,0,792.5)"/>
<path style="fill:none;stroke-width:380;stroke-linecap:round;stroke-linejoin:round;stroke:rgb(0%,0%,0%);stroke-opacity:1;stroke-miterlimit:10;" d="M 7294.765625 2545.078125 C 7381.875 2462.304688 7451.5625 2328.90625 7451.5625 2113.867188 C 7451.5625 1540.429688 6970.9375 1561.679688 6970.9375 1561.679688 " transform="matrix(0.1,0,0,-0.1,0,792.5)"/>
<path style="fill:none;stroke-width:380;stroke-linecap:round;stroke-linejoin:round;stroke:rgb(0%,0%,0%);stroke-opacity:1;stroke-miterlimit:10;" d="M 3147.1875 499.726563 L 2566.640625 981.132813 L 1589.6875 981.132813 " transform="matrix(0.1,0,0,-0.1,0,792.5)"/>
<path style="fill:none;stroke-width:380;stroke-linecap:round;stroke-linejoin:round;stroke:rgb(0%,0%,0%);stroke-opacity:1;stroke-miterlimit:10;" d="M 6923.007813 1510.703125 C 7024.375 1431.132813 7111.71875 1292.695313 7111.71875 1051.953125 C 7111.71875 478.476563 6631.09375 499.726563 6631.09375 499.726563 " transform="matrix(0.1,0,0,-0.1,0,792.5)"/>
<path style="fill:none;stroke-width:380;stroke-linecap:round;stroke-linejoin:round;stroke:rgb(0%,0%,0%);stroke-opacity:1;stroke-miterlimit:10;" d="M 892.773438 4446.289063 L 1550.664063 4446.289063 L 1550.664063 786.835938 L 174.84375 786.835938 L 174.84375 3718.515625 " transform="matrix(0.1,0,0,-0.1,0,792.5)"/>
</g>
</svg>
