<?xml version="1.0" encoding="UTF-8"?>
<svg xmlns="http://www.w3.org/2000/svg" xmlns:xlink="http://www.w3.org/1999/xlink" width="742.15pt" height="800pt" viewBox="0 0 742.15 800" version="1.1">
<defs>
<clipPath id="clip1">
  <path d="M 480 536 L 742.148438 536 L 742.148438 800 L 480 800 Z M 480 536 "/>
</clipPath>
</defs>
<g id="surface1">
<path style=" stroke:none;fill-rule:nonzero;fill:rgb(73.242188%,81.25%,68.943787%);fill-opacity:1;" d="M 300 431.320313 C 209.625 431.320313 136.363281 358.058594 136.363281 267.683594 C 136.363281 177.308594 209.625 104.046875 300 104.046875 C 390.371094 104.046875 463.636719 177.308594 463.636719 267.683594 C 463.636719 358.058594 390.371094 431.320313 300 431.320313 M 512.132813 179.816406 L 512.132813 55.550781 L 387.867188 55.550781 L 300 -32.316406 L 212.132813 55.550781 L 87.867188 55.550781 L 87.867188 179.816406 L 0 267.683594 L 87.867188 355.550781 L 87.867188 479.816406 L 212.132813 479.816406 L 300 567.683594 L 387.867188 479.816406 L 512.132813 479.816406 L 512.132813 355.550781 L 600 267.683594 "/>
<path style=" stroke:none;fill-rule:nonzero;fill:rgb(90.625%,70.117188%,66.209412%);fill-opacity:1;" d="M 271.382813 537.75 C 275.128906 537.75 367.148438 536.820313 367.148438 536.820313 L 423.042969 592.046875 L 290.105469 821.410156 L 245.171875 750.261719 L 161.851563 742.773438 "/>
<g clip-path="url(#clip1)" clip-rule="nonzero">
<path style=" stroke:none;fill-rule:nonzero;fill:rgb(90.625%,70.117188%,66.209412%);fill-opacity:1;" d="M 632.617188 537.75 C 628.871094 537.75 536.851563 536.820313 536.851563 536.820313 L 480.957031 592.046875 L 613.894531 821.410156 L 658.828125 750.261719 L 742.148438 742.773438 "/>
</g>
<path style="fill:none;stroke-width:380;stroke-linecap:round;stroke-linejoin:round;stroke:rgb(0%,0%,0%);stroke-opacity:1;stroke-miterlimit:10;" d="M 4486.601563 2878.671875 L 3607.929688 2000 L 2729.257813 2878.671875 L 1486.601563 2878.671875 L 1486.601563 4121.328125 L 607.929688 5000 L 1486.601563 5878.671875 L 1486.601563 7121.328125 L 2729.257813 7121.328125 L 3607.929688 8000 L 4486.601563 7121.328125 L 5729.257813 7121.328125 L 5729.257813 5878.671875 " transform="matrix(0.1,0,0,-0.1,0,800)"/>
<path style="fill:none;stroke-width:380;stroke-linecap:round;stroke-linejoin:round;stroke:rgb(0%,0%,0%);stroke-opacity:1;stroke-miterlimit:10;" d="M 3607.929688 6636.367188 C 4511.679688 6636.367188 5244.296875 5903.75 5244.296875 5000 C 5244.296875 4096.25 4511.679688 3363.632813 3607.929688 3363.632813 C 2704.179688 3363.632813 1971.5625 4096.25 1971.5625 5000 " transform="matrix(0.1,0,0,-0.1,0,800)"/>
<path style="fill:none;stroke-width:380;stroke-linecap:round;stroke-linejoin:round;stroke:rgb(0%,0%,0%);stroke-opacity:1;stroke-miterlimit:10;" d="M 3912.851563 2289.492188 L 5234.6875 0 L 5672.929688 759.023438 L 6549.375 759.023438 L 5346.992188 2832.070313 " transform="matrix(0.1,0,0,-0.1,0,800)"/>
<path style="fill:none;stroke-width:380;stroke-linecap:round;stroke-linejoin:round;stroke:rgb(0%,0%,0%);stroke-opacity:1;stroke-miterlimit:10;" d="M 3296.640625 2278.476563 L 1981.171875 0 L 1542.929688 759.023438 L 666.484375 759.023438 L 1864.0625 2842.421875 " transform="matrix(0.1,0,0,-0.1,0,800)"/>
</g>
</svg>
