<?xml version="1.0" encoding="UTF-8"?>
<svg xmlns="http://www.w3.org/2000/svg" xmlns:xlink="http://www.w3.org/1999/xlink" width="736.91pt" height="751.85pt" viewBox="0 0 736.91 751.85" version="1.1">
<defs>
<clipPath id="clip1">
  <path d="M 66 92 L 736.910156 92 L 736.910156 751.851563 L 66 751.851563 Z M 66 92 "/>
</clipPath>
</defs>
<g id="surface1">
<g clip-path="url(#clip1)" clip-rule="nonzero">
<path style=" stroke:none;fill-rule:nonzero;fill:rgb(73.242188%,81.25%,68.943787%);fill-opacity:1;" d="M 718.878906 110.75 C 546.035156 63.910156 353.621094 108.339844 217.914063 244.046875 C 82.210938 379.753906 37.78125 572.164063 84.621094 745.007813 C 257.464844 791.847656 449.878906 747.417969 585.582031 611.710938 C 721.289063 476.007813 765.714844 283.59375 718.878906 110.75 "/>
</g>
<path style="fill:none;stroke-width:380;stroke-linecap:round;stroke-linejoin:round;stroke:rgb(0%,0%,0%);stroke-opacity:1;stroke-miterlimit:10;" d="M 379.921875 860.492187 C 2094.023438 378.734375 4011.210938 811.820312 5359.804688 2160.414062 C 6708.4375 3509.007812 7141.484375 5426.15625 6659.726563 7140.257812 C 6662.265625 6959.007812 1634.804688 2115.335937 1634.804688 2115.335937 " transform="matrix(0.1,0,0,-0.1,0,751.85)"/>
<path style="fill:none;stroke-width:380;stroke-linecap:round;stroke-linejoin:round;stroke:rgb(0%,0%,0%);stroke-opacity:1;stroke-miterlimit:10;" d="M 5134.609375 7328.539062 C 3880.546875 7293.460937 2636.992188 6797.484375 1679.84375 5840.375 C 700.820313 4861.3125 204.296875 3582.601562 190 2299.515625 " transform="matrix(0.1,0,0,-0.1,0,751.85)"/>
</g>
</svg>
