<?xml version="1.0" encoding="UTF-8"?>
<svg xmlns="http://www.w3.org/2000/svg" xmlns:xlink="http://www.w3.org/1999/xlink" width="697.71pt" height="800pt" viewBox="0 0 697.71 800" version="1.1">
<defs>
<clipPath id="clip1">
  <path d="M 40 0 L 697.710938 0 L 697.710938 800 L 40 800 Z M 40 0 "/>
</clipPath>
</defs>
<g id="surface1">
<path style=" stroke:none;fill-rule:nonzero;fill:rgb(73.242188%,81.25%,68.943787%);fill-opacity:1;" d="M 309.703125 420.007813 C 388.753906 421.066406 453.441406 355.511719 453.507813 277.015625 C 453.570313 197.433594 389.625 132.839844 310.859375 132.667969 C 230.761719 132.492188 165.363281 197.398438 165.839844 277.824219 C 166.304688 356.476563 232.054688 420.839844 309.703125 420.007813 M 618.96875 275.058594 C 619.578125 299.980469 615.457031 322.453125 608.496094 344.527344 C 590.359375 402.03125 560.445313 453.566406 527.6875 503.597656 C 475.472656 583.359375 415.507813 657.097656 352.050781 728.074219 C 339.722656 741.859375 327.148438 755.421875 314.621094 769.027344 C 309.90625 774.148438 309.589844 774.105469 305.011719 769.230469 C 240.765625 700.894531 180.558594 629.1875 125.59375 553.160156 C 97.105469 513.761719 70.589844 473.058594 47.644531 430.128906 C 33.691406 404.019531 21.496094 377.121094 12.050781 349.035156 C 1.59375 317.949219 -2.320313 285.992188 1.347656 253.449219 C 12.597656 153.613281 59.980469 75.671875 144.269531 20.636719 C 173.664063 1.445313 205.855469 -11.589844 240.023438 -19.296875 C 278.949219 -28.074219 318.222656 -29.578125 357.769531 -23.257813 C 433.90625 -11.085938 496.785156 24.695313 546.738281 83.078125 C 571.683594 112.234375 590.089844 145.292969 602.476563 181.734375 C 612.96875 212.589844 618.613281 244.195313 618.96875 275.058594 "/>
<g clip-path="url(#clip1)" clip-rule="nonzero">
<path style="fill:none;stroke-width:380;stroke-linecap:round;stroke-linejoin:round;stroke:rgb(0%,0%,0%);stroke-opacity:1;stroke-miterlimit:10;" d="M 3681.679688 3528.59375 C 4482.695313 3526.835938 5136.640625 4175.898438 5131.914063 4980.15625 C 5127.226563 5766.679688 4469.726563 6410.3125 3693.28125 6401.953125 C 2902.734375 6412.578125 2255.859375 5757.03125 2255.234375 4972.070313 M 6786.523438 4978.164063 C 6792.617188 4728.945313 6751.445313 4504.21875 6681.835938 4283.476563 C 6500.46875 3708.4375 6201.328125 3193.125 5873.75 2692.773438 C 5351.5625 1895.195313 4751.914063 1157.773438 4117.34375 448.007813 C 3994.101563 310.15625 3868.320313 174.53125 3743.046875 38.515625 C 3695.898438 -12.695313 3692.773438 -12.304688 3646.953125 36.445313 C 3004.492188 719.804688 2402.421875 1436.875 1852.773438 2197.148438 C 1567.929688 2591.132813 1302.734375 2998.164063 1073.320313 3427.5 C 933.789063 3688.59375 811.835938 3957.539063 717.34375 4238.398438 C 612.773438 4549.257813 573.632813 4868.828125 610.3125 5194.257813 C 722.8125 6192.65625 1196.640625 6972.070313 2039.570313 7522.382813 C 2333.476563 7714.296875 2655.390625 7844.6875 2997.109375 7921.71875 C 3191.71875 7965.625 3387.226563 7991.328125 3583.476563 7998.164063 " transform="matrix(0.1,0,0,-0.1,0,800)"/>
</g>
</g>
</svg>
