<?xml version="1.0" encoding="UTF-8"?>
<svg xmlns="http://www.w3.org/2000/svg" xmlns:xlink="http://www.w3.org/1999/xlink" width="800pt" height="800pt" viewBox="0 0 800 800" version="1.1">
<g id="surface1">
<path style=" stroke:none;fill-rule:nonzero;fill:rgb(59.179688%,63.476563%,70.506287%);fill-opacity:1;" d="M 99.363281 356.769531 L -51.785156 356.769531 L -51.785156 -10.890625 L 99.359375 -10.890625 Z M 99.363281 356.769531 "/>
<path style=" stroke:none;fill-rule:nonzero;fill:rgb(98.826599%,89.0625%,67.771912%);fill-opacity:1;" d="M 856.765625 449.066406 C 856.765625 506.410156 807.210938 505.703125 807.210938 505.703125 L 575.707031 505.703125 C 613.230469 605.523438 608.984375 801.628906 513.410156 801.628906 C 437.164063 801.628906 445.3125 702.515625 449.304688 662.421875 C 450.429688 651.085938 448.210938 639.679688 442.917969 629.589844 C 421.273438 588.308594 359.660156 482.773438 356.242188 481.632813 C 352.316406 480.324219 251.480469 430.644531 236.976563 423.121094 L 236.976563 126.238281 L 330.046875 126.238281 L 388.101563 78.097656 L 736.492188 78.097656 C 736.492188 78.097656 784.554688 75.976563 784.554688 133.320313 C 784.554688 157.394531 775.820313 171.238281 765.683594 179.199219 L 681.195313 184.292969 L 770.476563 184.292969 C 770.476563 184.292969 818.539063 182.171875 818.539063 239.511719 C 818.539063 261.019531 811.570313 274.355469 802.855469 282.632813 L 702.433594 284.820313 L 791.714844 284.820313 C 791.714844 284.820313 839.777344 282.699219 839.777344 340.042969 C 839.777344 372.59375 823.804688 386.441406 809.996094 392.328125 L 719.421875 393.847656 L 808.703125 393.847656 C 808.703125 393.847656 856.765625 391.722656 856.765625 449.066406 "/>
<path style="fill:none;stroke-width:380;stroke-linecap:round;stroke-linejoin:round;stroke:rgb(0%,0%,0%);stroke-opacity:1;stroke-miterlimit:10;" d="M 7338.28125 3458.867188 C 7338.28125 3458.867188 7833.828125 3451.796875 7833.828125 4025.234375 C 7833.828125 4598.671875 7353.203125 4577.460938 7353.203125 4577.460938 " transform="matrix(0.1,0,0,-0.1,0,800)"/>
<path style="fill:none;stroke-width:380;stroke-linecap:round;stroke-linejoin:round;stroke:rgb(0%,0%,0%);stroke-opacity:1;stroke-miterlimit:10;" d="M 1667.539063 4294.257813 C 1667.539063 4294.257813 2786.132813 3713.75 2828.59375 3699.609375 C 2862.773438 3688.203125 3478.90625 2632.8125 3695.351563 2220.039063 C 3748.242188 2119.140625 3770.507813 2005.078125 3759.21875 1891.757813 C 3719.335938 1490.78125 3637.8125 499.648438 4400.273438 499.609375 C 5356.015625 499.609375 5398.476563 2460.664063 5023.242188 3458.867188 " transform="matrix(0.1,0,0,-0.1,0,800)"/>
<path style="fill:none;stroke-width:380;stroke-linecap:round;stroke-linejoin:round;stroke:rgb(0%,0%,0%);stroke-opacity:1;stroke-miterlimit:10;" d="M 7366.132813 4592.65625 C 7504.257813 4651.523438 7663.945313 4789.960938 7663.945313 5115.507813 C 7663.945313 5688.945313 7183.320313 5667.695313 7183.320313 5667.695313 " transform="matrix(0.1,0,0,-0.1,0,800)"/>
<path style="fill:none;stroke-width:380;stroke-linecap:round;stroke-linejoin:round;stroke:rgb(0%,0%,0%);stroke-opacity:1;stroke-miterlimit:10;" d="M 7294.765625 5689.609375 C 7381.875 5772.34375 7451.5625 5905.742188 7451.5625 6120.78125 C 7451.5625 6694.257813 6970.9375 6673.007813 6970.9375 6673.007813 " transform="matrix(0.1,0,0,-0.1,0,800)"/>
<path style="fill:none;stroke-width:380;stroke-linecap:round;stroke-linejoin:round;stroke:rgb(0%,0%,0%);stroke-opacity:1;stroke-miterlimit:10;" d="M 6923.007813 6723.945313 C 7024.375 6803.515625 7111.71875 6941.953125 7111.71875 7182.734375 C 7111.71875 7756.171875 6631.132813 7734.921875 6631.132813 7734.921875 L 3147.1875 7734.921875 L 2566.640625 7253.515625 L 1589.6875 7253.515625 " transform="matrix(0.1,0,0,-0.1,0,800)"/>
<path style="fill:none;stroke-width:380;stroke-linecap:round;stroke-linejoin:round;stroke:rgb(0%,0%,0%);stroke-opacity:1;stroke-miterlimit:10;" d="M 923.398438 7788.4375 L 1581.289063 7788.4375 L 1581.289063 4128.984375 L 205.46875 4128.984375 L 205.46875 7060.625 " transform="matrix(0.1,0,0,-0.1,0,800)"/>
</g>
</svg>
