<?xml version="1.0" encoding="UTF-8"?>
<svg xmlns="http://www.w3.org/2000/svg" xmlns:xlink="http://www.w3.org/1999/xlink" width="798.15pt" height="798.15pt" viewBox="0 0 798.15 798.15" version="1.1">
<defs>
<clipPath id="clip1">
  <path d="M 549 0 L 798.148438 0 L 798.148438 249 L 549 249 Z M 549 0 "/>
</clipPath>
<clipPath id="clip2">
  <path d="M 0 548 L 250 548 L 250 798.148438 L 0 798.148438 Z M 0 548 "/>
</clipPath>
<clipPath id="clip3">
  <path d="M 549 548 L 798.148438 548 L 798.148438 798.148438 L 549 798.148438 Z M 549 548 "/>
</clipPath>
</defs>
<g id="surface1">
<path style=" stroke:none;fill-rule:nonzero;fill:rgb(90.625%,70.117188%,66.209412%);fill-opacity:1;" d="M 533.242188 421.828125 C 533.242188 494.664063 474.199219 553.710938 401.363281 553.710938 C 328.527344 553.710938 269.484375 494.664063 269.484375 421.828125 C 269.484375 348.992188 328.527344 289.949219 401.363281 289.949219 C 474.199219 289.949219 533.242188 348.992188 533.242188 421.828125 "/>
<path style=" stroke:none;fill-rule:nonzero;fill:rgb(98.826599%,89.0625%,67.771912%);fill-opacity:1;" d="M 47.628906 199.121094 C 5.796875 157.285156 5.796875 89.457031 47.628906 47.621094 C 89.464844 5.785156 157.289063 5.785156 199.125 47.621094 C 240.960938 89.460938 240.960938 157.285156 199.125 199.121094 C 157.289063 240.957031 89.464844 240.957031 47.628906 199.121094 "/>
<path style=" stroke:none;fill-rule:nonzero;fill:rgb(98.826599%,89.0625%,67.771912%);fill-opacity:1;" d="M 597.589844 199.121094 C 555.753906 157.285156 555.753906 89.457031 597.589844 47.621094 C 639.421875 5.785156 707.246094 5.785156 749.082031 47.621094 C 790.914063 89.460938 790.914063 157.285156 749.082031 199.121094 C 707.246094 240.957031 639.421875 240.957031 597.589844 199.121094 "/>
<path style=" stroke:none;fill-rule:nonzero;fill:rgb(98.826599%,89.0625%,67.771912%);fill-opacity:1;" d="M 47.628906 749.078125 C 5.796875 707.242188 5.796875 639.414063 47.628906 597.578125 C 89.464844 555.746094 157.289063 555.746094 199.125 597.578125 C 240.960938 639.414063 240.960938 707.242188 199.125 749.078125 C 157.289063 790.914063 89.464844 790.914063 47.628906 749.078125 "/>
<path style=" stroke:none;fill-rule:nonzero;fill:rgb(98.826599%,89.0625%,67.771912%);fill-opacity:1;" d="M 597.589844 749.078125 C 555.753906 707.242188 555.753906 639.414063 597.589844 597.578125 C 639.421875 555.746094 707.246094 555.746094 749.082031 597.578125 C 790.914063 639.414063 790.914063 707.242188 749.082031 749.078125 C 707.246094 790.914063 639.421875 790.914063 597.589844 749.078125 "/>
<path style="fill:none;stroke-width:380;stroke-linecap:round;stroke-linejoin:round;stroke:rgb(0%,0%,0%);stroke-opacity:1;stroke-miterlimit:10;" d="M 5279.6875 3949.820313 C 5279.6875 3232.867188 4698.476563 2651.617188 3981.484375 2651.617188 C 3264.53125 2651.617188 2683.320313 3232.867188 2683.320313 3949.820313 C 2683.320313 4666.773438 3264.53125 5247.984375 3981.484375 5247.984375 " transform="matrix(0.1,0,0,-0.1,0,798.15)"/>
<g clip-path="url(#clip1)" clip-rule="nonzero">
<path style="fill:none;stroke-width:380;stroke-linecap:round;stroke-linejoin:round;stroke:rgb(0%,0%,0%);stroke-opacity:1;stroke-miterlimit:10;" d="M 7796.40625 6739.46875 C 7796.40625 6155.71875 7323.203125 5682.554688 6739.492188 5682.554688 C 6155.742188 5682.554688 5682.539063 6155.757813 5682.539063 6739.46875 C 5682.539063 7323.21875 6155.742188 7796.382813 6739.453125 7796.382813 " transform="matrix(0.1,0,0,-0.1,0,798.15)"/>
</g>
<path style="fill:none;stroke-width:380;stroke-linecap:round;stroke-linejoin:round;stroke:rgb(0%,0%,0%);stroke-opacity:1;stroke-miterlimit:10;" d="M 5992.109375 5992.125 L 4913.398438 4913.414063 " transform="matrix(0.1,0,0,-0.1,0,798.15)"/>
<g clip-path="url(#clip2)" clip-rule="nonzero">
<path style="fill:none;stroke-width:380;stroke-linecap:round;stroke-linejoin:round;stroke:rgb(0%,0%,0%);stroke-opacity:1;stroke-miterlimit:10;" d="M 190 1246.96875 C 190 1830.679688 663.203125 2303.84375 1246.914063 2303.84375 C 1830.625 2303.84375 2303.828125 1830.640625 2303.828125 1246.929688 C 2303.828125 663.21875 1830.625 190.015625 1246.914063 190.015625 " transform="matrix(0.1,0,0,-0.1,0,798.15)"/>
</g>
<path style="fill:none;stroke-width:380;stroke-linecap:round;stroke-linejoin:round;stroke:rgb(0%,0%,0%);stroke-opacity:1;stroke-miterlimit:10;" d="M 1994.257813 1994.273438 L 2998.203125 2988.648438 " transform="matrix(0.1,0,0,-0.1,0,798.15)"/>
<g clip-path="url(#clip3)" clip-rule="nonzero">
<path style="fill:none;stroke-width:380;stroke-linecap:round;stroke-linejoin:round;stroke:rgb(0%,0%,0%);stroke-opacity:1;stroke-miterlimit:10;" d="M 6739.453125 190.015625 C 6155.742188 190.015625 5682.539063 663.179688 5682.539063 1246.890625 C 5682.539063 1830.640625 6155.742188 2303.84375 6739.453125 2303.84375 C 7323.203125 2303.84375 7796.40625 1830.640625 7796.367188 1246.890625 " transform="matrix(0.1,0,0,-0.1,0,798.15)"/>
</g>
<path style="fill:none;stroke-width:380;stroke-linecap:round;stroke-linejoin:round;stroke:rgb(0%,0%,0%);stroke-opacity:1;stroke-miterlimit:10;" d="M 5992.148438 1994.273438 L 4981.5625 3021.773438 " transform="matrix(0.1,0,0,-0.1,0,798.15)"/>
<path style="fill:none;stroke-width:380;stroke-linecap:round;stroke-linejoin:round;stroke:rgb(0%,0%,0%);stroke-opacity:1;stroke-miterlimit:10;" d="M 1246.953125 7796.382813 C 1830.664063 7796.382813 2303.867188 7323.21875 2303.867188 6739.46875 C 2303.867188 6155.757813 1830.664063 5682.554688 1246.914063 5682.554688 C 663.203125 5682.554688 190 6155.757813 190 6739.46875 " transform="matrix(0.1,0,0,-0.1,0,798.15)"/>
<path style="fill:none;stroke-width:380;stroke-linecap:round;stroke-linejoin:round;stroke:rgb(0%,0%,0%);stroke-opacity:1;stroke-miterlimit:10;" d="M 1994.257813 5992.125 L 3072.96875 4913.414063 " transform="matrix(0.1,0,0,-0.1,0,798.15)"/>
</g>
</svg>
