<?xml version="1.0" encoding="UTF-8"?>
<svg xmlns="http://www.w3.org/2000/svg" xmlns:xlink="http://www.w3.org/1999/xlink" width="800pt" height="657.37pt" viewBox="0 0 800 657.37" version="1.1">
<defs>
<clipPath id="clip1">
  <path d="M 381 0 L 654 0 L 654 657.371094 L 381 657.371094 Z M 381 0 "/>
</clipPath>
</defs>
<g id="surface1">
<path style=" stroke:none;fill-rule:nonzero;fill:rgb(59.179688%,63.476563%,70.506287%);fill-opacity:1;" d="M 875.304688 244.59375 L 875.726563 244.179688 L 709.839844 20.011719 L 470.917969 20.011719 L 616.203125 243.949219 C 616.203125 243.949219 207.132813 245.777344 76.363281 244.8125 L 472.359375 636.054688 L 618.773438 244.59375 "/>
<path style="fill:none;stroke-width:380;stroke-linecap:round;stroke-linejoin:round;stroke:rgb(0%,0%,0%);stroke-opacity:1;stroke-miterlimit:10;" d="M 6341.132813 6383.7 L 1658.867188 6383.7 L 0 4142.020312 L 4000 189.989062 L 8000 4142.020312 " transform="matrix(0.1,0,0,-0.1,0,657.37)"/>
<path style="fill:none;stroke-width:380;stroke-linecap:round;stroke-linejoin:round;stroke:rgb(0%,0%,0%);stroke-opacity:1;stroke-miterlimit:10;" d="M 0 4142.020312 L 8000 4142.020312 " transform="matrix(0.1,0,0,-0.1,0,657.37)"/>
<g clip-path="url(#clip1)" clip-rule="nonzero">
<path style="fill:none;stroke-width:380;stroke-linecap:round;stroke-linejoin:round;stroke:rgb(0%,0%,0%);stroke-opacity:1;stroke-miterlimit:10;" d="M 4000 189.989062 L 6341.132813 6383.7 " transform="matrix(0.1,0,0,-0.1,0,657.37)"/>
</g>
<path style="fill:none;stroke-width:380;stroke-linecap:round;stroke-linejoin:round;stroke:rgb(0%,0%,0%);stroke-opacity:1;stroke-miterlimit:10;" d="M 1658.867188 6383.7 L 2504.257813 4147.098437 " transform="matrix(0.1,0,0,-0.1,0,657.37)"/>
<path style="fill:none;stroke-width:380;stroke-linecap:round;stroke-linejoin:round;stroke:rgb(0%,0%,0%);stroke-opacity:1;stroke-miterlimit:10;" d="M 5402.96875 4154.832812 L 3978.28125 6376.121875 L 2477.03125 4200.809375 L 3963.4375 383.270312 " transform="matrix(0.1,0,0,-0.1,0,657.37)"/>
</g>
</svg>
