<?xml version="1.0" encoding="UTF-8"?>
<svg xmlns="http://www.w3.org/2000/svg" xmlns:xlink="http://www.w3.org/1999/xlink" width="800pt" height="800pt" viewBox="0 0 800 800" version="1.1">
<g id="surface1">
<path style=" stroke:none;fill-rule:nonzero;fill:rgb(98.826599%,89.0625%,67.771912%);fill-opacity:1;" d="M 459.351563 203.773438 C 459.351563 317.144531 367.445313 409.050781 254.074219 409.050781 C 140.703125 409.050781 48.800781 317.144531 48.800781 203.773438 C 48.800781 90.402344 140.703125 -1.503906 254.074219 -1.503906 C 367.445313 -1.503906 459.351563 90.402344 459.351563 203.773438 "/>
<path style=" stroke:none;fill-rule:nonzero;fill:rgb(73.242188%,81.25%,68.943787%);fill-opacity:1;" d="M 457.515625 406.265625 L 50.300781 409.261719 C -28.121094 409.835938 -92 472.410156 -94.195313 550.800781 L -100.472656 774.890625 L 604.207031 774.890625 L 604.207031 551.886719 C 604.207031 471.039063 538.355469 405.671875 457.515625 406.265625 "/>
<path style=" stroke:none;fill-rule:nonzero;fill:rgb(59.179688%,63.476563%,70.506287%);fill-opacity:1;" d="M 768.53125 36.828125 L 805.144531 73.441406 L 856.921875 73.441406 L 856.921875 125.21875 L 893.53125 161.828125 L 856.921875 198.441406 L 856.921875 250.21875 L 805.144531 250.21875 L 768.53125 286.828125 L 731.921875 250.21875 L 680.144531 250.21875 L 680.144531 198.441406 L 643.53125 161.828125 L 680.144531 125.21875 L 680.144531 73.441406 L 731.921875 73.441406 "/>
<path style="fill:none;stroke-width:380;stroke-linecap:round;stroke-linejoin:round;stroke:rgb(0%,0%,0%);stroke-opacity:1;stroke-miterlimit:10;" d="M 2706.835938 7666.09375 C 2841.289063 7693.632813 2980.46875 7708.085938 3123.046875 7708.085938 C 4263.671875 7708.085938 5188.359375 6783.398438 5188.359375 5642.773438 C 5188.359375 4502.148438 4263.671875 3577.5 3123.046875 3577.5 C 1982.421875 3577.5 1057.773438 4502.148438 1057.773438 5642.773438 C 1057.773438 5841.875 1085.9375 6034.414063 1138.515625 6216.5625 " transform="matrix(0.1,0,0,-0.1,0,800)"/>
<path style="fill:none;stroke-width:380;stroke-linecap:round;stroke-linejoin:round;stroke:rgb(0%,0%,0%);stroke-opacity:1;stroke-miterlimit:10;" d="M 1169.179688 3663.164063 C 323.125 3663.164063 -362.734375 2977.304688 -362.734375 2131.289063 L -362.734375 66.5625 " transform="matrix(0.1,0,0,-0.1,0,800)"/>
<path style="fill:none;stroke-width:380;stroke-linecap:round;stroke-linejoin:round;stroke:rgb(0%,0%,0%);stroke-opacity:1;stroke-miterlimit:10;" d="M 6663.632813 66.5625 L 6663.632813 2131.25 C 6663.632813 2977.304688 5977.773438 3663.164063 5131.71875 3663.164063 " transform="matrix(0.1,0,0,-0.1,0,800)"/>
<path style="fill:none;stroke-width:380;stroke-linecap:round;stroke-linejoin:round;stroke:rgb(0%,0%,0%);stroke-opacity:1;stroke-miterlimit:10;" d="M 7127.890625 8060.039063 L 7493.984375 7693.90625 L 8011.796875 7693.90625 L 8011.796875 7176.132813 L 8377.890625 6810.039063 L 8011.796875 6443.90625 L 8011.796875 5926.132813 L 7493.984375 5926.132813 L 7127.890625 5560.039063 L 6761.796875 5926.132813 L 6243.984375 5926.132813 L 6243.984375 6443.90625 L 5877.890625 6810.039063 L 6243.984375 7176.132813 L 6243.984375 7693.90625 L 6761.796875 7693.90625 Z M 7127.890625 8060.039063 " transform="matrix(0.1,0,0,-0.1,0,800)"/>
<path style="fill:none;stroke-width:380;stroke-linecap:round;stroke-linejoin:round;stroke:rgb(0%,0%,0%);stroke-opacity:1;stroke-miterlimit:10;" d="M 6670.546875 6809.648438 L 6968.476563 6511.71875 L 7530.9375 7074.21875 " transform="matrix(0.1,0,0,-0.1,0,800)"/>
</g>
</svg>
