<?xml version="1.0" encoding="UTF-8"?>
<svg xmlns="http://www.w3.org/2000/svg" xmlns:xlink="http://www.w3.org/1999/xlink" width="800pt" height="784.39pt" viewBox="0 0 800 784.39" version="1.1">
<defs>
<clipPath id="clip1">
  <path d="M 68 79 L 800 79 L 800 784.390625 L 68 784.390625 Z M 68 79 "/>
</clipPath>
</defs>
<g id="surface1">
<g clip-path="url(#clip1)" clip-rule="nonzero">
<path style=" stroke:none;fill-rule:nonzero;fill:rgb(90.625%,70.117188%,66.209412%);fill-opacity:1;" d="M 468.089844 563.824219 C 369.785156 563.824219 284.019531 510.382813 238.089844 431.011719 C 284.023438 351.636719 369.789063 298.195313 468.089844 298.195313 C 566.390625 298.195313 652.152344 351.636719 698.089844 431.011719 C 652.152344 510.386719 566.386719 563.824219 468.089844 563.824219 M 862.242188 236.089844 C 851.300781 191.128906 828.464844 153.441406 792.035156 124.757813 C 743.953125 86.898438 689.003906 73.988281 628.828125 82.644531 C 596.886719 87.238281 567.902344 99.652344 541.414063 117.960938 C 514.628906 136.476563 492.746094 159.757813 474.804688 186.835938 C 472.621094 190.132813 470.527344 193.488281 468.179688 197.15625 C 465.710938 193.320313 463.496094 189.773438 461.179688 186.292969 C 442.367188 158.054688 419.296875 134.011719 390.917969 115.238281 C 361.648438 95.871094 329.585938 84.253906 294.621094 80.886719 C 276.8125 79.171875 259.039063 79.835938 241.339844 82.554688 C 211.15625 87.195313 183.046875 97.457031 157.878906 114.78125 C 101.78125 153.402344 72.738281 207.539063 68.691406 275.011719 C 66.816406 306.289063 69.414063 337.496094 74.925781 368.417969 C 82.988281 413.679688 100.757813 454.726563 127.878906 491.796875 C 146.789063 517.644531 168.628906 540.859375 191.636719 563.023438 C 223.152344 593.378906 256.324219 621.890625 289.414063 650.484375 C 349.480469 702.390625 409.148438 754.730469 466.695313 809.445313 C 467.175781 809.902344 467.722656 810.289063 468.253906 810.722656 C 468.871094 810.15625 469.335938 809.742188 469.789063 809.320313 C 485.214844 794.941406 500.5625 780.476563 516.085938 766.195313 C 565.742188 720.503906 616.941406 676.558594 667.886719 632.320313 C 695.800781 608.085938 723.609375 583.734375 750.03125 557.847656 C 772.242188 536.085938 793.214844 513.242188 811.292969 487.851563 C 837.859375 450.535156 854.699219 409.246094 862.214844 364.109375 C 865.949219 341.664063 867.585938 319.039063 868.023438 296.292969 C 868.414063 275.980469 867.058594 255.871094 862.242188 236.089844 "/>
</g>
<path style=" stroke:none;fill-rule:nonzero;fill:rgb(59.179688%,63.476563%,70.506287%);fill-opacity:1;" d="M 468.089844 327.070313 C 411.632813 327.070313 365.867188 372.839844 365.867188 429.296875 C 365.867188 485.75 411.632813 531.515625 468.089844 531.515625 C 524.542969 531.515625 570.308594 485.75 570.308594 429.296875 C 570.308594 372.839844 524.542969 327.070313 468.089844 327.070313 "/>
<path style="fill:none;stroke-width:380;stroke-linecap:round;stroke-linejoin:round;stroke:rgb(0%,0%,0%);stroke-opacity:1;stroke-miterlimit:10;" d="M 7941.25 4812.220312 C 7866.132813 4360.853125 7697.695313 3947.9625 7432.03125 3574.8375 C 7251.25 3320.892187 7041.5625 3092.454687 6819.414063 2874.8375 C 6555.234375 2616.009375 6277.109375 2372.454687 5998.007813 2130.110937 C 5488.554688 1687.728125 4976.5625 1248.275 4479.960938 791.360937 C 4324.765625 648.5875 4171.289063 503.9 4016.992188 360.110937 C 4012.460938 355.892187 4007.851563 351.751562 4001.640625 346.126562 C 3996.328125 350.423437 3990.859375 354.329687 3986.054688 358.9 C 3410.625 906.009375 2813.90625 1429.407812 2213.28125 1948.470312 C 1882.382813 2234.407812 1550.664063 2519.525 1235.507813 2823.11875 C 1005.429688 3044.759375 787.03125 3276.907812 597.929688 3535.345312 C 326.679688 3906.0875 149.023438 4316.517187 68.359375 4769.134375 C 13.28125 5078.353125 -12.695313 5390.423437 6.054688 5703.196875 C 46.523438 6377.923437 336.953125 6919.290625 897.929688 7305.501562 C 1149.570313 7478.74375 1430.703125 7581.360937 1732.539063 7627.767187 C 1909.53125 7654.954687 2087.226563 7661.595312 2265.351563 7644.446875 C 2614.960938 7610.775 2935.625 7494.603125 3228.320313 7300.93125 C 3512.109375 7113.196875 3742.773438 6872.767187 3930.898438 6590.384375 C 3954.0625 6555.579687 3976.25 6520.110937 4000.898438 6481.751562 C 4024.414063 6518.43125 4045.3125 6551.985937 4067.1875 6584.954687 C 4246.601563 6855.735937 4465.390625 7088.548437 4733.28125 7273.704687 C 4998.164063 7456.790625 5288.007813 7580.93125 5607.421875 7626.907812 C 5737.8125 7645.657812 5865.78125 7654.290625 5991.132813 7652.415625 " transform="matrix(0.1,0,0,-0.1,0,784.39)"/>
<path style="fill:none;stroke-width:380;stroke-linecap:round;stroke-linejoin:round;stroke:rgb(0%,0%,0%);stroke-opacity:1;stroke-miterlimit:10;" d="M 4000 2815.071875 C 3016.992188 2815.071875 2159.335938 3349.485937 1700 4143.235937 C 2159.335938 4936.946875 3016.992188 5471.360937 4000 5471.360937 C 4983.007813 5471.321875 5840.664063 4936.946875 6300 4143.196875 C 5840.664063 3349.485937 4983.007813 2815.071875 4000 2815.071875 Z M 4000 2815.071875 " transform="matrix(0.1,0,0,-0.1,0,784.39)"/>
<path style="fill:none;stroke-width:380;stroke-linecap:round;stroke-linejoin:round;stroke:rgb(0%,0%,0%);stroke-opacity:1;stroke-miterlimit:10;" d="M 5022.226563 4160.384375 C 5022.226563 3595.814062 4564.53125 3138.157812 4000 3138.157812 C 3435.429688 3138.157812 2977.773438 3595.814062 2977.773438 4160.384375 C 2977.773438 4724.915625 3435.429688 5182.571875 4000 5182.571875 " transform="matrix(0.1,0,0,-0.1,0,784.39)"/>
</g>
</svg>
