<?xml version="1.0" encoding="UTF-8"?>
<svg xmlns="http://www.w3.org/2000/svg" xmlns:xlink="http://www.w3.org/1999/xlink" width="800pt" height="800pt" viewBox="0 0 800 800" version="1.1">
<g id="surface1">
<path style=" stroke:none;fill-rule:nonzero;fill:rgb(59.179688%,63.476563%,70.506287%);fill-opacity:1;" d="M -41.722656 763.214844 L 95.859375 763.214844 L 95.859375 397.273438 L -41.722656 397.273438 Z M -41.722656 763.214844 "/>
<path style=" stroke:none;fill-rule:nonzero;fill:rgb(90.625%,70.117188%,66.209412%);fill-opacity:1;" d="M 95.230469 708.589844 L 190.910156 708.589844 L 403.386719 784.386719 L 722.726563 626.582031 C 722.726563 626.582031 692.285156 520.339844 541.3125 624.09375 L 470.484375 621.609375 C 470.484375 621.609375 429.480469 532.144531 282.859375 532.144531 C 282.859375 532.144531 237.503906 437.710938 96.472656 470.015625 "/>
<path style=" stroke:none;fill-rule:nonzero;fill:rgb(59.179688%,63.476563%,70.506287%);fill-opacity:1;" d="M 867.90625 172.433594 C 867.90625 305.480469 760.050781 413.335938 627 413.335938 C 493.953125 413.335938 386.09375 305.480469 386.09375 172.433594 C 386.09375 39.386719 493.953125 -68.472656 627 -68.472656 C 760.050781 -68.472656 867.90625 39.386719 867.90625 172.433594 "/>
<path style="fill:none;stroke-width:380;stroke-linecap:round;stroke-linejoin:round;stroke:rgb(0%,0%,0%);stroke-opacity:1;stroke-miterlimit:10;" d="M 1711.914063 3007.460938 C 1711.914063 3007.460938 2790.390625 3259.414063 3455.625 2362.382813 C 3455.625 2362.382813 5115.195313 2445.585938 5454.6875 1106.679688 C 5480.195313 1006.054688 5398.945313 910.46875 5295.625 920.9375 C 5073.320313 943.4375 4598.90625 1016.171875 3586.679688 1223.4375 " transform="matrix(0.1,0,0,-0.1,0,800)"/>
<path style="fill:none;stroke-width:380;stroke-linecap:round;stroke-linejoin:round;stroke:rgb(0%,0%,0%);stroke-opacity:1;stroke-miterlimit:10;" d="M 2377.148438 658.984375 L 1641.367188 658.984375 " transform="matrix(0.1,0,0,-0.1,0,800)"/>
<path style="fill:none;stroke-width:380;stroke-linecap:round;stroke-linejoin:round;stroke:rgb(0%,0%,0%);stroke-opacity:1;stroke-miterlimit:10;" d="M 5400.9375 1425 L 5995.625 1425 C 5995.625 1425 7361.367188 2523.632813 7900.585938 1455.234375 L 4776.5625 -49.609375 C 4660.15625 -105.703125 4526.09375 -112.695313 4404.492188 -69.023438 " transform="matrix(0.1,0,0,-0.1,0,800)"/>
<path style="fill:none;stroke-width:380;stroke-linecap:round;stroke-linejoin:round;stroke:rgb(0%,0%,0%);stroke-opacity:1;stroke-miterlimit:10;" d="M 892.773438 3662.929688 L 1550.664063 3662.929688 L 1550.664063 3.476563 L 174.84375 3.476563 L 174.84375 2935.15625 " transform="matrix(0.1,0,0,-0.1,0,800)"/>
<path style="fill:none;stroke-width:380;stroke-linecap:round;stroke-linejoin:round;stroke:rgb(0%,0%,0%);stroke-opacity:1;stroke-miterlimit:10;" d="M 5608.28125 7875.039063 C 6331.679688 7555.195313 6852.65625 6657.148438 6852.65625 5599.296875 C 6852.65625 4386.328125 6167.695313 3383.4375 5278.007813 3221.484375 " transform="matrix(0.1,0,0,-0.1,0,800)"/>
<path style="fill:none;stroke-width:380;stroke-linecap:round;stroke-linejoin:round;stroke:rgb(0%,0%,0%);stroke-opacity:1;stroke-miterlimit:10;" d="M 5933.046875 3219.960938 C 5039.296875 3377.1875 4350 4382.539063 4350 5599.296875 C 4350 6662.851563 4876.601563 7564.84375 5606.054688 7880.15625 " transform="matrix(0.1,0,0,-0.1,0,800)"/>
<path style="fill:none;stroke-width:380;stroke-linecap:round;stroke-linejoin:round;stroke:rgb(0%,0%,0%);stroke-opacity:1;stroke-miterlimit:10;" d="M 3797.617188 4005.9375 C 4237.460938 4386.71875 4881.914063 4627.03125 5600 4627.03125 C 6304.53125 4627.03125 6938.203125 4395.703125 7377.265625 4027.34375 " transform="matrix(0.1,0,0,-0.1,0,800)"/>
<path style="fill:none;stroke-width:380;stroke-linecap:round;stroke-linejoin:round;stroke:rgb(0%,0%,0%);stroke-opacity:1;stroke-miterlimit:10;" d="M 3290 5589.296875 L 7910 5589.296875 " transform="matrix(0.1,0,0,-0.1,0,800)"/>
<path style="fill:none;stroke-width:380;stroke-linecap:round;stroke-linejoin:round;stroke:rgb(0%,0%,0%);stroke-opacity:1;stroke-miterlimit:10;" d="M 5600 7994.609375 C 5600 7971.289063 5600 3295.234375 5600 3295.234375 " transform="matrix(0.1,0,0,-0.1,0,800)"/>
<path style="fill:none;stroke-width:380;stroke-linecap:round;stroke-linejoin:round;stroke:rgb(0%,0%,0%);stroke-opacity:1;stroke-miterlimit:10;" d="M 5600 8000 C 6015.898438 8000 6431.796875 7892.539063 6802.5 7677.617188 " transform="matrix(0.1,0,0,-0.1,0,800)"/>
<path style="fill:none;stroke-width:380;stroke-linecap:round;stroke-linejoin:round;stroke:rgb(0%,0%,0%);stroke-opacity:1;stroke-miterlimit:10;" d="M 3797.617188 7014.648438 C 4236.679688 6646.289063 4870.3125 6414.960938 5574.882813 6414.960938 C 6236.875 6414.960938 6836.289063 6619.179688 7270.507813 6949.414063 C 7333.945313 6997.695313 7391.914063 7052.773438 7444.492188 7112.734375 L 7454.21875 7123.828125 C 8240.664063 6169.023438 8177.1875 4748.75 7263.789063 3869.0625 C 6317.734375 2958.007813 4807.03125 2980.390625 3887.03125 3917.8125 C 2965.703125 4856.5625 2971.015625 6364.648438 3902.929688 7296.835938 C 4371.5625 7765.625 4985.78125 8000 5600 8000 " transform="matrix(0.1,0,0,-0.1,0,800)"/>
</g>
</svg>
