<?xml version="1.0" encoding="UTF-8"?>
<svg xmlns="http://www.w3.org/2000/svg" xmlns:xlink="http://www.w3.org/1999/xlink" width="800pt" height="800pt" viewBox="0 0 800 800" version="1.1">
<g id="surface1">
<path style=" stroke:none;fill-rule:nonzero;fill:rgb(98.826599%,89.0625%,67.771912%);fill-opacity:1;" d="M 547.585938 251.367188 C 499.8125 251.367188 461.085938 212.640625 461.085938 164.867188 C 461.085938 117.097656 499.8125 78.371094 547.585938 78.371094 C 595.355469 78.371094 634.082031 117.097656 634.082031 164.867188 C 634.082031 212.640625 595.355469 251.367188 547.585938 251.367188 M 468.703125 -31.519531 C 316.675781 -31.519531 193.429688 91.722656 193.429688 243.75 C 193.429688 286.03125 202.976563 326.082031 220.011719 361.878906 L -56.816406 638.703125 L -56.816406 769.265625 L 56.339844 769.265625 L 56.339844 695.28125 L 128.148438 695.28125 L 128.148438 621.296875 L 195.605469 621.296875 L 195.605469 549.484375 L 284.824219 549.484375 L 344.734375 489.578125 C 381.992188 508.402344 424.105469 519.019531 468.703125 519.019531 C 620.730469 519.019531 743.972656 395.777344 743.972656 243.75 C 743.972656 91.722656 620.730469 -31.519531 468.703125 -31.519531 "/>
<path style="fill:none;stroke-width:380;stroke-linecap:round;stroke-linejoin:round;stroke:rgb(0%,0%,0%);stroke-opacity:1;stroke-miterlimit:10;" d="M 6892.382813 6045.3125 C 6892.382813 5589.960938 6523.203125 5220.78125 6067.851563 5220.78125 C 5612.460938 5220.78125 5243.320313 5589.960938 5243.320313 6045.3125 C 5243.320313 6500.703125 5612.460938 6869.84375 6067.851563 6869.84375 M 5339.609375 8024.453125 C 4627.03125 8033.046875 3911.796875 7765.507813 3368.085938 7221.835938 C 2516.328125 6370.078125 2342.382813 5097.226563 2846.210938 4073.4375 L 47.1875 1274.375 L 77.5 19.023438 M 1192.851563 16.25 L 1194.765625 780.585938 L 1194.0625 783.007813 L 1908.007813 781.210938 L 1909.765625 1495.625 L 1909.0625 1498.007813 L 2623.007813 1496.210938 L 2624.804688 2210.625 L 2624.101563 2213.007813 L 3500.507813 2210.820313 L 4107.734375 2818.046875 C 5129.492188 2321.328125 6395.859375 2497.03125 7244.375 3345.546875 C 7802.539063 3903.710938 8069.648438 4642.734375 8045.703125 5373.945313 " transform="matrix(0.1,0,0,-0.1,0,800)"/>
</g>
</svg>
