<?xml version="1.0" encoding="UTF-8"?>
<svg xmlns="http://www.w3.org/2000/svg" xmlns:xlink="http://www.w3.org/1999/xlink" width="800pt" height="636.62pt" viewBox="0 0 800 636.62" version="1.1">
<defs>
<clipPath id="clip1">
  <path d="M 82 120 L 800 120 L 800 636.621094 L 82 636.621094 Z M 82 120 "/>
</clipPath>
</defs>
<g id="surface1">
<path style=" stroke:none;fill-rule:nonzero;fill:rgb(59.179688%,63.476563%,70.506287%);fill-opacity:1;" d="M 715.789063 -0.00390625 L -49.59375 -0.00390625 L 338.25 286.296875 "/>
<g clip-path="url(#clip1)" clip-rule="nonzero">
<path style=" stroke:none;fill-rule:nonzero;fill:rgb(98.826599%,89.0625%,67.771912%);fill-opacity:1;" d="M 82.421875 120.011719 L 470.261719 406.308594 L 847.800781 120.011719 L 847.800781 636.621094 L 85.21875 636.621094 C 85.21875 636.621094 85.488281 120.011719 82.421875 120.011719 "/>
</g>
<path style="fill:none;stroke-width:380;stroke-linecap:round;stroke-linejoin:round;stroke:rgb(0%,0%,0%);stroke-opacity:1;stroke-miterlimit:10;" d="M 5918.125 836.864062 L 197.109375 836.864062 L 197.109375 3815.340625 " transform="matrix(0.1,0,0,-0.1,0,636.62)"/>
<path style="fill:none;stroke-width:380;stroke-linecap:round;stroke-linejoin:round;stroke:rgb(0%,0%,0%);stroke-opacity:1;stroke-miterlimit:10;" d="M 2082.773438 6096.942187 L 7803.789063 6096.942187 L 7803.789063 3118.465625 " transform="matrix(0.1,0,0,-0.1,0,636.62)"/>
<path style="fill:none;stroke-width:380;stroke-linecap:round;stroke-linejoin:round;stroke:rgb(0%,0%,0%);stroke-opacity:1;stroke-miterlimit:10;" d="M 2055.078125 4661.160937 L 4030.976563 3142.528125 L 7824.257813 6057.957812 " transform="matrix(0.1,0,0,-0.1,0,636.62)"/>
</g>
</svg>
