<?xml version="1.0" encoding="UTF-8"?>
<svg xmlns="http://www.w3.org/2000/svg" xmlns:xlink="http://www.w3.org/1999/xlink" width="800pt" height="800pt" viewBox="0 0 800 800" version="1.1">
<g id="surface1">
<path style=" stroke:none;fill-rule:nonzero;fill:rgb(73.242188%,81.25%,68.943787%);fill-opacity:1;" d="M 493.585938 -31.191406 L 493.585938 90.171875 L 250.859375 90.171875 L 250.859375 332.894531 L 493.585938 332.894531 L 493.585938 454.257813 C 493.585938 439.085938 736.308594 211.53125 736.308594 211.53125 "/>
<path style=" stroke:none;fill-rule:nonzero;fill:rgb(73.242188%,81.25%,68.943787%);fill-opacity:1;" d="M 182.101563 763.425781 C 182.101563 763.425781 182.101563 711.726563 182.097656 642.066406 L 424.824219 642.066406 L 424.824219 399.34375 L 182.097656 399.34375 C 182.097656 332.707031 182.097656 282.449219 182.097656 277.980469 C 182.097656 293.148438 -60.628906 520.703125 -60.628906 520.703125 "/>
<path style="fill:none;stroke-width:380;stroke-linecap:round;stroke-linejoin:round;stroke:rgb(0%,0%,0%);stroke-opacity:1;stroke-miterlimit:10;" d="M 5542.109375 4319.609375 L 5542.109375 3106.015625 C 5542.109375 3257.695313 7969.375 5533.242188 7969.375 5533.242188 L 5542.109375 7960.46875 L 5542.109375 6746.875 L 3114.882813 6746.875 L 3114.882813 4319.609375 " transform="matrix(0.1,0,0,-0.1,0,800)"/>
<path style="fill:none;stroke-width:380;stroke-linecap:round;stroke-linejoin:round;stroke:rgb(0%,0%,0%);stroke-opacity:1;stroke-miterlimit:10;" d="M 2427.265625 3655.15625 C 2427.265625 4321.484375 2427.265625 4824.0625 2427.226563 4868.75 C 2427.265625 4717.070313 0 2441.523438 0 2441.523438 L 2427.265625 14.296875 C 2427.265625 14.296875 2427.265625 531.289063 2427.265625 1227.890625 L 4854.53125 1227.890625 L 4854.53125 3655.15625 " transform="matrix(0.1,0,0,-0.1,0,800)"/>
</g>
</svg>
