<?xml version="1.0" encoding="UTF-8"?>
<svg xmlns="http://www.w3.org/2000/svg" xmlns:xlink="http://www.w3.org/1999/xlink" width="799.29pt" height="596.1pt" viewBox="0 0 799.29 596.1" version="1.1">
<defs>
<clipPath id="clip1">
  <path d="M 85 101 L 799.289063 101 L 799.289063 191 L 85 191 Z M 85 101 "/>
</clipPath>
<clipPath id="clip2">
  <path d="M 85 279 L 799.289063 279 L 799.289063 596.101563 L 85 596.101563 Z M 85 279 "/>
</clipPath>
</defs>
<g id="surface1">
<g clip-path="url(#clip1)" clip-rule="nonzero">
<path style=" stroke:none;fill-rule:nonzero;fill:rgb(73.242188%,81.25%,68.943787%);fill-opacity:1;" d="M 85.296875 190.847656 L 845.835938 190.847656 L 845.835938 101.472656 L 85.296875 101.472656 Z M 85.296875 190.847656 "/>
</g>
<g clip-path="url(#clip2)" clip-rule="nonzero">
<path style=" stroke:none;fill-rule:nonzero;fill:rgb(73.242188%,81.25%,68.943787%);fill-opacity:1;" d="M 773.671875 520.046875 L 630.445313 520.046875 L 630.445313 405.6875 L 773.671875 405.6875 Z M 85.296875 596.101563 L 845.839844 596.101563 L 845.839844 279.117188 L 85.296875 279.117188 Z M 85.296875 596.101563 "/>
</g>
<path style="fill:none;stroke-width:380;stroke-linecap:round;stroke-linejoin:round;stroke:rgb(0%,0%,0%);stroke-opacity:1;stroke-miterlimit:10;" d="M 5911.015625 810.960938 L 190 810.960938 L 190 5760.53125 " transform="matrix(0.1,0,0,-0.1,0,596.1)"/>
<path style="fill:none;stroke-width:380;stroke-linecap:round;stroke-linejoin:round;stroke:rgb(0%,0%,0%);stroke-opacity:1;stroke-miterlimit:10;" d="M 207.539063 5771 L 7796.640625 5771 L 7796.640625 3092.523438 " transform="matrix(0.1,0,0,-0.1,0,596.1)"/>
<path style="fill:none;stroke-width:380;stroke-linecap:round;stroke-linejoin:round;stroke:rgb(0%,0%,0%);stroke-opacity:1;stroke-miterlimit:10;" d="M 270.429688 4926.234375 L 7796.640625 4926.234375 " transform="matrix(0.1,0,0,-0.1,0,596.1)"/>
<path style="fill:none;stroke-width:380;stroke-linecap:round;stroke-linejoin:round;stroke:rgb(0%,0%,0%);stroke-opacity:1;stroke-miterlimit:10;" d="M 270.429688 4033.070313 L 7796.640625 4033.070313 " transform="matrix(0.1,0,0,-0.1,0,596.1)"/>
<path style="fill:none;stroke-width:380;stroke-linecap:round;stroke-linejoin:round;stroke:rgb(0%,0%,0%);stroke-opacity:1;stroke-miterlimit:10;" d="M 898.164063 2128.578125 L 4308.75 2128.578125 L 4308.75 3041.742188 L 898.164063 3041.742188 Z M 898.164063 2128.578125 " transform="matrix(0.1,0,0,-0.1,0,596.1)"/>
<path style="fill:none;stroke-width:380;stroke-linecap:round;stroke-linejoin:round;stroke:rgb(0%,0%,0%);stroke-opacity:1;stroke-miterlimit:10;" d="M 5664.375 1572.015625 L 7070.742188 1572.015625 L 7070.742188 2746.390625 L 5664.375 2746.390625 Z M 5664.375 1572.015625 " transform="matrix(0.1,0,0,-0.1,0,596.1)"/>
</g>
</svg>
