<?xml version="1.0" encoding="UTF-8"?>
<svg xmlns="http://www.w3.org/2000/svg" xmlns:xlink="http://www.w3.org/1999/xlink" width="800pt" height="784.39pt" viewBox="0 0 800 784.39" version="1.1">
<defs>
<clipPath id="clip1">
  <path d="M 70 57 L 800 57 L 800 784.390625 L 70 784.390625 Z M 70 57 "/>
</clipPath>
</defs>
<g id="surface1">
<g clip-path="url(#clip1)" clip-rule="nonzero">
<path style=" stroke:none;fill-rule:nonzero;fill:rgb(90.625%,70.117188%,66.209412%);fill-opacity:1;" d="M 470.671875 625.078125 C 366.011719 625.078125 281.167969 540.234375 281.167969 435.574219 C 281.167969 330.914063 366.011719 246.070313 470.671875 246.070313 C 575.335938 246.070313 660.179688 330.914063 660.179688 435.574219 C 660.179688 540.234375 575.335938 625.078125 470.671875 625.078125 M 864.828125 213.332031 C 853.886719 168.371094 831.050781 130.683594 794.621094 102 C 746.535156 64.140625 691.589844 51.230469 631.414063 59.886719 C 599.472656 64.480469 570.488281 76.894531 544 95.203125 C 517.214844 113.71875 495.332031 137 477.390625 164.078125 C 475.207031 167.375 473.113281 170.734375 470.765625 174.398438 C 468.296875 170.566406 466.082031 167.015625 463.765625 163.535156 C 444.949219 135.296875 421.882813 111.257813 393.503906 92.480469 C 364.234375 73.113281 332.167969 61.496094 297.210938 58.128906 C 279.398438 56.414063 261.625 57.078125 243.925781 59.800781 C 213.742188 64.4375 185.632813 74.699219 160.464844 92.023438 C 104.367188 130.644531 75.324219 184.78125 71.277344 252.253906 C 69.402344 283.53125 72 314.738281 77.511719 345.660156 C 85.574219 390.925781 103.34375 431.96875 130.464844 469.039063 C 149.378906 494.886719 171.214844 518.101563 194.222656 540.265625 C 225.738281 570.621094 258.910156 599.132813 292 627.730469 C 352.0625 679.636719 411.734375 731.976563 469.277344 786.6875 C 469.761719 787.144531 470.308594 787.53125 470.839844 787.964844 C 471.457031 787.398438 471.921875 786.988281 472.375 786.5625 C 487.800781 772.183594 503.148438 757.71875 518.667969 743.4375 C 568.328125 697.746094 619.527344 653.800781 670.472656 609.566406 C 698.386719 585.328125 726.195313 560.976563 752.617188 535.089844 C 774.828125 513.328125 795.800781 490.488281 813.878906 465.09375 C 840.445313 427.78125 857.285156 386.488281 864.796875 341.355469 C 868.535156 318.90625 870.171875 296.28125 870.609375 273.535156 C 871.003906 253.222656 869.644531 233.113281 864.828125 213.332031 "/>
</g>
<path style="fill:none;stroke-width:380;stroke-linecap:round;stroke-linejoin:round;stroke:rgb(0%,0%,0%);stroke-opacity:1;stroke-miterlimit:10;" d="M 6048.671875 7650.853125 C 5905.039063 7656.673437 5757.851563 7648.548437 5607.421875 7626.86875 C 5288.007813 7580.93125 4998.164063 7456.790625 4733.28125 7273.704687 C 4465.390625 7088.548437 4246.5625 6855.735937 4067.1875 6584.99375 C 4045.3125 6551.985937 4024.414063 6518.43125 4000.9375 6481.751562 C 3976.210938 6520.110937 3954.0625 6555.579687 3930.898438 6590.384375 C 3742.773438 6872.767187 3512.109375 7113.196875 3228.28125 7300.93125 C 2935.585938 7494.603125 2614.960938 7610.775 2265.351563 7644.446875 C 2087.226563 7661.634375 1909.53125 7654.954687 1732.539063 7627.767187 C 1430.703125 7581.360937 1149.609375 7478.74375 897.929688 7305.501562 C 336.953125 6919.290625 46.523438 6377.923437 6.054688 5703.196875 C -12.695313 5390.423437 13.28125 5078.353125 68.359375 4769.134375 C 149.023438 4316.517187 326.679688 3906.0875 597.929688 3535.345312 C 787.03125 3276.907812 1005.429688 3044.759375 1235.507813 2823.11875 C 1550.664063 2519.525 1882.34375 2234.407812 2213.28125 1948.470312 C 2813.90625 1429.407812 3410.585938 906.009375 3986.054688 358.9 C 3990.859375 354.329687 3996.328125 350.423437 4001.640625 346.0875 C 4007.851563 351.751562 4012.460938 355.892187 4016.992188 360.110937 C 4171.289063 503.9 4324.765625 648.5875 4479.960938 791.360937 C 4976.5625 1248.275 5488.554688 1687.728125 5998.007813 2130.110937 C 6277.148438 2372.454687 6555.234375 2616.009375 6819.414063 2874.8375 C 7041.5625 3092.454687 7251.25 3320.892187 7432.03125 3574.798437 C 7697.695313 3947.9625 7866.132813 4280.853125 7941.25 4732.220312 " transform="matrix(0.1,0,0,-0.1,0,784.39)"/>
<path style="fill:none;stroke-width:380;stroke-linecap:round;stroke-linejoin:round;stroke:rgb(0%,0%,0%);stroke-opacity:1;stroke-miterlimit:10;" d="M 4021.953125 2639.876562 L 4021.953125 5139.876562 " transform="matrix(0.1,0,0,-0.1,0,784.39)"/>
<path style="fill:none;stroke-width:380;stroke-linecap:round;stroke-linejoin:round;stroke:rgb(0%,0%,0%);stroke-opacity:1;stroke-miterlimit:10;" d="M 2771.953125 3889.876562 L 5271.953125 3889.876562 " transform="matrix(0.1,0,0,-0.1,0,784.39)"/>
<path style="fill:none;stroke-width:380;stroke-linecap:round;stroke-linejoin:round;stroke:rgb(0%,0%,0%);stroke-opacity:1;stroke-miterlimit:10;" d="M 2101.5625 3882.064062 C 2102.421875 2845.15 2956.953125 1979.2125 4001.171875 1993.196875 C 5026.875 1982.18125 5895.390625 2832.415625 5901.523438 3871.360937 C 5907.8125 4933.782812 5043.984375 5791.126562 3985.898438 5788.821875 " transform="matrix(0.1,0,0,-0.1,0,784.39)"/>
</g>
</svg>
