<?xml version="1.0" encoding="UTF-8"?>
<svg xmlns="http://www.w3.org/2000/svg" xmlns:xlink="http://www.w3.org/1999/xlink" width="800pt" height="800pt" viewBox="0 0 800 800" version="1.1">
<g id="surface1">
<path style=" stroke:none;fill-rule:nonzero;fill:rgb(59.179688%,63.476563%,70.506287%);fill-opacity:1;" d="M 869.152344 339.886719 C 869.152344 561.070313 689.847656 740.375 468.664063 740.375 C 247.480469 740.375 68.175781 561.070313 68.175781 339.886719 C 68.175781 118.703125 247.480469 -60.601563 468.664063 -60.601563 C 689.847656 -60.601563 869.152344 118.703125 869.152344 339.886719 "/>
<path style="fill:none;stroke-width:380;stroke-linecap:round;stroke-linejoin:round;stroke:rgb(0%,0%,0%);stroke-opacity:1;stroke-miterlimit:10;" d="M 4013.828125 7791.796875 C 5219.453125 7258.867188 6087.773438 5762.578125 6087.773438 4000 C 6087.773438 1978.945313 4946.132813 307.96875 3463.320313 38.085938 " transform="matrix(0.1,0,0,-0.1,0,800)"/>
<path style="fill:none;stroke-width:380;stroke-linecap:round;stroke-linejoin:round;stroke:rgb(0%,0%,0%);stroke-opacity:1;stroke-miterlimit:10;" d="M 4555.039063 35.625 C 3065.46875 297.539063 1916.679688 1972.617188 1916.679688 4000 C 1916.679688 5772.03125 2794.335938 7274.960938 4010.117188 7800.3125 " transform="matrix(0.1,0,0,-0.1,0,800)"/>
<path style="fill:none;stroke-width:380;stroke-linecap:round;stroke-linejoin:round;stroke:rgb(0%,0%,0%);stroke-opacity:1;stroke-miterlimit:10;" d="M 996.054688 1345.15625 C 1729.101563 1979.648438 2803.164063 2380 4000 2380 C 5174.257813 2380 6230.351563 1994.609375 6962.109375 1380.78125 " transform="matrix(0.1,0,0,-0.1,0,800)"/>
<path style="fill:none;stroke-width:380;stroke-linecap:round;stroke-linejoin:round;stroke:rgb(0%,0%,0%);stroke-opacity:1;stroke-miterlimit:10;" d="M 150 3983.320313 L 7850 3983.320313 " transform="matrix(0.1,0,0,-0.1,0,800)"/>
<path style="fill:none;stroke-width:380;stroke-linecap:round;stroke-linejoin:round;stroke:rgb(0%,0%,0%);stroke-opacity:1;stroke-miterlimit:10;" d="M 4000 7991.015625 C 4000 7952.148438 4000.039063 161.015625 4000.039063 161.015625 " transform="matrix(0.1,0,0,-0.1,0,800)"/>
<path style="fill:none;stroke-width:380;stroke-linecap:round;stroke-linejoin:round;stroke:rgb(0%,0%,0%);stroke-opacity:1;stroke-miterlimit:10;" d="M 996.015625 6358.242188 C 1727.8125 5744.453125 2783.867188 5359.0625 3958.125 5359.0625 C 5061.484375 5359.0625 6060.46875 5699.296875 6784.140625 6249.570313 C 6889.921875 6330 6986.5625 6421.796875 7074.140625 6521.640625 L 7090.351563 6540.117188 C 8401.09375 4949.257813 8295.3125 2582.8125 6772.96875 1117.148438 C 5196.210938 -400.898438 2678.398438 -363.554688 1145.039063 1198.359375 C -390.46875 2762.460938 -381.640625 5275.234375 1171.5625 6828.4375 C 1952.617188 7609.492188 2976.289063 8000 4000 8000 C 4693.164063 8000 5386.328125 7820.9375 6004.179688 7462.8125 " transform="matrix(0.1,0,0,-0.1,0,800)"/>
</g>
</svg>
