<?xml version="1.0" encoding="UTF-8"?>
<svg xmlns="http://www.w3.org/2000/svg" xmlns:xlink="http://www.w3.org/1999/xlink" width="799.08pt" height="800pt" viewBox="0 0 799.08 800" version="1.1">
<defs>
<clipPath id="clip1">
  <path d="M 512 89 L 799.078125 89 L 799.078125 366 L 512 366 Z M 512 89 "/>
</clipPath>
</defs>
<g id="surface1">
<path style=" stroke:none;fill-rule:nonzero;fill:rgb(59.179688%,63.476563%,70.506287%);fill-opacity:1;" d="M 88.140625 735.523438 L 182.777344 735.523438 L 182.777344 505.332031 L 88.140625 505.332031 Z M 88.140625 735.523438 "/>
<path style=" stroke:none;fill-rule:nonzero;fill:rgb(98.826599%,89.0625%,67.771912%);fill-opacity:1;" d="M 708.054688 508.082031 C 708.054688 472.179688 677.027344 472.621094 677.027344 472.621094 L 532.085938 472.621094 C 555.578125 410.121094 552.914063 287.339844 493.078125 287.339844 C 445.339844 287.339844 450.441406 349.394531 452.941406 374.5 C 453.644531 381.597656 452.253906 388.738281 448.941406 395.054688 C 435.390625 420.902344 396.8125 486.976563 394.675781 487.691406 C 392.214844 488.511719 329.082031 519.617188 320.003906 524.328125 L 320.003906 710.207031 L 378.273438 710.207031 L 414.621094 740.347656 L 632.753906 740.347656 C 632.753906 740.347656 662.84375 741.675781 662.84375 705.773438 C 662.84375 690.699219 657.371094 682.03125 651.027344 677.046875 L 598.128906 673.859375 L 654.027344 673.859375 C 654.027344 673.859375 684.121094 675.1875 684.121094 639.285156 C 684.121094 625.820313 679.757813 617.46875 674.300781 612.285156 L 611.425781 610.914063 L 667.328125 610.914063 C 667.328125 610.914063 697.417969 612.246094 697.417969 576.34375 C 697.417969 555.960938 687.417969 547.292969 678.773438 543.605469 L 622.0625 542.65625 L 677.964844 542.65625 C 677.964844 542.65625 708.054688 543.984375 708.054688 508.082031 "/>
<path style=" stroke:none;fill-rule:nonzero;fill:rgb(98.826599%,89.0625%,67.771912%);fill-opacity:1;" d="M 141.652344 37.429688 L 170.945313 127.585938 L 265.742188 127.585938 L 189.050781 183.308594 L 218.34375 273.464844 L 141.652344 217.742188 L 64.964844 273.464844 L 94.257813 183.308594 L 17.566406 127.585938 L 112.359375 127.585938 "/>
<path style=" stroke:none;fill-rule:nonzero;fill:rgb(98.826599%,89.0625%,67.771912%);fill-opacity:1;" d="M 657.074219 37.429688 L 686.367188 127.585938 L 781.164063 127.585938 L 704.472656 183.308594 L 733.765625 273.464844 L 657.074219 217.742188 L 580.382813 273.464844 L 609.675781 183.308594 L 532.984375 127.585938 L 627.78125 127.585938 "/>
<path style=" stroke:none;fill-rule:nonzero;fill:rgb(98.826599%,89.0625%,67.771912%);fill-opacity:1;" d="M 398.625 -58.042969 L 427.917969 32.113281 L 522.714844 32.113281 L 446.023438 87.835938 L 475.316406 177.992188 L 398.625 122.269531 L 321.933594 177.992188 L 351.226563 87.835938 L 274.535156 32.113281 L 369.332031 32.113281 "/>
<path style="fill:none;stroke-width:380;stroke-linecap:round;stroke-linejoin:round;stroke:rgb(0%,0%,0%);stroke-opacity:1;stroke-miterlimit:10;" d="M 2309.609375 2425.859375 C 2309.609375 2425.859375 3039.84375 2804.84375 3067.578125 2814.0625 C 3089.84375 2821.523438 3492.109375 3510.507813 3633.398438 3779.960938 C 3667.929688 3845.820313 3682.460938 3920.273438 3675.078125 3994.296875 C 3649.0625 4256.054688 3595.859375 4903.085938 4093.59375 4903.085938 C 4717.539063 4903.085938 4745.234375 3622.890625 4500.273438 2971.210938 L 6011.601563 2971.210938 C 6011.601563 2971.210938 6335.117188 2975.859375 6335.117188 2601.484375 C 6335.117188 2227.109375 6021.367188 2240.976563 6021.367188 2240.976563 " transform="matrix(0.1,0,0,-0.1,0,800)"/>
<path style="fill:none;stroke-width:380;stroke-linecap:round;stroke-linejoin:round;stroke:rgb(0%,0%,0%);stroke-opacity:1;stroke-miterlimit:10;" d="M 6029.804688 2231.054688 C 6119.960938 2192.617188 6224.21875 2102.265625 6224.21875 1889.726563 C 6224.21875 1515.390625 5910.429688 1529.21875 5910.429688 1529.21875 " transform="matrix(0.1,0,0,-0.1,0,800)"/>
<path style="fill:none;stroke-width:380;stroke-linecap:round;stroke-linejoin:round;stroke:rgb(0%,0%,0%);stroke-opacity:1;stroke-miterlimit:10;" d="M 5983.164063 1514.960938 C 6040.039063 1460.9375 6085.546875 1373.828125 6085.546875 1233.4375 C 6085.546875 859.101563 5771.796875 872.96875 5771.796875 872.96875 " transform="matrix(0.1,0,0,-0.1,0,800)"/>
<path style="fill:none;stroke-width:380;stroke-linecap:round;stroke-linejoin:round;stroke:rgb(0%,0%,0%);stroke-opacity:1;stroke-miterlimit:10;" d="M 3275.546875 179.6875 L 2896.5625 493.984375 L 2258.75 493.984375 " transform="matrix(0.1,0,0,-0.1,0,800)"/>
<path style="fill:none;stroke-width:380;stroke-linecap:round;stroke-linejoin:round;stroke:rgb(0%,0%,0%);stroke-opacity:1;stroke-miterlimit:10;" d="M 5740.507813 839.6875 C 5806.679688 787.734375 5863.710938 697.382813 5863.710938 540.195313 C 5863.710938 165.820313 5549.960938 179.6875 5549.960938 179.6875 " transform="matrix(0.1,0,0,-0.1,0,800)"/>
<path style="fill:none;stroke-width:380;stroke-linecap:round;stroke-linejoin:round;stroke:rgb(0%,0%,0%);stroke-opacity:1;stroke-miterlimit:10;" d="M 1803.789063 2756.09375 L 2233.28125 2756.09375 L 2233.28125 367.148438 L 1335.117188 367.148438 L 1335.117188 2280.976563 " transform="matrix(0.1,0,0,-0.1,0,800)"/>
<path style="fill:none;stroke-width:380;stroke-linecap:round;stroke-linejoin:round;stroke:rgb(0%,0%,0%);stroke-opacity:1;stroke-miterlimit:10;" d="M 4472.65625 6360.546875 L 4767.734375 5452.382813 L 3995.195313 6013.632813 L 3222.65625 5452.382813 L 3517.734375 6360.546875 L 2745.195313 6921.835938 L 3700.117188 6921.835938 L 3995.195313 7830 L 4290.273438 6921.835938 L 5245.195313 6921.835938 " transform="matrix(0.1,0,0,-0.1,0,800)"/>
<g clip-path="url(#clip1)" clip-rule="nonzero">
<path style="fill:none;stroke-width:380;stroke-linecap:round;stroke-linejoin:round;stroke:rgb(0%,0%,0%);stroke-opacity:1;stroke-miterlimit:10;" d="M 7037.5 5446.289063 L 7332.578125 4538.125 L 6560.039063 5099.414063 L 5787.5 4538.125 L 6082.578125 5446.289063 L 5310.039063 6007.578125 L 6264.960938 6007.578125 L 6560.039063 6915.742188 L 6855.117188 6007.578125 L 7810.039063 6007.578125 " transform="matrix(0.1,0,0,-0.1,0,800)"/>
</g>
<path style="fill:none;stroke-width:380;stroke-linecap:round;stroke-linejoin:round;stroke:rgb(0%,0%,0%);stroke-opacity:1;stroke-miterlimit:10;" d="M 1917.460938 5446.289063 L 2212.539063 4538.125 L 1440 5099.414063 L 667.460938 4538.125 L 962.539063 5446.289063 L 190 6007.578125 L 1144.921875 6007.578125 L 1440 6915.742188 L 1735.078125 6007.578125 L 2690 6007.578125 " transform="matrix(0.1,0,0,-0.1,0,800)"/>
</g>
</svg>
