<?xml version="1.0" encoding="UTF-8"?>
<svg xmlns="http://www.w3.org/2000/svg" xmlns:xlink="http://www.w3.org/1999/xlink" width="800pt" height="778.84pt" viewBox="0 0 800 778.84" version="1.1">
<defs>
<clipPath id="clip1">
  <path d="M 0 10 L 800 10 L 800 778.839844 L 0 778.839844 Z M 0 10 "/>
</clipPath>
</defs>
<g id="surface1">
<path style=" stroke:none;fill-rule:nonzero;fill:rgb(90.625%,70.117188%,66.209412%);fill-opacity:1;" d="M 738.230469 156.140625 C 727.289063 111.183594 704.453125 73.492188 668.023438 44.808594 C 619.9375 6.949219 564.992188 -5.960938 504.816406 2.695313 C 472.875 7.289063 443.890625 19.703125 417.402344 38.015625 C 390.617188 56.527344 368.734375 79.808594 350.792969 106.886719 C 348.609375 110.183594 346.515625 113.542969 344.167969 117.210938 C 341.699219 113.375 339.484375 109.824219 337.164063 106.347656 C 318.355469 78.105469 295.285156 54.066406 266.90625 35.289063 C 237.636719 15.925781 205.570313 4.304688 170.609375 0.9375 C 152.796875 -0.777344 135.027344 -0.113281 117.328125 2.609375 C 87.144531 7.246094 59.035156 17.507813 33.867188 34.832031 C -22.230469 73.453125 -51.273438 127.589844 -55.320313 195.0625 C -57.195313 226.339844 -54.597656 257.546875 -49.085938 288.46875 C -41.023438 333.734375 -23.253906 374.777344 3.867188 411.847656 C 22.78125 437.695313 44.617188 460.910156 67.625 483.074219 C 99.140625 513.429688 132.3125 541.941406 165.402344 570.539063 C 225.464844 622.441406 285.136719 674.785156 342.683594 729.496094 C 343.164063 729.953125 343.710938 730.339844 344.242188 730.773438 C 344.859375 730.207031 345.324219 729.796875 345.777344 729.371094 C 361.203125 714.992188 376.550781 700.527344 392.070313 686.246094 C 441.730469 640.558594 492.929688 596.609375 543.875 552.375 C 571.789063 528.136719 599.601563 503.785156 626.019531 477.898438 C 648.230469 456.136719 669.203125 433.296875 687.28125 407.902344 C 713.847656 370.589844 730.6875 329.296875 738.199219 284.164063 C 741.9375 261.714844 743.574219 239.089844 744.011719 216.34375 C 744.40625 196.03125 743.046875 175.921875 738.230469 156.140625 "/>
<path style="fill:none;stroke-width:380;stroke-linecap:round;stroke-linejoin:round;stroke:rgb(0%,0%,0%);stroke-opacity:1;stroke-miterlimit:10;" d="M 2338.75 3335.509375 L 1443.710938 5889.18125 L 877.5 4554.571875 L 203.046875 4559.610937 " transform="matrix(0.1,0,0,-0.1,0,778.84)"/>
<g clip-path="url(#clip1)" clip-rule="nonzero">
<path style="fill:none;stroke-width:380;stroke-linecap:round;stroke-linejoin:round;stroke:rgb(0%,0%,0%);stroke-opacity:1;stroke-miterlimit:10;" d="M 6048.671875 7494.728125 C 5905.039063 7500.5875 5757.851563 7492.423437 5607.421875 7470.782812 C 5288.007813 7424.845312 4998.164063 7300.704687 4733.28125 7117.61875 C 4465.390625 6932.4625 4246.5625 6699.65 4067.1875 6428.86875 C 4045.3125 6395.9 4024.414063 6362.30625 4000.9375 6325.626562 C 3976.210938 6363.985937 3954.0625 6399.49375 3930.898438 6434.259375 C 3742.773438 6716.642187 3512.109375 6957.071875 3228.28125 7144.845312 C 2935.585938 7338.478125 2614.960938 7454.689062 2265.351563 7488.360937 C 2087.226563 7505.509375 1909.53125 7498.86875 1732.539063 7471.642187 C 1430.703125 7425.275 1149.609375 7322.657812 897.929688 7149.415625 C 336.953125 6763.204687 46.523438 6221.8375 6.054688 5547.110937 C -12.695313 5234.3375 13.28125 4922.267187 68.359375 4613.048437 C 149.023438 4160.392187 326.679688 3749.9625 597.929688 3379.259375 C 787.03125 3120.782812 1005.429688 2888.634375 1235.507813 2666.99375 C 1550.664063 2363.439062 1882.34375 2078.282812 2213.28125 1792.345312 C 2813.90625 1273.282812 3410.585938 749.884375 3986.054688 202.775 C 3990.859375 198.204687 3996.328125 194.3375 4001.640625 190.001562 C 4007.851563 195.665625 4012.460938 199.767187 4016.992188 204.025 C 4171.289063 347.814062 4324.765625 492.4625 4479.960938 635.275 C 4976.5625 1092.189062 5488.554688 1531.642187 5998.007813 1973.985937 C 6277.148438 2216.36875 6555.234375 2459.884375 6819.414063 2718.7125 C 7041.5625 2936.36875 7251.25 3164.767187 7432.03125 3418.7125 C 7697.695313 3791.8375 7866.09375 4124.767187 7941.25 4576.095312 L 6338.90625 4576.095312 L 5930.429688 3647.501562 L 5226.015625 5836.798437 L 4476.679688 2510.470312 L 4046.679688 4590.548437 L 2907.34375 4590.548437 " transform="matrix(0.1,0,0,-0.1,0,778.84)"/>
</g>
</g>
</svg>
