<?xml version="1.0" encoding="UTF-8"?>
<svg xmlns="http://www.w3.org/2000/svg" xmlns:xlink="http://www.w3.org/1999/xlink" width="800pt" height="614.27pt" viewBox="0 0 800 614.27" version="1.1">
<defs>
<clipPath id="clip1">
  <path d="M 107 386 L 433 386 L 433 614.269531 L 107 614.269531 Z M 107 386 "/>
</clipPath>
</defs>
<g id="surface1">
<path style=" stroke:none;fill-rule:nonzero;fill:rgb(90.625%,70.117188%,66.209412%);fill-opacity:1;" d="M -57.351563 331.203125 L 70.03125 331.203125 L 70.03125 0.00390625 L -57.351563 0.00390625 Z M -57.351563 331.203125 "/>
<path style=" stroke:none;fill-rule:nonzero;fill:rgb(59.179688%,63.476563%,70.506287%);fill-opacity:1;" d="M 720.859375 606.949219 L 848.246094 606.949219 L 848.246094 275.75 L 720.859375 275.75 Z M 720.859375 606.949219 "/>
<path style=" stroke:none;fill-rule:nonzero;fill:rgb(98.826599%,89.0625%,67.771912%);fill-opacity:1;" d="M 135.144531 46.496094 C 135.144531 46.496094 310.570313 53.714844 313.898438 54.265625 C 317.230469 54.824219 382.183594 -16.234375 567.042969 92.015625 C 567.042969 92.015625 650.3125 42.054688 684.734375 50.9375 L 684.734375 295.199219 L 624.777344 338.5 C 624.777344 338.5 647.539063 417.328125 580.367188 415.105469 C 580.367188 415.105469 585.917969 460.074219 509.308594 452.855469 C 509.308594 452.855469 470.449219 497.824219 417.15625 466.179688 C 417.15625 466.179688 364.417969 498.378906 321.671875 460.628906 C 278.925781 422.878906 132.925781 290.757813 132.925781 290.757813 "/>
<path style="fill:none;stroke-width:380;stroke-linecap:round;stroke-linejoin:round;stroke:rgb(0%,0%,0%);stroke-opacity:1;stroke-miterlimit:10;" d="M 648.085938 4872.192188 L 1241.992188 4872.192188 L 1241.992188 1568.754688 L 0 1568.754688 L 0 4215.239063 " transform="matrix(0.1,0,0,-0.1,0,614.27)"/>
<path style="fill:none;stroke-width:380;stroke-linecap:round;stroke-linejoin:round;stroke:rgb(0%,0%,0%);stroke-opacity:1;stroke-miterlimit:10;" d="M 7351.914063 1568.754688 L 6758.007813 1568.754688 L 6758.007813 4872.23125 L 8000 4872.23125 L 8000 2225.746875 " transform="matrix(0.1,0,0,-0.1,0,614.27)"/>
<g clip-path="url(#clip1)" clip-rule="nonzero">
<path style="fill:none;stroke-width:380;stroke-linecap:round;stroke-linejoin:round;stroke:rgb(0%,0%,0%);stroke-opacity:1;stroke-miterlimit:10;" d="M 1263.632813 2085.278125 C 1282.148438 2066.723438 2390.9375 1032.778125 3168.789063 366.098438 C 3447.109375 127.54375 3858.90625 131.840625 4132.265625 376.098438 " transform="matrix(0.1,0,0,-0.1,0,614.27)"/>
</g>
<path style="fill:none;stroke-width:380;stroke-linecap:round;stroke-linejoin:round;stroke:rgb(0%,0%,0%);stroke-opacity:1;stroke-miterlimit:10;" d="M 4132.265625 376.098438 C 4132.265625 376.098438 4660.429688 56.1375 5015.9375 518.285938 C 5015.9375 518.285938 5640.585938 371.020313 5747.226563 873.79375 C 5747.226563 873.79375 6382.03125 843.325 6158.59375 1569.535938 C 5935.15625 2295.785938 4025.585938 3636.528125 4025.585938 3611.1375 C 4025.585938 3585.746875 3746.289063 3489.223438 3487.265625 3458.754688 C 3487.265625 3458.754688 3040.351563 2600.473438 2623.90625 2940.746875 C 2207.460938 3281.020313 2649.296875 5119.457813 4462.34375 4576.059375 L 5641.054688 4074.575 C 5681.679688 4054.223438 6137.695313 4498.051563 6706.523438 4498.051563 " transform="matrix(0.1,0,0,-0.1,0,614.27)"/>
<path style="fill:none;stroke-width:380;stroke-linecap:round;stroke-linejoin:round;stroke:rgb(0%,0%,0%);stroke-opacity:1;stroke-miterlimit:10;" d="M 6158.59375 1569.535938 L 6745.46875 2156.410938 " transform="matrix(0.1,0,0,-0.1,0,614.27)"/>
<path style="fill:none;stroke-width:380;stroke-linecap:round;stroke-linejoin:round;stroke:rgb(0%,0%,0%);stroke-opacity:1;stroke-miterlimit:10;" d="M 3069.726563 4459.028125 C 3069.726563 4459.028125 1771.992188 4546.840625 1294.609375 4516.371875 " transform="matrix(0.1,0,0,-0.1,0,614.27)"/>
</g>
</svg>
