<?xml version="1.0" encoding="UTF-8"?>
<svg xmlns="http://www.w3.org/2000/svg" xmlns:xlink="http://www.w3.org/1999/xlink" width="659.42pt" height="800pt" viewBox="0 0 659.42 800" version="1.1">
<defs>
<clipPath id="clip1">
  <path d="M 141 221 L 659.421875 221 L 659.421875 739 L 141 739 Z M 141 221 "/>
</clipPath>
</defs>
<g id="surface1">
<path style=" stroke:none;fill-rule:nonzero;fill:rgb(98.826599%,89.0625%,67.771912%);fill-opacity:1;" d="M 614.648438 275.296875 C 575.609375 176.292969 490.558594 -18.414063 490.558594 -18.414063 L 118.226563 -18.414063 L 0 264.128906 C 79.167969 190.820313 185.089844 145.992188 301.496094 145.992188 C 423.707031 145.992188 534.378906 195.390625 614.648438 275.296875 "/>
<g clip-path="url(#clip1)" clip-rule="nonzero">
<path style=" stroke:none;fill-rule:nonzero;fill:rgb(90.625%,70.117188%,66.209412%);fill-opacity:1;" d="M 659.417969 479.78125 C 659.417969 622.683594 543.574219 738.527344 400.671875 738.527344 C 257.769531 738.527344 141.921875 622.683594 141.921875 479.78125 C 141.921875 336.878906 257.769531 221.03125 400.671875 221.03125 C 543.574219 221.03125 659.417969 336.878906 659.417969 479.78125 "/>
</g>
<path style="fill:none;stroke-width:380;stroke-linecap:round;stroke-linejoin:round;stroke:rgb(0%,0%,0%);stroke-opacity:1;stroke-miterlimit:10;" d="M 3069.101563 6701.953125 C 4586.445313 6701.953125 5816.484375 5471.914063 5816.484375 3954.570313 C 5816.484375 2437.226563 4586.445313 1207.1875 3069.101563 1207.1875 C 1551.796875 1207.1875 321.71875 2437.226563 321.71875 3954.570313 C 321.71875 4277.8125 377.539063 4588.007813 480.078125 4876.09375 " transform="matrix(0.1,0,0,-0.1,0,800)"/>
<path style="fill:none;stroke-width:380;stroke-linecap:round;stroke-linejoin:round;stroke:rgb(0%,0%,0%);stroke-opacity:1;stroke-miterlimit:10;" d="M 1157.578125 1904.921875 C 1164.84375 1759.570313 1898.945313 189.648438 1898.945313 189.648438 L 4203.398438 189.648438 L 4918.28125 1916.40625 " transform="matrix(0.1,0,0,-0.1,0,800)"/>
<path style="fill:none;stroke-width:380;stroke-linecap:round;stroke-linejoin:round;stroke:rgb(0%,0%,0%);stroke-opacity:1;stroke-miterlimit:10;" d="M 4239.296875 3685.625 L 2901.953125 3685.625 L 2901.953125 5285.546875 " transform="matrix(0.1,0,0,-0.1,0,800)"/>
<path style="fill:none;stroke-width:380;stroke-linecap:round;stroke-linejoin:round;stroke:rgb(0%,0%,0%);stroke-opacity:1;stroke-miterlimit:10;" d="M 1072.695313 2046.640625 C 1354.804688 1367.5 1898.945313 189.648438 1898.945313 189.648438 L 4203.4375 189.648438 L 4918.28125 1916.40625 " transform="matrix(0.1,0,0,-0.1,0,800)"/>
<path style="fill:none;stroke-width:380;stroke-linecap:round;stroke-linejoin:round;stroke:rgb(0%,0%,0%);stroke-opacity:1;stroke-miterlimit:10;" d="M 5013.320313 5906.484375 C 4743.359375 6568.90625 4176.953125 7809.609375 4176.953125 7809.609375 L 1872.460938 7809.609375 L 1624.648438 7211.015625 " transform="matrix(0.1,0,0,-0.1,0,800)"/>
</g>
</svg>
