<?xml version="1.0" encoding="UTF-8"?>
<svg xmlns="http://www.w3.org/2000/svg" xmlns:xlink="http://www.w3.org/1999/xlink" width="799.77pt" height="795.52pt" viewBox="0 0 799.77 795.52" version="1.1">
<defs>
<clipPath id="clip1">
  <path d="M 0 212 L 556 212 L 556 795.519531 L 0 795.519531 Z M 0 212 "/>
</clipPath>
<clipPath id="clip2">
  <path d="M 627 107 L 799.769531 107 L 799.769531 589 L 627 589 Z M 627 107 "/>
</clipPath>
</defs>
<g id="surface1">
<path style=" stroke:none;fill-rule:nonzero;fill:rgb(98.826599%,89.0625%,67.771912%);fill-opacity:1;" d="M 200.507813 421.425781 L 586.828125 421.425781 L 721.199219 540.28125 L 721.199219 -7.382813 L 200.507813 -7.382813 L 200.507813 98.867188 "/>
<path style=" stroke:none;fill-rule:nonzero;fill:rgb(73.242188%,81.25%,68.943787%);fill-opacity:1;" d="M 474.226563 637.308594 L 87.902344 637.308594 L -46.46875 756.167969 L -46.46875 208.503906 L 474.226563 208.503906 "/>
<g clip-path="url(#clip1)" clip-rule="nonzero">
<path style="fill:none;stroke-width:380;stroke-linecap:round;stroke-linejoin:round;stroke:rgb(0%,0%,0%);stroke-opacity:1;stroke-miterlimit:10;" d="M 3957.851563 5643.442187 L 5363.632813 5643.442187 L 5363.632813 1373.559375 L 1516.757813 1373.559375 L 178.710938 190.004687 L 178.710938 5643.442187 L 1669.414063 5643.442187 " transform="matrix(0.1,0,0,-0.1,0,795.52)"/>
</g>
<g clip-path="url(#clip2)" clip-rule="nonzero">
<path style="fill:none;stroke-width:380;stroke-linecap:round;stroke-linejoin:round;stroke:rgb(0%,0%,0%);stroke-opacity:1;stroke-miterlimit:10;" d="M 6469.648438 3446.996875 L 7807.65625 2263.442187 L 7807.65625 6690.5125 " transform="matrix(0.1,0,0,-0.1,0,795.52)"/>
</g>
<path style="fill:none;stroke-width:380;stroke-linecap:round;stroke-linejoin:round;stroke:rgb(0%,0%,0%);stroke-opacity:1;stroke-miterlimit:10;" d="M 6979.257813 7716.91875 L 2622.734375 7716.91875 L 2622.734375 6658.910937 " transform="matrix(0.1,0,0,-0.1,0,795.52)"/>
<path style="fill:none;stroke-width:380;stroke-linecap:round;stroke-linejoin:round;stroke:rgb(0%,0%,0%);stroke-opacity:1;stroke-miterlimit:10;" d="M 1567.265625 3886.528125 L 3947.695313 3886.528125 " transform="matrix(0.1,0,0,-0.1,0,795.52)"/>
<path style="fill:none;stroke-width:380;stroke-linecap:round;stroke-linejoin:round;stroke:rgb(0%,0%,0%);stroke-opacity:1;stroke-miterlimit:10;" d="M 1567.265625 2825.5125 L 3947.695313 2825.5125 " transform="matrix(0.1,0,0,-0.1,0,795.52)"/>
</g>
</svg>
