<?xml version="1.0" encoding="UTF-8"?>
<svg xmlns="http://www.w3.org/2000/svg" xmlns:xlink="http://www.w3.org/1999/xlink" width="720.19pt" height="800pt" viewBox="0 0 720.19 800" version="1.1">
<defs>
<clipPath id="clip1">
  <path d="M 480 46 L 720.191406 46 L 720.191406 422 L 480 422 Z M 480 46 "/>
</clipPath>
</defs>
<g id="surface1">
<path style=" stroke:none;fill-rule:nonzero;fill:rgb(90.625%,70.117188%,66.209412%);fill-opacity:1;" d="M 219.132813 842.050781 L 633.25 842.050781 L 633.25 724.933594 L 219.132813 724.933594 Z M 219.132813 842.050781 "/>
<path style=" stroke:none;fill-rule:nonzero;fill:rgb(98.826599%,89.0625%,67.771912%);fill-opacity:1;" d="M 341.675781 469.863281 C 443.625 425.164063 520.574219 223.144531 520.574219 -19.324219 C 520.574219 -23.003906 520.550781 -26.671875 520.515625 -30.328125 L 77.605469 -30.328125 C 77.570313 -26.671875 77.546875 -23.003906 77.546875 -19.324219 C 77.546875 220.15625 152.613281 420.179688 252.695313 468.140625 C 251.9375 485.480469 243.0625 587.59375 139.242188 603.890625 L 139.242188 653.214844 L 455.039063 653.214844 L 455.039063 603.890625 C 354.25 588.070313 342.941406 491.367188 341.675781 469.863281 "/>
<path style="fill:none;stroke-width:380;stroke-linecap:round;stroke-linejoin:round;stroke:rgb(0%,0%,0%);stroke-opacity:1;stroke-miterlimit:10;" d="M 1388.515625 8011.484375 C 1388.164063 7974.882813 1387.929688 7938.203125 1387.929688 7901.40625 C 1387.929688 5148.789063 2379.6875 2917.304688 3603.085938 2917.304688 C 4826.445313 2917.304688 5818.242188 5148.789063 5818.242188 7901.40625 C 5818.242188 7938.203125 5817.96875 7974.882813 5817.617188 8011.484375 Z M 1388.515625 8011.484375 " transform="matrix(0.1,0,0,-0.1,0,800)"/>
<path style="fill:none;stroke-width:380;stroke-linecap:round;stroke-linejoin:round;stroke:rgb(0%,0%,0%);stroke-opacity:1;stroke-miterlimit:10;" d="M 5153.554688 1182.65625 L 5153.554688 1675.898438 " transform="matrix(0.1,0,0,-0.1,0,800)"/>
<path style="fill:none;stroke-width:380;stroke-linecap:round;stroke-linejoin:round;stroke:rgb(0%,0%,0%);stroke-opacity:1;stroke-miterlimit:10;" d="M 3130.859375 2968.59375 C 3130.859375 2968.59375 3130.859375 1854.101563 1995.585938 1675.898438 L 1995.585938 1182.65625 " transform="matrix(0.1,0,0,-0.1,0,800)"/>
<g clip-path="url(#clip1)" clip-rule="nonzero">
<path style="fill:none;stroke-width:380;stroke-linecap:round;stroke-linejoin:round;stroke:rgb(0%,0%,0%);stroke-opacity:1;stroke-miterlimit:10;" d="M 5802.851563 7340.703125 L 6423.476563 7340.703125 C 6801.835938 7340.703125 7082.734375 6988.242188 6996.171875 6619.921875 C 6795.039063 5763.789063 6279.257813 4398.28125 4999.84375 3976.445313 " transform="matrix(0.1,0,0,-0.1,0,800)"/>
</g>
<path style="fill:none;stroke-width:380;stroke-linecap:round;stroke-linejoin:round;stroke:rgb(0%,0%,0%);stroke-opacity:1;stroke-miterlimit:10;" d="M 1399.101563 7340.703125 L 778.476563 7340.703125 C 400.117188 7340.703125 119.21875 6988.242188 205.742188 6619.921875 C 406.914063 5763.789063 922.695313 4398.28125 2202.109375 3976.445313 " transform="matrix(0.1,0,0,-0.1,0,800)"/>
<path style="fill:none;stroke-width:380;stroke-linecap:round;stroke-linejoin:round;stroke:rgb(0%,0%,0%);stroke-opacity:1;stroke-miterlimit:10;" d="M 3544.804688 11.484375 L 1503.984375 11.484375 L 1503.984375 1182.65625 L 5645.15625 1182.65625 L 5645.15625 608.710938 " transform="matrix(0.1,0,0,-0.1,0,800)"/>
</g>
</svg>
