<?xml version="1.0" encoding="UTF-8"?>
<svg xmlns="http://www.w3.org/2000/svg" xmlns:xlink="http://www.w3.org/1999/xlink" width="799.82pt" height="753.67pt" viewBox="0 0 799.82 753.67" version="1.1">
<defs>
<clipPath id="clip1">
  <path d="M 124 48 L 799.820313 48 L 799.820313 597 L 124 597 Z M 124 48 "/>
</clipPath>
<clipPath id="clip2">
  <path d="M 0 302 L 611 302 L 611 753.671875 L 0 753.671875 Z M 0 302 "/>
</clipPath>
<clipPath id="clip3">
  <path d="M 124 232 L 799.820313 232 L 799.820313 271 L 124 271 Z M 124 232 "/>
</clipPath>
</defs>
<g id="surface1">
<path style=" stroke:none;fill-rule:nonzero;fill:rgb(90.625%,70.117188%,66.209412%);fill-opacity:1;" d="M -59.355469 172.5 L 707.625 172.5 L 707.625 -17.457031 L -59.355469 -17.457031 Z M -59.355469 172.5 "/>
<path style=" stroke:none;fill-rule:nonzero;fill:rgb(59.179688%,63.476563%,70.506287%);fill-opacity:1;" d="M 356.65625 463.722656 L 508.082031 463.722656 L 508.082031 312.292969 L 356.65625 312.292969 Z M 356.65625 463.722656 "/>
<path style=" stroke:none;fill-rule:nonzero;fill:rgb(59.179688%,63.476563%,70.506287%);fill-opacity:1;" d="M 585.699219 463.722656 L 737.128906 463.722656 L 737.128906 312.292969 L 585.699219 312.292969 Z M 585.699219 463.722656 "/>
<path style=" stroke:none;fill-rule:nonzero;fill:rgb(59.179688%,63.476563%,70.506287%);fill-opacity:1;" d="M 128.625 463.722656 L 280.054688 463.722656 L 280.054688 312.292969 L 128.625 312.292969 Z M 128.625 463.722656 "/>
<path style=" stroke:none;fill-rule:nonzero;fill:rgb(59.179688%,63.476563%,70.506287%);fill-opacity:1;" d="M 356.65625 690.738281 L 508.082031 690.738281 L 508.082031 539.308594 L 356.65625 539.308594 Z M 356.65625 690.738281 "/>
<path style=" stroke:none;fill-rule:nonzero;fill:rgb(59.179688%,63.476563%,70.506287%);fill-opacity:1;" d="M 585.699219 690.738281 L 737.128906 690.738281 L 737.128906 539.308594 L 585.699219 539.308594 Z M 585.699219 690.738281 "/>
<path style=" stroke:none;fill-rule:nonzero;fill:rgb(59.179688%,63.476563%,70.506287%);fill-opacity:1;" d="M 128.625 690.738281 L 280.054688 690.738281 L 280.054688 539.308594 L 128.625 539.308594 Z M 128.625 690.738281 "/>
<g clip-path="url(#clip1)" clip-rule="nonzero">
<path style="fill:none;stroke-width:380;stroke-linecap:round;stroke-linejoin:round;stroke:rgb(0%,0%,0%);stroke-opacity:1;stroke-miterlimit:10;" d="M 1437.539063 6858.10625 L 7808.242188 6858.10625 L 7808.242188 1762.910938 " transform="matrix(0.1,0,0,-0.1,0,753.67)"/>
</g>
<g clip-path="url(#clip2)" clip-rule="nonzero">
<path style="fill:none;stroke-width:380;stroke-linecap:round;stroke-linejoin:round;stroke:rgb(0%,0%,0%);stroke-opacity:1;stroke-miterlimit:10;" d="M 5918.125 189.98125 L 197.109375 189.98125 L 197.109375 4320.60625 " transform="matrix(0.1,0,0,-0.1,0,753.67)"/>
</g>
<g clip-path="url(#clip3)" clip-rule="nonzero">
<path style="fill:none;stroke-width:380;stroke-linecap:round;stroke-linejoin:round;stroke:rgb(0%,0%,0%);stroke-opacity:1;stroke-miterlimit:10;" d="M 1437.539063 5020.410938 L 7808.242188 5020.410938 " transform="matrix(0.1,0,0,-0.1,0,753.67)"/>
</g>
</g>
</svg>
