<?xml version="1.0" encoding="UTF-8"?>
<svg xmlns="http://www.w3.org/2000/svg" xmlns:xlink="http://www.w3.org/1999/xlink" width="728.54pt" height="800pt" viewBox="0 0 728.54 800" version="1.1">
<defs>
<clipPath id="clip1">
  <path d="M 100 235 L 728.539063 235 L 728.539063 703 L 100 703 Z M 100 235 "/>
</clipPath>
</defs>
<g id="surface1">
<g clip-path="url(#clip1)" clip-rule="nonzero">
<path style=" stroke:none;fill-rule:nonzero;fill:rgb(98.826599%,89.0625%,67.771912%);fill-opacity:1;" d="M 503.058594 598.890625 L 330.503906 598.890625 L 359.417969 493.203125 C 341.589844 477.136719 330.371094 453.871094 330.371094 427.976563 C 330.371094 379.492188 369.679688 340.1875 418.164063 340.1875 C 466.648438 340.1875 505.953125 379.492188 505.953125 427.976563 C 505.953125 454.933594 493.792969 479.039063 474.671875 495.140625 Z M 728.539063 235.109375 L 103.8125 235.109375 L 100.875 239.113281 L 100.875 702.792969 L 725.601563 702.792969 L 728.539063 698.789063 L 728.539063 687.027344 "/>
</g>
<path style=" stroke:none;fill-rule:nonzero;fill:rgb(98.826599%,89.0625%,67.771912%);fill-opacity:1;" d="M 667.3125 255.417969 L 667.3125 157.230469 C 667.3125 18.265625 554.660156 -94.386719 415.691406 -94.386719 C 276.730469 -94.386719 164.074219 18.265625 164.074219 157.230469 L 164.074219 259.546875 L 266.382813 264.488281 L 266.382813 157.230469 C 266.382813 74.769531 333.230469 7.921875 415.691406 7.921875 C 498.15625 7.921875 565.003906 74.769531 565.003906 157.230469 L 565.003906 252.652344 "/>
<path style="fill:none;stroke-width:380;stroke-linecap:round;stroke-linejoin:round;stroke:rgb(0%,0%,0%);stroke-opacity:1;stroke-miterlimit:10;" d="M 4275.78125 149.804688 L 190 149.804688 L 190 4786.601563 " transform="matrix(0.1,0,0,-0.1,0,800)"/>
<path style="fill:none;stroke-width:380;stroke-linecap:round;stroke-linejoin:round;stroke:rgb(0%,0%,0%);stroke-opacity:1;stroke-miterlimit:10;" d="M 219.375 4826.640625 L 6466.640625 4826.640625 L 6466.640625 1802.65625 " transform="matrix(0.1,0,0,-0.1,0,800)"/>
<path style="fill:none;stroke-width:380;stroke-linecap:round;stroke-linejoin:round;stroke:rgb(0%,0%,0%);stroke-opacity:1;stroke-miterlimit:10;" d="M 5879.0625 4831.757813 L 5879.0625 5633.632813 C 5879.0625 7023.242188 4752.539063 8149.804688 3362.851563 8149.804688 C 1973.203125 8149.804688 846.679688 7023.242188 846.679688 5633.632813 L 846.679688 4890.46875 " transform="matrix(0.1,0,0,-0.1,0,800)"/>
<path style="fill:none;stroke-width:380;stroke-linecap:round;stroke-linejoin:round;stroke:rgb(0%,0%,0%);stroke-opacity:1;stroke-miterlimit:10;" d="M 4855.976563 4859.414063 L 4855.976563 5633.59375 C 4855.976563 6458.242188 4187.5 7126.71875 3362.851563 7126.71875 C 2538.242188 7126.71875 1869.765625 6458.242188 1869.765625 5633.59375 L 1869.765625 4841.054688 " transform="matrix(0.1,0,0,-0.1,0,800)"/>
<path style="fill:none;stroke-width:380;stroke-linecap:round;stroke-linejoin:round;stroke:rgb(0%,0%,0%);stroke-opacity:1;stroke-miterlimit:10;" d="M 4240.78125 2897.96875 C 4240.78125 3382.8125 3847.695313 3775.859375 3362.851563 3775.859375 C 2878.046875 3775.859375 2484.960938 3382.8125 2484.960938 2897.96875 C 2484.960938 2639.023438 2597.109375 2406.367188 2775.429688 2245.664063 L 2486.289063 1188.828125 L 4211.835938 1188.828125 L 3927.96875 2226.328125 C 4119.179688 2387.34375 4240.78125 2628.398438 4240.78125 2897.96875 Z M 4240.78125 2897.96875 " transform="matrix(0.1,0,0,-0.1,0,800)"/>
</g>
</svg>
