<?xml version="1.0" encoding="UTF-8"?>
<svg xmlns="http://www.w3.org/2000/svg" xmlns:xlink="http://www.w3.org/1999/xlink" width="800pt" height="726.96pt" viewBox="0 0 800 726.96" version="1.1">
<defs>
<clipPath id="clip1">
  <path d="M 0 339 L 387 339 L 387 726.960938 L 0 726.960938 Z M 0 339 "/>
</clipPath>
<clipPath id="clip2">
  <path d="M 412 339 L 800 339 L 800 726.960938 L 412 726.960938 Z M 412 339 "/>
</clipPath>
</defs>
<g id="surface1">
<path style=" stroke:none;fill-rule:nonzero;fill:rgb(98.826599%,89.0625%,67.771912%);fill-opacity:1;" d="M 124.730469 321.65625 L 168.152344 455.296875 L 308.667969 455.296875 L 194.988281 537.886719 L 238.410156 671.527344 L 124.730469 588.933594 L 11.050781 671.527344 L 54.472656 537.886719 L -59.207031 455.296875 L 81.308594 455.296875 "/>
<path style=" stroke:none;fill-rule:nonzero;fill:rgb(98.826599%,89.0625%,67.771912%);fill-opacity:1;" d="M 556.132813 321.65625 L 599.554688 455.296875 L 740.066406 455.296875 L 626.390625 537.886719 L 669.8125 671.527344 L 556.132813 588.933594 L 442.453125 671.527344 L 485.875 537.886719 L 372.195313 455.296875 L 512.710938 455.296875 "/>
<path style=" stroke:none;fill-rule:nonzero;fill:rgb(98.826599%,89.0625%,67.771912%);fill-opacity:1;" d="M 341.234375 0 L 384.65625 133.636719 L 525.171875 133.636719 L 411.492188 216.230469 L 454.914063 349.867188 L 341.234375 267.273438 L 227.558594 349.867188 L 270.976563 216.230469 L 157.300781 133.636719 L 297.8125 133.636719 "/>
<g clip-path="url(#clip1)" clip-rule="nonzero">
<path style="fill:none;stroke-width:380;stroke-linecap:round;stroke-linejoin:round;stroke:rgb(0%,0%,0%);stroke-opacity:1;stroke-miterlimit:10;" d="M 2541.953125 1526.396875 L 2976.132813 189.990625 L 1839.375 1015.928125 L 702.578125 189.990625 L 1136.796875 1526.396875 L 0 2352.295312 L 1405.15625 2352.295312 L 1839.375 3688.6625 L 2273.554688 2352.295312 L 3678.710938 2352.295312 " transform="matrix(0.1,0,0,-0.1,0,726.96)"/>
</g>
<g clip-path="url(#clip2)" clip-rule="nonzero">
<path style="fill:none;stroke-width:380;stroke-linecap:round;stroke-linejoin:round;stroke:rgb(0%,0%,0%);stroke-opacity:1;stroke-miterlimit:10;" d="M 6855.9375 1526.396875 L 7290.15625 189.990625 L 6153.359375 1015.928125 L 5016.5625 189.990625 L 5450.78125 1526.396875 L 4313.984375 2352.295312 L 5719.140625 2352.295312 L 6153.359375 3688.6625 L 6587.578125 2352.295312 L 7992.734375 2352.295312 " transform="matrix(0.1,0,0,-0.1,0,726.96)"/>
</g>
<path style="fill:none;stroke-width:380;stroke-linecap:round;stroke-linejoin:round;stroke:rgb(0%,0%,0%);stroke-opacity:1;stroke-miterlimit:10;" d="M 4706.992188 4742.959375 L 5141.210938 3406.553125 L 4004.414063 4232.490625 L 2867.617188 3406.553125 L 3301.835938 4742.959375 L 2165.039063 5568.857812 L 3570.195313 5568.857812 L 4004.414063 6905.264062 L 4438.632813 5568.857812 L 5843.789063 5568.857812 " transform="matrix(0.1,0,0,-0.1,0,726.96)"/>
</g>
</svg>
